<?xml version="1.0" standalone="no"?>
<!DOCTYPE svg PUBLIC "-//W3C//DTD SVG 20010904//EN"
 "http://www.w3.org/TR/2001/REC-SVG-20010904/DTD/svg10.dtd">
<svg version="1.0" xmlns="http://www.w3.org/2000/svg"
 width="28.000000pt" height="25.000000pt" viewBox="0 0 28.000000 25.000000"
 preserveAspectRatio="xMidYMid meet">

<g transform="translate(0.000000,25.000000) scale(0.100000,-0.100000)"
fill="#000000" stroke="none">
<path d="M63 230 c-114 -69 -60 -230 77 -230 104 0 169 95 125 181 -34 65
-135 90 -202 49z m137 -15 c33 -17 60 -61 60 -97 0 -23 0 -23 -13 2 -10 20
-20 25 -46 23 -39 -1 -49 -9 -33 -25 7 -7 12 -23 12 -36 0 -13 4 -20 10 -17
14 9 12 -8 -3 -29 -9 -13 -23 -17 -52 -14 -34 3 -40 7 -43 28 -3 23 -3 24 10
7 10 -14 21 -17 41 -12 22 6 27 13 27 36 0 40 -27 50 -52 20 l-18 -23 0 31 c0
28 -3 31 -30 31 -22 0 -33 -6 -40 -22 l-9 -23 0 23 c-3 84 99 138 179 97z
m-153 -147 c-3 -8 -6 -5 -6 6 -1 11 2 17 5 13 3 -3 4 -12 1 -19z"/>
</g>
</svg>
