<?xml version="1.0" standalone="no"?>
<!DOCTYPE svg PUBLIC "-//W3C//DTD SVG 20010904//EN"
 "http://www.w3.org/TR/2001/REC-SVG-20010904/DTD/svg10.dtd">
<svg version="1.0" xmlns="http://www.w3.org/2000/svg"
 width="23.000000pt" height="24.000000pt" viewBox="0 0 23.000000 24.000000"
 preserveAspectRatio="xMidYMid meet">

<g transform="translate(0.000000,24.000000) scale(0.100000,-0.100000)"
fill="#000000" stroke="none">
<path d="M41 226 c-7 -8 -11 -20 -10 -28 2 -7 -5 -27 -14 -45 -20 -37 -20
-113 -1 -113 8 0 11 -6 8 -14 -6 -15 12 -18 91 -18 79 0 97 3 91 18 -3 8 0 14
8 14 19 0 19 76 -1 113 -9 18 -17 40 -17 51 -1 30 -31 43 -54 23 -23 -21 -36
-21 -52 -2 -16 19 -34 19 -49 1z m43 -15 c3 -5 -1 -12 -10 -15 -20 -8 -29 -1
-19 13 8 13 22 14 29 2z m91 -2 c10 -14 1 -21 -19 -13 -9 3 -13 10 -10 15 7
12 21 11 29 -2z m-110 -99 c-3 -5 -10 -10 -16 -10 -5 0 -9 5 -9 10 0 6 7 10
16 10 8 0 12 -4 9 -10z m110 0 c-3 -5 -10 -10 -16 -10 -5 0 -9 5 -9 10 0 6 7
10 16 10 8 0 12 -4 9 -10z"/>
</g>
</svg>
