<?xml version="1.0" standalone="no"?>
<!DOCTYPE svg PUBLIC "-//W3C//DTD SVG 20010904//EN"
 "http://www.w3.org/TR/2001/REC-SVG-20010904/DTD/svg10.dtd">
<svg version="1.0" xmlns="http://www.w3.org/2000/svg"
 width="35.000000pt" height="37.000000pt" viewBox="0 0 35.000000 37.000000"
 preserveAspectRatio="xMidYMid meet">

<g transform="translate(0.000000,37.000000) scale(0.100000,-0.100000)"
fill="#000000" stroke="none">
<path d="M16 358 c6 -7 8 -24 6 -38 -2 -14 -5 -43 -6 -65 -1 -22 -5 -49 -9
-61 -11 -30 18 -93 48 -104 14 -5 25 -16 25 -23 0 -7 12 -25 28 -39 37 -35 86
-33 136 7 76 61 86 74 86 104 0 17 5 41 11 55 9 20 7 35 -14 87 -32 81 -58 99
-114 80 -32 -10 -45 -11 -62 -1 -14 7 -33 9 -49 4 -31 -9 -29 -9 -66 0 -23 6
-27 5 -20 -6z m270 -33 c10 -15 13 -32 9 -46 -5 -14 -4 -19 4 -15 6 4 16 -4
23 -18 9 -20 8 -32 -2 -53 -7 -16 -12 -39 -11 -53 2 -19 0 -22 -9 -13 -7 6
-13 31 -14 55 -1 39 -3 43 -26 43 -19 0 -26 -6 -28 -23 -4 -24 25 -65 39 -57
10 7 22 -32 14 -46 -5 -7 -26 -8 -59 -4 -35 4 -47 3 -36 -4 24 -16 -16 -26
-48 -12 -21 10 -23 14 -11 22 12 7 12 9 -1 10 -8 1 -25 0 -37 -1 -28 -2 -29
14 -5 38 10 10 17 22 15 28 -1 5 1 15 6 23 8 13 12 13 26 1 15 -12 16 -11 10
13 -9 33 21 50 40 24 10 -14 12 -11 13 18 1 25 -4 39 -18 47 -19 12 -18 14 13
30 45 24 74 22 93 -7z m-152 -31 c19 -18 20 -33 3 -54 -19 -25 -53 -22 -66 6
-6 14 -11 27 -11 29 0 9 33 35 45 35 7 0 21 -7 29 -16z m52 -9 c11 -27 -2 -37
-14 -11 -7 16 -8 26 -1 26 5 0 12 -7 15 -15z m74 -75 c0 -5 -4 -10 -10 -10 -5
0 -10 5 -10 10 0 6 5 10 10 10 6 0 10 -4 10 -10z m-218 -25 c-2 -14 -8 -25
-13 -25 -10 0 -11 12 -3 34 10 25 22 19 16 -9z m34 -27 c-9 -5 -14 -13 -11
-18 3 -5 1 -11 -5 -15 -23 -14 -22 27 1 51 21 22 24 23 28 8 1 -9 -4 -21 -13
-26z m44 -98 c0 -5 -4 -10 -10 -10 -5 0 -10 5 -10 10 0 6 5 10 10 10 6 0 10
-4 10 -10z m115 0 c3 -5 1 -10 -4 -10 -6 0 -11 5 -11 10 0 6 2 10 4 10 3 0 8
-4 11 -10z m-75 -27 c0 -20 -24 -11 -28 10 -2 12 1 15 12 11 9 -3 16 -13 16
-21z m48 5 c-6 -18 -28 -21 -28 -4 0 9 7 16 16 16 9 0 14 -5 12 -12z"/>
<path d="M153 160 c-18 -11 -33 -24 -33 -29 0 -11 98 -26 108 -16 8 7 -19 57
-33 62 -5 1 -25 -6 -42 -17z m12 -20 c3 -5 -1 -10 -10 -10 -9 0 -13 5 -10 10
3 6 8 10 10 10 2 0 7 -4 10 -10z m50 -10 c3 -5 -1 -10 -10 -10 -9 0 -13 5 -10
10 3 6 8 10 10 10 2 0 7 -4 10 -10z"/>
<path d="M80 270 c0 -5 5 -10 10 -10 6 0 10 5 10 10 0 6 -4 10 -10 10 -5 0
-10 -4 -10 -10z"/>
<path d="M120 270 c0 -5 5 -10 10 -10 6 0 10 5 10 10 0 6 -4 10 -10 10 -5 0
-10 -4 -10 -10z"/>
</g>
</svg>
