<?xml version="1.0" standalone="no"?>
<!DOCTYPE svg PUBLIC "-//W3C//DTD SVG 20010904//EN"
 "http://www.w3.org/TR/2001/REC-SVG-20010904/DTD/svg10.dtd">
<svg version="1.0" xmlns="http://www.w3.org/2000/svg"
 width="28.000000pt" height="33.000000pt" viewBox="0 0 28.000000 33.000000"
 preserveAspectRatio="xMidYMid meet">

<g transform="translate(0.000000,33.000000) scale(0.100000,-0.100000)"
fill="#000000" stroke="none">
<path d="M69 307 c-44 -30 -74 -85 -65 -120 3 -15 19 -41 35 -59 23 -27 26
-36 17 -50 -18 -28 35 -75 84 -75 49 0 102 47 84 75 -9 14 -6 23 17 50 40 45
46 78 23 121 -41 77 -129 103 -195 58z m131 -12 c31 -16 60 -61 60 -92 -1 -10
-7 -29 -15 -43 -14 -25 -14 -24 -12 15 2 37 0 40 -23 40 -22 0 -25 -5 -28 -40
-2 -30 0 -36 8 -25 8 12 10 12 10 -6 0 -30 -19 -44 -61 -44 -43 0 -68 22 -50
44 7 8 11 27 9 43 -2 22 -8 28 -28 28 -23 0 -25 -3 -23 -40 2 -39 2 -40 -12
-15 -19 32 -18 54 0 90 29 55 105 76 165 45z m-130 -95 c0 -5 -4 -10 -10 -10
-5 0 -10 5 -10 10 0 6 5 10 10 10 6 0 10 -4 10 -10z m140 0 c0 -5 -4 -10 -10
-10 -5 0 -10 5 -10 10 0 6 5 10 10 10 6 0 10 -4 10 -10z m-2 -133 c2 -10 -1
-17 -7 -17 -6 0 -11 6 -12 13 -1 6 -4 1 -8 -12 -8 -28 -31 -41 -31 -17 0 9 -4
16 -10 16 -5 0 -10 -7 -10 -16 0 -24 -25 -11 -28 16 -3 17 -6 20 -12 9 -11
-16 -25 -6 -18 13 4 9 26 13 69 12 51 -1 65 -4 67 -17z"/>
<path d="M112 173 c2 -12 12 -18 28 -18 16 0 26 6 28 18 3 13 -3 17 -28 17
-25 0 -31 -4 -28 -17z m41 0 c-7 -2 -19 -2 -25 0 -7 3 -2 5 12 5 14 0 19 -2
13 -5z"/>
</g>
</svg>
