<?xml version="1.0" standalone="no"?>
<!DOCTYPE svg PUBLIC "-//W3C//DTD SVG 20010904//EN"
 "http://www.w3.org/TR/2001/REC-SVG-20010904/DTD/svg10.dtd">
<svg version="1.0" xmlns="http://www.w3.org/2000/svg"
 width="640.000000pt" height="640.000000pt" viewBox="0 0 640.000000 640.000000"
 preserveAspectRatio="xMidYMid meet">

<g transform="translate(0.000000,640.000000) scale(0.100000,-0.100000)"
fill="#000000" stroke="none">
<path d="M3780 6129 c-19 -5 -116 -8 -215 -8 -195 1 -346 -17 -443 -53 -29
-11 -59 -17 -66 -15 -15 6 -56 -32 -56 -51 0 -7 -4 -12 -10 -12 -5 0 -10 7
-10 16 0 13 -3 14 -15 4 -8 -6 -13 -17 -12 -22 1 -6 -14 -15 -33 -20 -54 -15
-100 -64 -100 -109 0 -42 -20 -64 -50 -54 -13 4 -22 1 -26 -9 -3 -9 -13 -16
-21 -16 -11 0 -13 -3 -5 -13 15 -17 52 -376 52 -498 0 -100 -13 -153 -45 -189
-49 -54 -69 -207 -49 -369 10 -84 10 -119 2 -134 -23 -44 -57 -210 -64 -318
-4 -72 -12 -122 -22 -137 -8 -12 -17 -51 -19 -86 -5 -55 -2 -70 17 -101 l23
-37 -21 -28 c-15 -20 -22 -47 -25 -97 -2 -37 -11 -82 -19 -98 -9 -18 -12 -40
-8 -55 3 -14 1 -43 -6 -65 -7 -25 -10 -86 -7 -162 4 -114 3 -122 -16 -133 -11
-5 -25 -27 -30 -48 -13 -50 -5 -189 12 -215 9 -15 11 -31 6 -50 -5 -19 -3 -32
7 -41 12 -12 12 -24 3 -67 -6 -29 -9 -73 -6 -98 3 -25 2 -62 -2 -81 -12 -56 5
-120 42 -158 40 -42 113 -84 152 -88 17 -2 44 -6 62 -10 46 -9 57 17 48 118
-5 52 -4 78 3 75 5 -4 12 -24 16 -45 10 -68 62 -85 79 -27 5 17 12 36 16 44 4
8 3 40 -3 70 -5 31 -10 108 -10 171 -1 104 -4 119 -25 148 -35 50 -57 54 -142
26 -78 -26 -166 -31 -145 -9 6 7 13 9 16 4 8 -13 80 2 80 16 0 7 8 19 17 26
11 10 14 10 9 2 -12 -20 8 -15 27 7 20 24 35 26 43 5 4 -8 18 -15 34 -15 15 0
39 -9 52 -20 14 -10 29 -16 33 -12 4 4 -19 20 -52 35 -57 27 -57 28 -18 21 47
-7 43 0 -11 20 l-39 15 33 0 c17 1 32 5 32 9 0 10 -79 37 -99 33 -7 -1 -10 2
-7 8 8 12 -101 37 -179 41 -27 1 -25 3 19 18 34 11 51 13 53 5 3 -7 16 -8 41
-2 20 5 44 6 53 3 9 -2 24 2 32 11 16 16 42 21 33 6 -3 -4 6 -6 20 -3 25 4 24
5 -13 23 -21 9 -31 17 -23 18 24 0 103 -43 108 -59 4 -11 1 -10 -12 3 -21 21
-32 22 -40 2 -4 -11 3 -20 22 -28 32 -14 52 -32 52 -46 0 -5 5 -13 12 -17 8
-5 9 0 4 17 -14 43 -11 84 6 103 10 10 15 22 13 26 -3 4 2 13 10 20 8 7 13 16
10 20 -10 16 24 32 54 25 37 -8 53 -26 41 -45 -13 -21 -12 -72 3 -91 7 -9 22
-21 35 -28 18 -10 26 -9 47 6 13 10 26 25 29 33 2 8 4 0 3 -19 -1 -20 3 -36
11 -38 6 -3 12 0 12 7 0 6 -5 8 -12 4 -8 -5 -9 -2 -4 12 5 10 11 27 13 37 6
20 19 22 25 5 4 -11 3 -56 -1 -88 0 -5 -26 -10 -56 -10 -50 0 -55 -2 -54 -22
2 -75 -25 -307 -52 -438 -9 -50 -11 -74 -9 -112 0 -7 -2 -33 -5 -58 -5 -35 0
-61 20 -115 15 -38 26 -77 26 -85 -2 -20 -18 -164 -25 -215 -2 -21 -2 -44 1
-49 10 -15 3 -109 -8 -123 -7 -8 -3 -16 13 -27 12 -9 18 -16 12 -16 -5 0 -16
6 -23 12 -12 11 -13 9 -6 -7 20 -52 33 -127 22 -122 -8 3 -12 -12 -12 -48 -1
-44 1 -50 11 -37 10 14 12 14 12 2 -3 -43 3 -80 13 -80 5 0 7 6 3 13 -4 6 -4
9 1 5 10 -10 17 -68 10 -86 -4 -12 -8 -12 -20 -2 -12 10 -15 10 -15 0 0 -13
29 -39 44 -40 4 0 5 7 2 16 -3 9 -3 20 0 26 4 6 7 32 8 59 1 38 -3 49 -16 53
-10 2 -18 9 -18 16 0 6 6 8 13 4 6 -4 2 4 -10 18 -25 27 -30 53 -11 64 7 5 9
0 6 -14 -4 -14 -2 -19 8 -15 8 3 15 -5 19 -24 4 -15 11 -38 17 -50 14 -28 14
-115 0 -138 -13 -24 -4 -53 20 -61 11 -3 17 -8 14 -11 -7 -7 -66 29 -66 41 0
29 -25 -20 -31 -61 -4 -27 -13 -68 -20 -92 -12 -43 -12 -44 20 -70 28 -23 31
-31 25 -56 -4 -16 -22 -48 -40 -72 -36 -47 -51 -86 -58 -151 -11 -100 15 -126
128 -126 79 0 197 24 170 35 -18 7 -18 8 1 8 22 1 99 83 127 135 11 21 13 36
7 48 -7 13 -6 18 3 18 8 1 7 5 -4 14 -26 19 -22 26 12 26 28 0 30 3 30 35 0
25 7 43 23 58 28 26 40 54 26 62 -5 4 -8 1 -7 -6 2 -7 -6 -14 -17 -16 -11 -1
-14 0 -7 3 16 8 15 24 -2 24 -22 0 -30 79 -11 99 32 32 95 123 95 137 0 21
-18 17 -30 -6 -8 -14 -8 -20 0 -20 6 0 8 -5 5 -10 -4 -6 -10 -8 -15 -5 -5 3
-19 1 -32 -4 -18 -6 -28 -3 -43 12 -18 18 -18 19 -1 10 33 -18 62 -2 57 30 0
4 5 7 13 7 21 0 36 23 26 40 -7 12 -12 11 -29 -5 -12 -10 -23 -16 -26 -13 -3
3 8 15 25 28 16 13 30 29 30 37 0 18 19 52 49 85 35 40 19 50 -46 27 -64 -22
-83 -24 -83 -8 0 5 4 8 9 5 5 -4 4 7 -1 23 -10 26 -14 27 -45 21 -18 -4 -31
-4 -28 0 3 5 -1 11 -7 13 -7 3 1 6 18 6 30 1 54 16 54 36 0 5 -4 4 -9 -3 -12
-20 -149 -22 -183 -3 -32 17 -37 31 -9 24 11 -3 21 2 25 13 4 10 4 15 0 11 -4
-4 -12 1 -19 9 -11 15 -24 19 -79 23 -27 1 -14 11 22 17 18 3 33 -1 42 -11 7
-8 17 -11 24 -7 6 4 42 9 80 12 88 6 98 25 13 26 -36 0 -91 10 -129 23 -37 12
-72 20 -78 16 -14 -9 -12 11 3 23 7 6 32 7 67 2 201 -30 363 -39 373 -22 3 4
-32 7 -76 7 -79 0 -142 10 -272 40 -33 8 -71 16 -85 19 -57 10 63 -3 155 -17
165 -26 188 -26 269 -9 42 10 74 20 71 24 -3 3 -23 2 -43 -2 -103 -22 -111
-22 -105 -2 3 14 -2 21 -18 25 -13 4 -25 4 -28 2 -2 -3 1 -5 7 -5 7 0 12 -6
12 -14 0 -26 -83 -23 -202 7 -62 16 -121 28 -130 28 -10 0 -18 4 -18 10 0 5
-5 9 -11 9 -5 0 -7 -4 -4 -10 3 -5 1 -10 -4 -10 -6 0 -11 7 -11 16 0 13 7 15
36 11 31 -5 34 -4 23 9 -10 13 -8 13 14 5 21 -8 25 -7 21 4 -3 7 4 18 15 25
20 10 20 9 9 -17 -7 -15 -17 -31 -23 -35 -5 -4 -1 -7 10 -7 65 -1 131 -7 135
-12 9 -10 90 -18 90 -8 0 5 -8 9 -17 10 -10 0 -27 3 -38 5 -11 2 -39 6 -61 8
-23 2 -47 7 -53 10 -6 4 -11 3 -11 -3 0 -6 -7 -8 -16 -4 -13 5 -13 7 -2 14 10
7 10 9 -2 9 -11 1 -10 4 5 16 11 8 32 14 47 11 20 -2 29 1 34 15 3 10 10 15
16 12 8 -5 9 -1 5 9 -17 42 -20 52 -13 45 5 -4 19 -3 32 2 15 6 34 6 48 0 29
-11 51 9 51 46 l1 22 -27 -19 c-33 -23 -89 -26 -89 -4 0 8 8 15 18 15 28 0 54
23 47 41 -5 14 -11 15 -45 3 -23 -8 -63 -12 -94 -10 -41 4 -56 1 -60 -10 -3
-8 -10 -14 -16 -14 -6 0 -8 4 -5 10 3 6 1 10 -4 10 -6 0 -11 -4 -11 -9 0 -22
-31 -17 -60 10 -17 17 -30 32 -28 34 2 2 21 0 43 -4 50 -9 126 -5 134 7 3 5
24 11 46 14 22 3 46 7 54 9 7 2 16 -2 19 -10 3 -10 0 -12 -11 -8 -9 3 -19 2
-22 -3 -7 -11 18 -11 55 -1 25 7 25 7 2 13 -14 4 -20 11 -16 21 3 8 1 18 -5
22 -6 3 -11 2 -11 -3 0 -5 -18 -12 -41 -16 -29 -5 -44 -2 -55 9 -9 8 -21 15
-27 16 -7 0 -22 2 -35 5 -13 2 -21 0 -18 -5 3 -5 -2 -7 -13 -4 -10 3 -22 0
-25 -6 -4 -6 -17 -11 -28 -11 -20 0 -19 2 6 25 15 14 31 25 35 25 13 0 34 58
28 74 -4 10 -1 13 8 9 8 -3 13 -8 10 -12 -5 -9 76 2 93 13 7 4 12 4 11 -1 -4
-25 4 -24 16 2 l15 30 -4 -27 c-4 -33 13 -51 34 -38 12 8 11 10 -5 11 -15 0
-16 2 -5 6 8 4 21 13 28 22 8 9 11 10 7 3 -3 -6 -1 -12 4 -12 11 0 12 4 15 77
1 30 -3 43 -12 43 -8 0 -12 5 -10 12 3 7 21 13 41 14 l37 1 -22 -24 c-12 -12
-16 -23 -10 -23 7 0 12 5 12 12 0 6 3 8 6 5 4 -3 15 4 25 17 23 29 24 37 5 30
-8 -3 -17 -1 -20 4 -7 12 15 22 40 18 13 -2 19 -11 18 -26 -1 -21 0 -22 12 -5
19 25 -8 65 -38 57 -14 -3 -19 -1 -14 6 4 7 14 12 22 12 18 0 18 14 -1 30 -8
7 -13 16 -10 20 3 5 -5 16 -17 24 -17 12 -20 18 -10 28 10 10 16 8 29 -5 11
-11 13 -17 5 -17 -8 0 -5 -9 8 -22 11 -12 20 -25 20 -29 0 -4 20 -18 45 -30
25 -13 60 -37 78 -54 32 -32 67 -51 67 -37 0 4 -24 24 -53 44 -28 21 -71 52
-95 68 -26 19 -42 37 -38 45 2 7 -2 19 -10 25 -8 7 -14 17 -14 23 0 6 18 -7
40 -28 48 -46 54 -36 8 12 l-33 34 55 -30 c30 -17 62 -31 70 -30 8 0 3 7 -12
15 -16 8 -28 22 -28 32 0 12 -16 23 -51 35 -28 10 -48 21 -45 24 3 3 23 -2 46
-11 22 -9 51 -16 64 -16 18 0 27 -8 35 -31 6 -17 22 -40 36 -51 14 -11 25 -25
25 -31 0 -7 7 -20 14 -30 12 -16 14 -14 12 23 -1 23 -9 46 -17 51 -8 5 -11 9
-7 9 4 0 0 16 -8 36 -14 34 -14 38 2 53 9 9 14 11 11 5 -3 -6 0 -11 8 -11 8 0
11 5 7 11 -12 19 -11 40 1 48 9 6 9 8 -1 8 -7 0 -10 5 -6 12 4 6 3 8 -4 4 -6
-3 -13 -2 -17 4 -3 5 -1 10 4 10 6 0 11 5 11 11 0 6 -7 9 -15 5 -8 -3 -15 -2
-15 3 0 5 14 11 31 15 45 9 51 8 43 -6 -4 -7 3 -3 14 9 12 11 38 26 59 33 21
6 47 15 58 20 11 5 32 11 46 14 18 4 28 14 31 31 6 29 -5 31 -59 11 -84 -30
-121 -37 -178 -32 -33 3 -78 6 -100 7 -22 1 -32 3 -22 6 9 2 17 14 17 26 l1
22 18 -22 c11 -13 22 -23 25 -23 11 0 6 19 -10 34 -14 14 -12 15 15 12 17 -2
28 1 25 5 -3 5 -11 9 -19 9 -8 0 -13 9 -12 20 1 22 26 27 44 9 9 -9 12 -7 10
10 -1 11 -7 21 -14 21 -7 0 -13 4 -13 10 0 5 16 9 35 8 20 -1 58 9 85 22 39
18 53 21 62 12 9 -9 7 -12 -9 -12 -28 0 -39 -18 -17 -27 10 -4 22 0 30 11 8
11 18 15 26 10 7 -4 3 4 -9 18 -13 13 -23 30 -23 36 0 7 -7 12 -15 12 -8 0
-15 5 -15 12 0 6 -6 19 -14 27 -22 25 -46 105 -34 112 6 4 6 8 -2 11 -7 2 -14
19 -16 38 -4 30 4 22 51 -59 30 -51 55 -95 55 -97 0 -2 20 -32 44 -67 29 -41
45 -77 50 -109 7 -44 26 -66 47 -52 6 3 17 0 26 -8 15 -12 15 -10 0 13 -10 14
-14 29 -10 32 3 4 0 7 -8 7 -14 0 -41 36 -87 114 -17 29 -20 42 -11 52 6 8 9
21 5 29 -3 8 -1 15 4 15 6 0 10 -5 10 -11 0 -5 5 -7 10 -4 6 3 14 -4 19 -17 6
-13 10 -19 10 -15 1 5 13 -1 27 -12 15 -12 32 -21 38 -21 6 0 5 4 -3 9 -11 7
-6 16 23 41 20 18 36 36 36 41 0 5 -14 -3 -31 -18 -38 -34 -83 -42 -74 -13 4
14 2 17 -12 14 -11 -3 -28 5 -42 20 -21 23 -22 26 -7 32 13 5 8 11 -21 26 -51
26 -92 76 -72 89 17 11 31 7 37 -11 3 -9 -1 -11 -12 -7 -29 11 -17 0 42 -39
31 -22 61 -45 66 -53 4 -7 11 -9 15 -5 10 15 53 36 59 30 3 -3 6 -16 8 -29 1
-12 3 -23 3 -25 1 -1 7 2 14 8 6 5 22 18 35 28 13 9 24 29 26 45 3 27 16 51
16 28 0 -7 5 -9 10 -6 6 3 28 -4 50 -16 22 -12 42 -20 45 -17 3 3 -20 18 -52
34 -43 21 -53 29 -38 32 24 5 55 31 55 46 0 6 25 31 55 56 30 25 57 51 60 59
4 11 0 10 -14 -3 -22 -20 -24 -17 -46 50 -22 66 -60 129 -108 181 -22 24 -35
43 -28 43 6 0 16 -9 23 -19 10 -16 14 -17 25 -5 11 10 20 11 33 4 26 -14 29
-13 23 10 -3 11 -14 27 -25 34 -35 25 -3 25 40 1 23 -13 42 -20 42 -16 0 13
-90 53 -109 48 -10 -2 -18 1 -18 7 0 7 16 13 36 14 56 2 71 5 71 14 0 4 -9 8
-20 8 -26 0 -25 12 3 29 12 7 19 10 14 5 -10 -10 131 -51 161 -46 29 6 28 16
-5 28 -21 7 -26 16 -27 42 -1 17 3 32 7 32 5 0 5 5 1 11 -4 8 0 8 15 0 11 -7
21 -9 21 -6 0 3 9 1 21 -5 13 -8 18 -17 14 -28 -3 -9 -3 -13 1 -9 4 4 16 0 26
-10 33 -30 19 -3 -23 42 -23 25 -39 48 -35 52 3 4 11 2 17 -4 8 -8 20 -8 35
-3 27 10 29 7 14 -20 -7 -13 -6 -21 2 -27 17 -10 65 -16 55 -7 -4 4 -15 8 -25
9 -24 1 -30 19 -7 23 9 2 21 -2 26 -10 7 -10 9 -10 9 2 0 22 52 40 75 27 17
-9 16 -7 -2 19 -36 53 -38 57 -14 45 11 -7 21 -17 21 -23 0 -17 11 -2 14 19 2
11 16 21 39 27 21 5 37 13 37 18 0 10 -95 2 -150 -13 -19 -5 -39 -9 -45 -9
-14 1 74 37 110 45 17 4 25 9 18 12 -6 2 -31 -1 -55 -8 -24 -7 -59 -13 -79
-14 -30 -1 -34 1 -23 12 7 7 16 22 19 33 3 11 12 20 19 20 8 0 19 7 26 15 11
13 9 14 -17 3 -27 -12 -40 -21 -81 -58 -9 -9 -26 -22 -36 -30 -18 -14 -19 -13
-14 8 5 18 4 21 -6 13 -7 -6 -16 -8 -19 -5 -3 3 -12 2 -19 -2 -7 -5 -20 -9
-28 -11 -8 -1 -20 -10 -27 -19 -12 -16 -13 -15 -13 9 0 15 -5 27 -10 27 -50 0
-37 89 20 138 8 8 9 11 3 7 -21 -10 -38 8 -39 42 0 17 3 30 7 27 4 -2 5 4 2
15 -2 10 0 36 6 57 14 49 6 57 -13 13 -9 -19 -15 -29 -16 -23 0 21 42 107 64
128 39 39 78 66 87 60 5 -3 9 2 9 10 0 12 -8 15 -32 12 -39 -5 -116 -85 -150
-158 -18 -38 -27 -47 -43 -43 -18 4 -19 3 -3 -9 14 -11 16 -19 8 -47 -6 -19
-10 -54 -10 -79 0 -28 -10 -64 -25 -95 -14 -27 -23 -40 -21 -27 4 22 3 23 -17
9 -12 -8 -32 -31 -43 -52 -26 -45 -35 -35 -39 47 -2 44 -7 65 -19 74 -12 8
-14 14 -6 19 6 4 18 1 27 -7 14 -11 16 -11 10 4 -4 11 0 18 10 20 19 4 44 81
32 100 -9 13 -10 10 -13 -32 -1 -8 -9 -16 -19 -18 -13 -3 -17 3 -18 25 0 15
-4 37 -9 48 -7 17 -9 14 -11 -15 -1 -19 -2 -43 -1 -52 1 -10 -5 -18 -14 -18
-8 0 -13 3 -11 8 3 4 0 18 -5 32 l-10 25 -14 -30 -13 -30 1 30 c1 17 -2 39 -5
51 -4 12 1 47 12 82 24 73 46 181 39 188 -3 2 -13 -25 -22 -62 -9 -36 -28 -89
-42 -116 -14 -28 -23 -56 -20 -64 3 -7 -6 -33 -20 -56 -22 -36 -25 -38 -19
-15 4 22 3 27 -7 21 -10 -6 -10 -4 -3 7 9 13 11 28 6 68 0 7 -7 11 -16 8 -8
-4 -17 -1 -21 5 -5 7 -2 8 7 3 11 -6 12 -5 2 5 -20 22 -27 3 -9 -24 21 -33 20
-39 -6 -31 -20 5 -21 4 -7 -7 8 -7 15 -23 15 -36 0 -33 -30 -23 -34 11 -3 28
-43 54 -63 41 -5 -3 -8 0 -7 8 2 7 -6 13 -18 13 -12 0 -31 8 -41 18 -13 11
-27 15 -39 11 -13 -5 -16 -4 -9 4 6 6 21 12 34 14 14 1 26 8 28 14 2 7 -22 6
-79 -2 -151 -21 -261 -27 -253 -14 5 8 3 11 -6 8 -7 -2 -25 1 -38 8 -14 7 -28
11 -32 9 -4 -3 -12 2 -19 10 -16 20 -28 19 -33 -2 -4 -14 -5 -14 -6 3 -1 12
-17 34 -38 49 -53 39 -103 87 -115 110 -6 11 12 -3 42 -32 143 -141 363 -181
552 -100 61 26 152 92 190 139 37 45 88 144 107 208 l11 35 -6 -40 c-7 -57
-66 -176 -111 -227 -21 -24 -45 -55 -52 -70 -8 -16 -20 -28 -28 -28 -13 0 -38
-48 -30 -57 2 -2 15 1 29 6 27 10 42 36 32 53 -9 14 27 37 59 38 41 0 81 43
73 80 -7 39 17 104 59 159 34 43 45 69 25 56 -5 -3 -10 1 -10 9 0 9 6 16 13
16 8 0 9 2 1 8 -20 12 -27 54 -13 64 11 7 11 11 2 15 -9 3 -10 10 -3 24 8 14
7 19 -1 19 -6 0 -9 7 -5 15 3 8 1 15 -4 15 -18 0 -10 17 13 28 l22 11 -23 0
c-19 1 -22 5 -18 28 3 14 2 31 -1 37 -4 5 -5 31 -4 58 3 49 -17 121 -30 112
-8 -5 -42 40 -52 69 -4 9 -10 16 -14 15 -4 -2 -33 14 -64 35 -31 20 -62 37
-69 37 -10 0 -10 3 0 15 11 13 16 13 44 -2 l31 -16 -25 27 c-18 20 -31 25 -47
21 -16 -4 -25 0 -29 10 -4 8 -12 15 -20 15 -8 0 -14 5 -14 10 0 6 8 10 17 10
14 0 13 3 -5 16 -12 8 -22 21 -21 27 2 13 -7 41 -21 69 -6 11 -5 18 3 21 7 2
-4 12 -23 21 -19 9 -60 30 -90 46 -30 17 -59 28 -65 26 -5 -2 -4 -5 3 -5 6 -1
12 -5 12 -11 0 -15 -74 -12 -106 5 -35 18 -71 19 -76 3 -3 -8 -9 -8 -24 0 -19
11 -19 11 1 19 40 16 303 8 322 -10 3 -4 16 -7 28 -7 12 0 43 -11 69 -25 47
-25 149 -38 116 -14 -11 8 -9 9 10 3 14 -4 31 -9 39 -12 8 -3 12 -1 8 5 -4 7
11 13 39 18 51 7 49 23 -4 29 -36 4 -56 16 -28 16 20 0 50 26 39 33 -5 3 -46
5 -93 6 -46 0 -98 3 -115 5 -16 3 -46 0 -65 -5z m50 -14 c0 -8 -4 -15 -10 -15
-5 0 -10 7 -10 15 0 8 5 15 10 15 6 0 10 -7 10 -15z m40 -5 c0 -5 -4 -10 -10
-10 -5 0 -10 5 -10 10 0 6 5 10 10 10 6 0 10 -4 10 -10z m-498 -52 c-6 -6 -20
-13 -29 -14 -10 -1 -29 -5 -43 -9 -24 -7 -24 -7 -5 8 20 14 46 24 75 26 11 1
11 -2 2 -11z m-122 -52 c0 -3 -4 -8 -10 -11 -5 -3 -10 -1 -10 4 0 6 5 11 10
11 6 0 10 -2 10 -4z m544 -216 c4 0 5 4 2 8 -4 7 16 8 44 3 3 -1 -2 -6 -10
-12 -12 -9 -10 -10 9 -5 13 2 20 1 15 -3 -5 -5 -63 -4 -129 2 -134 11 -258 1
-380 -33 -38 -11 -74 -20 -79 -20 -19 0 9 19 34 24 14 3 43 10 65 16 22 5 56
13 75 16 19 3 42 9 50 13 8 4 71 9 140 10 69 2 127 5 130 7 2 3 10 -2 16 -10
6 -9 14 -16 18 -16z m-544 -64 c0 -3 -4 -8 -10 -11 -5 -3 -10 -1 -10 4 0 6 5
11 10 11 6 0 10 -2 10 -4z m-36 -19 c-6 -17 -64 -61 -70 -54 -3 2 8 12 23 22
15 10 32 24 36 32 10 17 18 17 11 0z m-84 -71 c0 -2 -8 -10 -17 -17 -16 -13
-17 -12 -4 4 13 16 21 21 21 13z m682 -93 c9 -10 19 -34 22 -53 5 -27 4 -30
-3 -14 -20 46 -28 32 -27 -49 1 -45 6 -85 11 -89 6 -5 4 -12 -5 -18 -14 -9
-16 -14 -19 -52 0 -10 -5 -18 -10 -18 -13 0 -20 35 -10 52 4 8 9 61 10 119 1
64 6 107 13 111 8 6 7 8 -1 8 -7 0 -13 5 -13 10 0 15 15 12 32 -7z m82 -4 c-3
-5 -10 -7 -15 -3 -5 3 -7 10 -3 15 3 5 10 7 15 3 5 -3 7 -10 3 -15z m-34 -5
c0 -8 -5 -12 -10 -9 -6 4 -8 11 -5 16 9 14 15 11 15 -7z m47 -49 c4 -24 2 -27
-11 -16 -8 7 -20 10 -26 6 -6 -4 -6 3 2 20 14 32 30 28 35 -10z m47 -51 c14
-55 18 -109 8 -99 -6 6 -13 32 -17 59 -3 27 -8 52 -11 57 -3 5 -1 9 4 9 6 0
13 -12 16 -26z m-367 -24 c4 -16 6 -53 4 -81 -2 -38 -6 -49 -17 -45 -8 3 -14
-1 -14 -10 0 -8 -4 -12 -10 -9 -14 9 -12 79 3 94 10 10 9 11 -4 6 -23 -9 -32
10 -14 28 8 9 12 23 9 31 -4 11 0 16 15 16 14 0 23 -9 28 -30z m280 3 c1 -19
-1 -22 -8 -12 -11 17 -12 39 -1 39 4 0 8 -12 9 -27z m53 17 c0 -5 -4 -10 -10
-10 -5 0 -10 5 -10 10 0 6 5 10 10 10 6 0 10 -4 10 -10z m-520 -24 c0 -8 -4
-18 -10 -21 -5 -3 -10 3 -10 14 0 12 5 21 10 21 6 0 10 -6 10 -14z m-98 -78
c-15 -15 -27 14 -17 40 6 15 8 15 18 -6 7 -16 7 -26 -1 -34z m162 27 c-18 -15
-18 -15 9 -9 16 4 27 2 27 -5 0 -6 -7 -8 -15 -5 -23 9 -18 -14 8 -39 13 -12
15 -16 5 -8 -15 12 -18 11 -24 -5 -19 -59 -20 -61 -33 -36 -13 25 -41 30 -41
8 0 -8 -4 -17 -9 -20 -5 -3 -8 19 -8 50 0 30 -3 58 -7 61 -3 4 -6 -1 -6 -11 0
-15 -2 -16 -15 -2 -26 25 -28 24 104 34 24 2 24 2 5 -13z m376 -5 c0 -5 -4
-10 -9 -10 -6 0 -13 5 -16 10 -3 6 1 10 9 10 9 0 16 -4 16 -10z m-479 -73
c-10 -9 -11 -8 -5 6 3 10 9 15 12 12 3 -3 0 -11 -7 -18z m619 -3 c0 -8 -4 -12
-10 -9 -5 3 -10 10 -10 16 0 5 5 9 10 9 6 0 10 -7 10 -16z m-656 -30 c10 -25
-1 -29 -14 -5 -6 12 -7 21 -1 21 5 0 12 -7 15 -16z m456 -23 c0 -34 -44 -64
-63 -45 -13 13 5 25 19 13 11 -9 14 -8 16 2 0 8 2 19 3 24 2 6 3 13 4 18 2 16
21 6 21 -12z m-73 -52 c5 -5 8 -22 5 -36 l-5 -26 -13 24 c-22 40 -14 65 13 38z
m53 -28 c0 -5 -9 -11 -20 -14 -22 -6 -26 3 -8 21 11 11 28 7 28 -7z m25 -30
c-3 -6 -15 -16 -26 -21 -15 -9 -19 -7 -19 5 0 9 10 19 23 24 25 10 32 7 22 -8z
m258 -6 c-3 -8 -14 -15 -24 -15 -23 0 -24 4 -3 24 18 19 36 12 27 -9z m-443
-45 c-20 -13 -40 -13 -40 0 0 6 12 10 28 10 21 0 24 -2 12 -10z m360 -20 c0
-5 -7 -10 -15 -10 -8 0 -15 5 -15 10 0 6 7 10 15 10 8 0 15 -4 15 -10z m-811
-56 c12 -19 16 -32 11 -29 -11 7 -43 65 -36 65 2 0 13 -16 25 -36z m873 -77
c-12 -13 -20 -27 -17 -30 3 -4 2 -5 -2 -2 -3 3 -13 -1 -22 -8 -14 -11 -15 -10
-1 8 27 38 53 65 58 60 3 -3 -4 -16 -16 -28z m-367 -197 c-11 -5 -27 -9 -35
-9 -9 0 -8 4 5 9 11 5 27 9 35 9 9 0 8 -4 -5 -9z m62 4 c-3 -3 -12 -4 -19 -1
-8 3 -5 6 6 6 11 1 17 -2 13 -5z m58 -14 c4 -6 -7 -10 -27 -9 -27 0 -30 2 -13
9 27 12 33 12 40 0z m-345 -110 c0 -5 -4 -10 -10 -10 -5 0 -10 5 -10 10 0 6 5
10 10 10 6 0 10 -4 10 -10z m907 -32 c-3 -8 -6 -5 -6 6 -1 11 2 17 5 13 3 -3
4 -12 1 -19z m-443 -19 c-2 -4 2 -10 8 -12 7 -3 1 -6 -14 -6 -15 -1 -32 -9
-37 -18 -14 -24 -14 -10 0 21 7 14 19 24 30 23 10 -1 16 -4 13 -8z m56 1 c0
-5 -5 -10 -11 -10 -5 0 -7 5 -4 10 3 6 8 10 11 10 2 0 4 -4 4 -10z m-250 -10
c0 -5 -8 -10 -17 -10 -15 0 -16 2 -3 10 19 12 20 12 20 0z m97 -15 c0 -8 -5
-13 -11 -12 -6 1 -10 -4 -8 -10 2 -15 -14 -18 -22 -4 -3 5 1 14 9 21 8 7 12
16 9 21 -3 5 1 6 9 3 7 -2 14 -11 14 -19z m233 0 c0 -9 -10 -20 -22 -25 -18
-7 -19 -9 -5 -9 9 -1 17 -6 17 -12 0 -6 -8 -9 -17 -7 -12 2 -19 14 -21 36 -3
29 -1 32 22 32 17 0 26 -6 26 -15z m-50 -103 c5 -30 9 -91 9 -135 0 -45 0 -97
0 -114 1 -18 -4 -33 -10 -33 -6 0 -9 7 -6 15 4 8 1 17 -4 21 -7 4 -7 10 0 17
19 19 13 38 -11 35 -14 -2 -22 2 -21 9 2 8 -4 10 -14 6 -12 -5 -14 -3 -8 8 7
11 6 12 -7 2 -8 -7 -19 -9 -23 -5 -5 4 -5 -2 -1 -12 6 -16 4 -17 -10 -5 -14
11 -18 11 -29 -5 -8 -10 -18 -15 -24 -12 -5 4 -14 -1 -19 -9 -5 -10 -15 -13
-25 -9 -18 7 -24 34 -7 34 6 0 10 5 10 10 0 6 -7 10 -15 10 -8 0 -15 5 -15 11
0 7 11 9 26 6 20 -4 35 3 61 26 18 17 31 32 29 34 -6 6 -41 -13 -61 -34 -12
-12 -19 -13 -24 -4 -5 8 -12 6 -25 -8 -9 -10 -16 -22 -14 -27 1 -5 -3 -23 -9
-41 -10 -29 -16 -32 -66 -38 -31 -4 -60 -4 -66 0 -19 11 -12 33 12 38 18 4 17
5 -7 6 -24 1 -27 3 -16 16 7 9 21 13 35 9 13 -3 26 -1 29 5 4 6 14 11 22 11 8
0 12 -4 9 -10 -9 -15 14 -12 30 4 8 7 13 15 11 17 -2 2 -6 35 -9 72 -6 66 -6
68 16 65 17 -2 22 -10 22 -35 0 -18 4 -28 8 -24 5 5 9 25 9 45 0 23 6 40 17
47 13 8 12 9 -6 4 -26 -7 -30 7 -8 25 8 7 15 9 15 4 0 -5 10 5 21 21 18 25 20
27 16 8 -3 -13 -1 -26 4 -29 5 -3 9 0 9 5 0 6 5 11 10 11 6 0 10 -10 10 -21 0
-17 4 -20 23 -15 12 3 32 6 45 6 19 0 22 6 23 38 l1 37 9 -30 c5 -16 14 -54
19 -83z m-426 76 c9 -35 7 -41 -11 -33 -13 4 -12 1 5 -15 12 -11 22 -26 21
-33 0 -9 -2 -9 -6 1 -2 6 -12 12 -21 12 -14 0 -14 -2 -3 -9 8 -5 12 -18 8 -30
-3 -12 -1 -19 4 -15 5 3 9 -2 9 -10 0 -9 -7 -16 -16 -16 -8 0 -13 -4 -9 -10 3
-5 12 -7 20 -4 10 4 12 0 8 -14 -3 -11 -13 -22 -23 -25 -15 -4 -18 1 -18 25 1
34 -17 50 -49 42 -12 -3 -26 -3 -32 0 -15 10 7 62 40 94 35 33 36 41 5 35 -14
-3 -23 -10 -20 -17 3 -7 -5 -21 -17 -32 l-22 -19 14 23 c11 18 12 24 1 31 -12
7 -4 11 83 36 20 6 23 5 29 -17z m172 -30 c-3 -7 -9 -21 -12 -30 -4 -10 -10
-18 -13 -18 -11 0 -7 44 4 52 16 12 27 9 21 -4z m396 -35 c-9 -28 -9 -27 -10
11 0 25 3 35 10 28 7 -7 7 -20 0 -39z m-375 -5 c-3 -8 -6 -5 -6 6 -1 11 2 17
5 13 3 -3 4 -12 1 -19z m-397 -29 c0 -10 -4 -19 -10 -19 -5 0 -10 12 -10 26 0
14 4 23 10 19 6 -3 10 -15 10 -26z m36 12 c-3 -4 -2 -38 2 -75 5 -36 5 -66 0
-66 -4 0 -8 13 -8 29 0 15 -3 49 -6 75 -5 32 -3 46 5 46 7 0 10 -4 7 -9z m909
-11 c-3 -5 -1 -10 5 -10 5 0 -1 -22 -14 -49 -14 -27 -22 -51 -19 -55 4 -3 2
-6 -4 -6 -5 0 -10 -12 -9 -27 1 -20 6 -28 19 -27 9 1 17 -1 17 -5 0 -16 -94
-91 -115 -91 -6 0 -18 18 -28 40 -9 22 -19 40 -22 40 -4 0 -20 -7 -36 -16 -17
-8 -34 -13 -37 -9 -3 3 4 8 16 12 24 6 31 48 10 55 -23 8 16 35 47 34 25 -1
31 -6 35 -30 3 -16 16 -36 29 -45 24 -15 24 -15 19 12 -4 19 -2 27 6 24 8 -3
11 10 9 41 -3 40 1 49 35 83 37 39 49 48 37 29z m-186 -24 c-11 -10 -49 -16
-49 -8 0 13 44 31 49 20 1 -5 1 -11 0 -12z m-679 -36 c0 -10 -4 -21 -9 -25 -5
-3 -9 8 -9 24 1 32 18 33 18 1z m665 10 c-3 -5 -16 -15 -28 -21 -21 -10 -21
-9 2 10 25 23 36 27 26 11z m520 0 c-3 -5 -12 -10 -18 -10 -7 0 -6 4 3 10 19
12 23 12 15 0z m-494 -47 c-6 -11 -11 -13 -11 -5 0 10 -5 10 -22 -2 -12 -9
-29 -16 -38 -15 -13 0 -13 1 0 6 8 4 26 19 39 35 21 23 27 25 34 13 4 -9 4
-23 -2 -32z m-1043 12 c-3 -3 -9 2 -12 12 -6 14 -5 15 5 6 7 -7 10 -15 7 -18z
m-11 -94 c1 -8 -16 5 -38 30 -58 65 -68 92 -13 34 27 -27 49 -56 51 -64z
m-237 79 c0 -13 -31 -21 -52 -14 -18 5 -18 7 -2 19 18 12 54 9 54 -5z m603
-14 c6 -15 -1 -26 -15 -26 -4 0 -8 9 -8 20 0 23 15 27 23 6z m-565 -5 c27 -17
65 -121 44 -121 -5 0 -9 15 -10 32 0 18 -6 34 -11 36 -6 2 -11 10 -11 17 0 25
-20 27 -56 6 -19 -12 -44 -21 -55 -21 -10 0 -19 -5 -19 -11 0 -5 5 -7 10 -4 6
3 10 1 10 -4 0 -6 -5 -11 -11 -11 -8 0 -8 -5 1 -15 8 -10 9 -15 2 -15 -17 0
-32 34 -25 58 5 22 14 27 75 38 21 3 35 10 32 15 -7 11 7 11 24 0z m220 -26
c-3 -3 -9 2 -12 12 -6 14 -5 15 5 6 7 -7 10 -15 7 -18z m262 15 c0 -5 -7 -10
-16 -10 -8 0 -12 5 -9 10 3 6 10 10 16 10 5 0 9 -4 9 -10z m220 0 c0 -5 -7 -7
-15 -4 -9 4 -15 0 -15 -9 0 -18 16 -31 23 -20 2 5 2 3 1 -4 -2 -7 1 -15 6 -18
13 -8 13 -52 0 -60 -5 -3 -10 -12 -10 -18 0 -7 4 -6 10 3 9 13 11 13 19 0 7
-10 6 -17 -2 -22 -7 -4 -8 -8 -4 -8 5 0 5 -5 1 -11 -4 -8 -9 -8 -17 0 -13 13
-30 15 -23 2 3 -5 -6 -8 -19 -8 -16 0 -25 5 -26 16 0 11 -2 12 -6 3 -4 -10 -8
-10 -21 0 -10 8 -13 9 -9 1 4 -6 2 -15 -4 -19 -7 -4 -9 -3 -5 4 3 5 0 12 -6
15 -16 6 2 13 55 22 l39 6 -6 70 c-6 65 -5 69 14 69 11 0 20 -4 20 -10z m500
-31 c0 -5 -4 -9 -10 -9 -5 0 -10 7 -10 16 0 8 5 12 10 9 6 -3 10 -10 10 -16z
m-620 -61 c0 -32 -3 -38 -20 -38 -16 0 -19 4 -12 18 5 9 7 23 5 30 -3 6 0 12
6 12 6 0 11 5 11 11 0 5 -4 8 -9 4 -6 -3 -9 4 -8 15 3 38 27 -9 27 -52z m580
11 c0 -6 -4 -7 -10 -4 -5 3 -10 11 -10 16 0 6 5 7 10 4 6 -3 10 -11 10 -16z
m407 6 c0 -8 -4 -12 -9 -9 -4 3 -8 9 -8 15 0 5 4 9 8 9 5 0 9 -7 9 -15z m-582
-5 c-27 -12 -43 -12 -25 0 8 5 22 9 30 9 10 0 8 -3 -5 -9z m-75 -40 c-11 -20
-80 -25 -80 -5 0 19 12 26 26 14 10 -8 18 -7 30 5 20 21 37 11 24 -14z m610
15 c-7 -8 -17 -15 -23 -15 -6 0 -2 7 9 15 25 19 30 19 14 0z m76 -32 c-10 -10
-34 11 -29 24 5 14 8 13 20 -2 7 -10 11 -20 9 -22z m-843 -3 c14 -23 15 -28 4
-24 -16 6 -41 54 -29 54 4 0 16 -13 25 -30z m23 13 c8 -11 13 -13 14 -5 0 15
30 16 30 0 0 -6 -3 -8 -7 -5 -3 4 -11 0 -17 -8 -9 -12 -14 -10 -29 11 -10 13
-15 24 -11 24 4 0 13 -8 20 -17z m-726 -3 c0 -5 -8 -10 -17 -10 -15 0 -16 2
-3 10 19 12 20 12 20 0z m1040 -6 c0 -2 -11 -4 -25 -4 -14 0 -25 4 -25 9 0 4
11 6 25 3 14 -2 25 -6 25 -8z m-1010 -19 c0 -7 -8 -18 -17 -24 -16 -9 -16 -11
7 -20 23 -9 23 -10 4 -10 -26 -1 -38 23 -24 50 13 22 30 25 30 4z m1139 -42
c-6 -7 -17 -13 -23 -13 -6 0 -5 4 3 9 8 5 11 17 7 32 -7 23 -6 23 8 5 12 -14
13 -23 5 -33z m-139 23 c0 -2 -7 -6 -15 -10 -8 -3 -15 -1 -15 4 0 6 7 10 15
10 8 0 15 -2 15 -4z m87 -18 c-3 -8 -6 -5 -6 6 -1 11 2 17 5 13 3 -3 4 -12 1
-19z m-30 -40 c-3 -8 -6 -5 -6 6 -1 11 2 17 5 13 3 -3 4 -12 1 -19z m-1179 -3
c-2 -1 -14 -8 -28 -15 l-25 -13 20 20 c11 11 24 18 28 16 5 -3 7 -6 5 -8z
m1049 9 c-3 -3 -12 -4 -19 -1 -8 3 -5 6 6 6 11 1 17 -2 13 -5z m157 -16 c-11
-37 -26 -52 -35 -36 -5 7 -9 18 -9 23 0 6 4 4 8 -3 6 -9 12 -5 22 13 17 31 24
32 14 3z m186 18 c0 -2 -7 -7 -16 -10 -8 -3 -12 -2 -9 4 6 10 25 14 25 6z
m-1365 -16 c3 -5 1 -10 -4 -10 -6 0 -11 5 -11 10 0 6 2 10 4 10 3 0 8 -4 11
-10z m75 -6 c0 -6 -65 -34 -77 -34 -9 1 58 39 70 40 4 0 7 -2 7 -6z m10 -18
c0 -2 -8 -10 -17 -17 -16 -13 -17 -12 -4 4 13 16 21 21 21 13z m-260 -16 c0
-5 -8 -10 -17 -10 -15 0 -16 2 -3 10 19 12 20 12 20 0z m1310 -20 c0 -5 -5
-10 -11 -10 -5 0 -7 5 -4 10 3 6 8 10 11 10 2 0 4 -4 4 -10z m-1140 -19 c0
-10 -25 -21 -48 -21 -12 0 -9 4 8 14 31 17 40 19 40 7z m1030 -86 c-17 -25
-33 -45 -36 -45 -3 0 -2 5 2 11 4 7 7 20 8 31 1 15 28 39 54 47 2 1 -11 -19
-28 -44z m-1019 8 c55 -9 95 -19 89 -23 -6 -4 -37 -1 -68 6 -31 8 -75 14 -97
15 -22 0 -49 4 -60 9 -34 15 25 12 136 -7z m-91 -33 c11 -7 5 -8 -20 -4 -43 8
-51 14 -19 14 13 0 31 -5 39 -10z m187 -24 c7 -1 16 -5 19 -9 12 -12 -12 -8
-47 9 -23 10 -26 13 -9 9 14 -3 30 -7 37 -9z m-44 -22 c48 -16 65 -36 25 -28
-103 19 -127 25 -153 33 -27 8 -24 9 26 10 30 1 76 -6 102 -15z m428 -15 c-5
-13 -10 -19 -10 -12 -1 15 10 45 15 40 3 -2 0 -15 -5 -28z m496 9 c-3 -8 -6
-5 -6 6 -1 11 2 17 5 13 3 -3 4 -12 1 -19z m-1047 -14 c0 -2 -11 -4 -25 -4
-14 0 -25 4 -25 9 0 4 11 6 25 3 14 -2 25 -6 25 -8z m894 -20 c10 -25 -1 -29
-14 -5 -6 12 -7 21 -1 21 5 0 12 -7 15 -16z m-728 -28 c24 -16 25 -20 10 -28
-9 -5 -21 -6 -27 -3 -21 14 -159 42 -159 33 0 -5 -5 -6 -11 -2 -24 14 18 25
88 21 47 -2 81 -10 99 -21z m-219 8 c-3 -3 -12 -4 -19 -1 -8 3 -5 6 6 6 11 1
17 -2 13 -5z m1013 -41 c0 -13 -3 -13 -15 -3 -8 7 -15 19 -15 27 0 13 3 13 15
3 8 -7 15 -19 15 -27z m-439 -16 c-13 -13 -15 1 -4 30 7 17 8 17 11 -1 2 -10
-1 -23 -7 -29z m344 -25 c-8 -8 -25 17 -25 38 0 9 6 6 16 -8 9 -13 13 -26 9
-30z m58 42 c3 -3 -3 -27 -14 -52 -11 -25 -21 -67 -22 -92 -2 -39 -4 -44 -14
-31 -14 18 -17 41 -5 41 5 0 7 18 6 40 -1 22 2 37 7 34 5 -3 14 7 19 22 8 21
8 29 -2 36 -10 6 -9 8 3 8 9 0 18 -3 22 -6z m127 -9 c7 -9 8 -15 2 -15 -5 0
-12 7 -16 15 -3 8 -4 15 -2 15 2 0 9 -7 16 -15z m-1093 -1 c-3 -3 -12 -4 -19
-1 -8 3 -5 6 6 6 11 1 17 -2 13 -5z m713 -10 c0 -8 -9 -14 -20 -14 -11 0 -20
6 -20 13 0 7 9 13 20 14 11 1 20 -4 20 -13z m-581 -9 c79 -21 87 -35 19 -35
-31 0 -59 4 -62 9 -3 4 7 6 22 3 15 -3 23 -1 19 4 -5 5 -34 14 -65 20 -48 10
-51 12 -22 13 19 0 59 -6 89 -14z m-109 -20 l45 -14 -52 2 c-35 1 -53 6 -53
15 0 15 5 15 60 -3z m536 -30 c-3 -8 -10 -15 -15 -15 -5 0 -4 11 2 25 12 25
23 16 13 -10z m-341 -5 c4 -6 -5 -10 -19 -10 -14 0 -26 5 -26 10 0 6 9 10 19
10 11 0 23 -4 26 -10z m-115 -9 l-65 -6 80 -9 c87 -9 107 -16 111 -39 2 -12
-4 -13 -43 -1 -24 7 -57 11 -73 7 -18 -3 -30 -1 -30 5 0 5 10 8 23 6 20 -4 20
-4 -3 6 -13 6 -48 12 -77 12 -29 1 -50 4 -48 6 10 10 75 20 130 19 l60 0 -65
-6z m570 -13 c0 -15 -30 -48 -44 -48 -6 0 -4 4 4 10 12 8 12 10 -3 16 -9 3
-17 11 -17 16 0 6 7 8 15 5 8 -4 17 -2 20 3 9 14 25 12 25 -2z m-168 -60 c-9
-9 -12 -7 -12 12 0 19 3 21 12 12 9 -9 9 -15 0 -24z m-417 12 c13 -6 15 -9 5
-9 -8 0 -22 4 -30 9 -18 12 -2 12 25 0z m458 -17 c-3 -10 -10 -23 -15 -30 -5
-6 -6 -24 -2 -39 6 -24 5 -26 -8 -13 -14 12 -14 18 1 56 8 24 19 43 23 43 4 0
5 -8 1 -17z m-393 -6 c49 -18 83 -38 76 -44 -3 -4 -15 2 -26 12 -11 10 -23 16
-26 12 -8 -8 -64 13 -64 24 0 11 -2 11 40 -4z m-83 -3 c-3 -3 -12 -4 -19 -1
-8 3 -5 6 6 6 11 1 17 -2 13 -5z m84 -78 c8 4 9 3 5 -4 -4 -7 -2 -12 3 -12 6
0 11 7 11 16 0 8 5 12 11 9 6 -4 8 -14 4 -22 -4 -12 -2 -13 7 -5 10 8 13 3 13
-21 0 -18 -5 -41 -11 -51 -6 -10 -9 -27 -7 -37 3 -11 1 -19 -4 -19 -6 0 -8
-11 -6 -24 4 -18 0 -25 -14 -28 -21 -5 -76 29 -68 43 4 5 -2 9 -12 9 -14 0
-19 7 -18 28 0 16 -5 26 -12 25 -22 -5 -14 29 7 34 25 7 25 12 3 29 -16 12
-16 12 5 7 29 -7 56 -46 48 -71 -4 -12 -1 -19 6 -19 7 0 14 11 15 25 0 14 6
28 12 32 7 3 9 14 5 23 -7 20 -24 23 -25 5 0 -7 -4 -4 -9 7 -13 30 -12 39 5
25 8 -6 20 -8 26 -4z m-121 -6 c0 -5 -6 -10 -14 -10 -22 0 -46 -29 -46 -55 0
-13 -5 -27 -10 -30 -6 -4 -8 3 -6 17 3 13 5 36 5 51 1 16 5 26 11 22 5 -3 18
-1 27 4 23 13 33 14 33 1z m480 -55 c-8 -34 -56 -125 -66 -125 -3 0 -2 5 2 11
3 6 0 16 -7 21 -11 8 -10 9 3 5 20 -7 30 16 22 49 -4 15 -2 24 6 24 7 0 10 -7
6 -17 -5 -15 -4 -15 9 1 8 11 15 27 15 36 0 14 8 30 16 30 1 0 -2 -16 -6 -35z
m640 -36 c0 -5 -6 -9 -14 -9 -7 0 -19 -7 -26 -15 -7 -8 -17 -15 -22 -15 -5 0
1 13 14 29 21 26 48 31 48 10z m-158 -31 c-7 -7 -12 -8 -12 -2 0 6 3 14 7 17
3 4 9 5 12 2 2 -3 -1 -11 -7 -17z m-942 8 c0 -3 -4 -8 -10 -11 -5 -3 -10 -1
-10 4 0 6 5 11 10 11 6 0 10 -2 10 -4z m-60 -10 c0 -3 -4 -8 -10 -11 -5 -3
-10 -1 -10 4 0 6 5 11 10 11 6 0 10 -2 10 -4z m641 -23 c13 -15 12 -15 -8 -4
-24 12 -29 21 -14 21 5 0 15 -7 22 -17z m-744 -9 c-3 -3 -12 -4 -19 -1 -8 3
-5 6 6 6 11 1 17 -2 13 -5z m88 -3 l40 -9 -35 0 c-19 0 -46 4 -60 8 -20 6 -21
8 -5 8 11 1 38 -3 60 -7z m1010 -1 c3 -6 -1 -7 -9 -4 -18 7 -21 14 -7 14 6 0
13 -4 16 -10z m-44 -20 c19 -11 27 -50 9 -50 -5 0 -7 7 -4 15 4 8 1 15 -5 15
-6 0 -11 -4 -11 -10 0 -5 -16 -12 -36 -16 -29 -5 -33 -9 -20 -16 9 -5 20 -7
24 -4 4 2 8 -4 9 -15 2 -17 0 -17 -21 -4 -12 8 -26 12 -29 8 -4 -3 -7 6 -7 21
0 24 3 27 21 23 14 -4 19 -2 16 8 -6 13 11 35 26 35 4 0 17 -5 28 -10z m-986
-20 c-3 -5 -16 -10 -28 -9 -20 1 -20 2 3 9 14 4 26 8 28 9 2 1 0 -3 -3 -9z
m40 0 c-3 -5 -12 -10 -18 -10 -7 0 -6 4 3 10 19 12 23 12 15 0z m571 -112 c3
-5 -6 -6 -23 -2 -40 9 -50 22 -13 16 17 -2 33 -8 36 -14z m348 -71 c3 -16 1
-25 -5 -22 -5 4 -9 18 -9 32 0 32 7 27 14 -10z m37 -25 c-7 -2 -8 -8 -3 -15 5
-7 12 -25 14 -40 5 -26 5 -27 -12 -10 -10 10 -16 21 -13 26 2 4 -1 7 -6 7 -16
0 -13 13 7 38 10 13 19 17 21 10 2 -7 -1 -14 -8 -16z m-75 0 c6 -4 21 -26 32
-50 l21 -43 -22 7 c-12 3 -26 12 -32 18 -5 7 -15 11 -22 9 -6 -2 -14 1 -18 6
-3 7 2 11 14 11 14 0 19 5 14 16 -3 8 -12 13 -21 9 -12 -4 -13 -3 -2 10 14 17
20 18 36 7z m-306 -12 c0 -5 -7 -7 -15 -4 -8 4 -15 8 -15 10 0 2 7 4 15 4 8 0
15 -4 15 -10z m99 -36 c10 -9 -55 -3 -69 6 -10 6 -2 7 25 3 22 -3 42 -7 44 -9z
m-853 -13 c-6 -9 -46 -22 -46 -15 0 3 10 9 23 14 29 11 29 11 23 1z m1194 -11
c0 -5 -2 -10 -4 -10 -3 0 -8 5 -11 10 -3 6 -1 10 4 10 6 0 11 -4 11 -10z
m-130 -21 c13 -7 13 -8 0 -8 -8 0 -26 6 -40 15 l-25 15 25 -7 c14 -3 32 -10
40 -15z m-845 -9 c3 -5 1 -10 -4 -10 -6 0 -11 5 -11 10 0 6 2 10 4 10 3 0 8
-4 11 -10z m575 -90 c0 -5 -4 -10 -9 -10 -5 0 -18 -3 -28 -6 -16 -5 -16 -4 1
10 23 18 36 20 36 6z m40 -10 c0 -11 -2 -20 -4 -20 -2 0 -6 9 -9 20 -3 11 -1
20 4 20 5 0 9 -9 9 -20z m-240 0 c0 -5 -5 -10 -11 -10 -5 0 -7 5 -4 10 3 6 8
10 11 10 2 0 4 -4 4 -10z m322 -13 c-4 -10 18 -30 47 -43 21 -9 22 -11 8 -17
-9 -3 -22 -1 -29 6 -31 28 -78 57 -78 47 0 -5 -4 -10 -10 -10 -5 0 -7 6 -4 14
6 15 71 18 66 3z m-102 -7 c0 -5 -2 -10 -4 -10 -3 0 -8 5 -11 10 -3 6 -1 10 4
10 6 0 11 -4 11 -10z m-35 -21 c-5 10 -4 12 3 7 7 -4 21 -9 33 -11 45 -9 69
-55 29 -55 -11 0 -20 4 -20 9 0 10 -25 9 -36 -2 -8 -7 -55 22 -50 32 2 3 -7 6
-20 6 -13 0 -24 -3 -24 -7 0 -5 -8 -8 -17 -8 -14 0 -13 3 5 16 12 8 25 13 30
11 4 -3 16 -1 27 3 11 4 26 3 34 -4 12 -9 13 -8 6 3z m-65 -54 c-7 -9 -15 -13
-19 -10 -3 3 1 10 9 15 21 14 24 12 10 -5z m203 -25 c-3 -11 -7 -20 -9 -20 -2
0 -4 9 -4 20 0 11 4 20 9 20 5 0 7 -9 4 -20z m-83 0 c0 -5 -5 -10 -11 -10 -5
0 -7 5 -4 10 3 6 8 10 11 10 2 0 4 -4 4 -10z m-150 -75 c-7 -8 -17 -12 -22 -9
-5 3 -1 12 9 20 15 11 15 14 3 15 -8 1 -19 1 -23 0 -5 -1 -5 4 -1 10 5 9 2 10
-10 6 -10 -4 -15 -3 -11 3 4 6 17 8 31 6 14 -3 25 0 25 7 1 7 4 -1 6 -16 3
-16 -1 -35 -7 -42z m88 52 c8 -10 6 -13 -11 -14 -12 0 -16 1 -9 4 6 3 10 9 6
14 -8 14 2 11 14 -4z m-41 -3 c-3 -3 -12 -4 -19 -1 -8 3 -5 6 6 6 11 1 17 -2
13 -5z m3 -28 c0 -16 -18 -31 -27 -22 -8 8 5 36 17 36 5 0 10 -6 10 -14z m30
-6 c0 -5 -5 -10 -11 -10 -5 0 -7 5 -4 10 3 6 8 10 11 10 2 0 4 -4 4 -10z m90
6 c0 -2 -7 -7 -16 -10 -8 -3 -12 -2 -9 4 6 10 25 14 25 6z m-100 -36 c-8 -5
-19 -10 -25 -10 -5 0 -3 5 5 10 8 5 20 10 25 10 6 0 3 -5 -5 -10z m-23 -42
c-3 -8 -6 -5 -6 6 -1 11 2 17 5 13 3 -3 4 -12 1 -19z m-97 -8 c0 -5 -5 -10
-11 -10 -5 0 -7 5 -4 10 3 6 8 10 11 10 2 0 4 -4 4 -10z m-47 -14 c12 -9 14
-16 8 -21 -6 -3 -14 1 -17 10 -5 13 -9 14 -15 4 -4 -8 -11 -10 -14 -7 -8 7 2
28 13 28 4 0 15 -7 25 -14z m-8 -37 c-10 -15 7 -10 27 8 24 22 23 12 -3 -18
-17 -19 -22 -21 -29 -9 -13 20 -13 43 0 35 6 -4 8 -11 5 -16z m175 5 c0 -2 -9
-4 -20 -4 -11 0 -20 4 -20 9 0 5 9 7 20 4 11 -3 20 -7 20 -9z m-233 -80 c-3
-3 -12 -4 -19 -1 -8 3 -5 6 6 6 11 1 17 -2 13 -5z m3 -33 c0 -6 -4 -13 -10
-16 -5 -3 -10 1 -10 9 0 9 5 16 10 16 6 0 10 -4 10 -9z m190 -51 c0 -5 -15 -9
-32 -9 l-33 1 30 8 c17 4 31 8 33 9 1 0 2 -3 2 -9z m-141 -73 c8 -10 7 -14 -4
-14 -8 0 -15 6 -15 14 0 7 2 13 4 13 2 0 9 -6 15 -13z m125 -119 c-3 -5 -12
-4 -20 3 -19 16 -18 18 6 12 11 -3 17 -9 14 -15z m70 -8 c-7 -7 -19 -7 -35 -1
-23 9 -22 10 11 10 23 1 31 -2 24 -9z m-167 -46 c-3 -3 -12 -4 -19 -1 -8 3 -5
6 6 6 11 1 17 -2 13 -5z m-54 -11 c-7 -2 -19 -2 -25 0 -7 3 -2 5 12 5 14 0 19
-2 13 -5z m22 -58 l30 -14 -35 6 c-19 3 -42 9 -50 14 -26 15 22 10 55 -6z m73
-101 c32 -9 28 -28 -5 -19 -32 7 -55 25 -32 25 7 0 24 -3 37 -6z m41 -100 c3
-3 -1 -10 -7 -16 -8 -8 -12 -9 -12 -1 0 6 -9 9 -20 6 -19 -5 -27 7 -13 20 6 7
42 0 52 -9z m-29 -39 c5 3 7 0 4 -8 -3 -8 8 -21 30 -32 21 -12 32 -24 29 -33
-7 -17 -61 -9 -115 19 -47 24 -52 24 -45 -1 3 -11 1 -18 -4 -14 -5 3 -9 14 -9
25 0 25 26 25 68 -1 18 -11 40 -20 50 -20 11 1 8 6 -12 16 -23 13 -26 18 -15
26 10 7 8 8 -7 4 -13 -4 -29 1 -44 14 -13 11 -28 20 -34 20 -6 0 -5 4 3 9 10
6 28 3 53 -10 21 -11 43 -17 48 -14z m54 -20 c5 0 11 -6 13 -12 4 -10 -2 -11
-18 -5 -13 5 -25 15 -27 22 -3 9 0 10 9 4 8 -5 18 -9 23 -9z m-91 -74 c4 -1
14 -1 22 -1 8 0 15 -7 15 -15 0 -19 -9 -19 -34 0 -10 8 -22 12 -26 10 -5 -3
-11 2 -14 10 -4 12 -2 13 12 6 9 -5 20 -9 25 -10z m160 12 c-7 -2 -21 -2 -30
0 -10 3 -4 5 12 5 17 0 24 -2 18 -5z m267 -18 c-14 -17 -30 -20 -30 -6 0 5 8
12 18 14 9 3 19 5 21 6 2 0 -2 -6 -9 -14z m-350 -35 c0 -5 -7 -7 -15 -4 -8 4
-12 10 -9 15 6 11 24 2 24 -11z m-106 -16 c3 -8 2 -12 -4 -9 -6 3 -10 10 -10
16 0 14 7 11 14 -7z m56 -4 c6 -11 8 -20 6 -20 -3 0 -10 9 -16 20 -6 11 -8 20
-6 20 3 0 10 -9 16 -20z m120 -16 c0 -2 -12 -4 -26 -4 -14 0 -23 4 -20 9 6 8
46 4 46 -5z m-130 -34 c-9 -5 -9 -9 -1 -14 6 -4 15 -4 21 -1 6 3 7 -1 4 -9 -5
-12 1 -16 22 -16 32 0 28 -9 -7 -15 -18 -3 -28 2 -40 23 -16 29 -15 57 3 46 7
-4 6 -9 -2 -14z m320 -2 c0 -6 -3 -8 -7 -5 -3 4 -12 2 -20 -4 -13 -11 -19 2
-6 14 11 11 33 8 33 -5z m-93 -25 c-14 -14 -19 -15 -29 -4 -7 8 -8 11 -3 8 6
-3 17 -2 25 4 23 14 26 11 7 -8z m-57 -13 c-8 -5 -17 -7 -19 -4 -3 3 1 9 9 14
8 5 17 7 19 4 3 -3 -1 -9 -9 -14z m-175 1 c9 -16 -9 -20 -23 -5 -10 12 -10 14
2 14 8 0 17 -4 21 -9z m145 -1 c0 -12 -8 -12 -35 0 -18 8 -17 9 8 9 15 1 27
-3 27 -9z m-67 -49 c3 -14 1 -18 -9 -14 -8 3 -14 14 -14 25 0 23 16 16 23 -11z
m95 12 c-10 -2 -26 -2 -35 0 -10 3 -2 5 17 5 19 0 27 -2 18 -5z m-175 -30 c-7
-2 -19 -2 -25 0 -7 3 -2 5 12 5 14 0 19 -2 13 -5z m247 -1 c0 -5 -6 -9 -12
-10 -7 0 -25 -3 -40 -5 -16 -2 -28 -1 -28 4 0 4 15 10 33 12 17 2 35 5 40 5 4
1 7 -2 7 -6z m50 -106 c-7 -7 -13 -7 -20 0 -6 6 -3 10 10 10 13 0 16 -4 10
-10z m-156 -64 c2 -4 0 -14 -6 -22 -8 -12 -9 -12 -4 2 3 10 -1 18 -12 21 -16
4 -16 5 0 6 9 0 19 -3 22 -7z m96 4 c0 -9 -30 -14 -35 -6 -4 6 3 10 14 10 12
0 21 -2 21 -4z m-19 -276 c28 -16 23 -32 -6 -18 -14 6 -25 15 -25 20 0 11 7
10 31 -2z m-49 -89 c3 9 6 10 11 2 4 -6 -1 -19 -10 -29 -17 -17 -18 -17 -21 4
-2 12 -8 22 -13 22 -5 0 -9 5 -9 12 0 6 8 4 19 -6 14 -13 20 -14 23 -5z m-97
-101 c3 -5 2 -10 -4 -10 -5 0 -13 5 -16 10 -3 6 -2 10 4 10 5 0 13 -4 16 -10z"/>
<path d="M3885 4349 c-4 -6 -5 -12 -2 -15 2 -3 7 2 10 11 7 17 1 20 -8 4z"/>
<path d="M3663 4213 c15 -2 37 -2 50 0 12 2 0 4 -28 4 -27 0 -38 -2 -22 -4z"/>
<path d="M3452 4378 c5 -15 28 -23 28 -10 0 5 -7 13 -16 16 -10 4 -14 1 -12
-6z"/>
<path d="M2940 3550 c8 -5 20 -10 25 -10 6 0 3 5 -5 10 -8 5 -19 10 -25 10 -5
0 -3 -5 5 -10z"/>
<path d="M3395 3570 c-3 -5 -1 -10 4 -10 6 0 11 5 11 10 0 6 -2 10 -4 10 -3 0
-8 -4 -11 -10z"/>
<path d="M2908 3348 c14 -14 4 -37 -27 -65 -14 -12 -20 -23 -13 -23 6 0 12 4
12 8 0 5 12 14 26 20 14 7 22 17 19 22 -4 6 -2 17 4 24 9 11 6 15 -10 19 -16
4 -19 3 -11 -5z"/>
<path d="M3652 3229 c2 -6 8 -10 13 -10 5 0 11 4 13 10 2 6 -4 11 -13 11 -9 0
-15 -5 -13 -11z"/>
<path d="M3340 2740 c0 -5 5 -10 10 -10 6 0 10 5 10 10 0 6 -4 10 -10 10 -5 0
-10 -4 -10 -10z"/>
<path d="M2841 6031 c-23 -19 -30 -30 -21 -33 11 -3 8 -15 -12 -51 -15 -26
-24 -47 -20 -47 16 1 29 17 36 42 3 16 18 34 34 42 22 11 29 22 29 45 0 17 -3
31 -6 31 -3 0 -21 -13 -40 -29z"/>
<path d="M4136 5972 c-3 -9 -1 -37 4 -62 l9 -45 -3 53 c-3 54 1 61 23 40 11
-11 11 -9 2 10 -14 26 -28 28 -35 4z"/>
<path d="M4227 5973 c-6 -12 -1 -62 6 -70 4 -3 7 12 7 35 0 40 -4 51 -13 35z"/>
<path d="M4107 5854 c-4 -4 -4 -18 -1 -30 4 -14 2 -24 -4 -24 -6 0 -12 11 -14
24 -2 17 -7 22 -21 17 -16 -6 -16 -8 -1 -30 14 -20 23 -22 57 -18 42 6 59 21
50 44 -4 11 -9 10 -25 -4 -19 -17 -20 -17 -17 1 4 19 -12 32 -24 20z"/>
<path d="M4130 5335 c5 -7 7 -15 3 -18 -3 -4 -1 -7 5 -7 7 0 12 8 12 18 0 10
-7 19 -15 19 -10 0 -12 -4 -5 -12z"/>
<path d="M4143 5230 c0 -25 2 -35 4 -22 2 12 2 32 0 45 -2 12 -4 2 -4 -23z"/>
<path d="M4286 5105 c8 -37 12 -41 24 -29 5 5 1 19 -11 34 l-20 25 7 -30z"/>
<path d="M4230 4980 c-12 -16 -15 -27 -8 -25 17 8 52 55 39 55 -5 0 -19 -13
-31 -30z"/>
<path d="M4270 4964 c-23 -21 -44 -33 -51 -28 -9 5 -10 -1 -6 -22 18 -80 18
-80 2 -46 -19 40 -26 41 -15 2 5 -16 5 -30 0 -30 -4 0 -11 11 -14 25 -4 14
-11 25 -16 25 -6 0 -4 -13 5 -30 8 -16 15 -35 15 -42 -1 -7 -9 2 -19 21 -18
33 -18 33 -26 10 -4 -13 -6 -30 -5 -37 0 -8 -3 -19 -9 -26 -7 -9 -1 -17 24
-30 22 -12 36 -28 40 -47 9 -38 20 -37 36 4 7 17 21 44 31 59 11 16 16 32 13
38 -3 5 -1 10 4 10 6 0 11 9 11 21 0 11 5 17 10 14 6 -3 10 0 10 7 0 7 18 26
40 41 22 16 38 33 35 38 -11 16 -23 10 -42 -21 -9 -16 -23 -30 -30 -30 -21 0
-15 14 23 58 19 23 31 42 26 42 -5 0 -30 -25 -55 -55 -40 -49 -57 -59 -57 -33
0 5 19 29 41 53 50 54 35 60 -21 9z m-20 -85 c0 -6 -4 -7 -10 -4 -5 3 -10 11
-10 16 0 6 5 7 10 4 6 -3 10 -11 10 -16z m-76 -99 c-8 -7 -24 24 -23 45 0 15
4 13 14 -10 7 -16 11 -32 9 -35z"/>
<path d="M4366 4879 c-35 -37 -88 -115 -115 -166 -10 -19 -9 -23 4 -23 8 0 28
26 45 60 17 34 53 84 80 112 28 29 50 53 50 55 0 2 -6 3 -14 3 -7 0 -30 -18
-50 -41z"/>
<path d="M4392 4842 c-22 -26 -56 -72 -75 -104 -29 -44 -34 -58 -23 -67 9 -8
17 -2 30 27 31 66 75 127 106 147 33 22 37 30 16 38 -10 4 -30 -11 -54 -41z"/>
<path d="M4035 4825 c-9 -26 -15 -48 -13 -51 3 -2 13 16 23 41 9 26 15 48 13
51 -3 2 -13 -16 -23 -41z"/>
<path d="M4510 4795 c-19 -19 -30 -35 -24 -35 5 0 22 16 37 35 36 45 30 45
-13 0z"/>
<path d="M3817 4761 c-3 -14 -1 -18 9 -14 16 6 18 19 5 27 -5 3 -11 -3 -14
-13z"/>
<path d="M4470 4670 c-9 -6 -10 -10 -3 -10 6 0 15 5 18 10 8 12 4 12 -15 0z"/>
<path d="M4400 4636 c0 -2 7 -7 16 -10 8 -3 12 -2 9 4 -6 10 -25 14 -25 6z"/>
<path d="M4222 4590 c-6 -11 -12 -27 -12 -36 0 -8 -5 -25 -12 -37 -7 -12 -11
-32 -9 -44 1 -11 -3 -24 -9 -28 -9 -5 -10 -1 -5 16 5 19 4 21 -4 9 -15 -22
-13 -50 4 -50 8 0 17 14 21 38 4 20 13 48 21 62 9 16 12 18 8 5 -4 -11 -9 -40
-12 -65 -6 -62 14 -41 27 28 5 29 15 62 21 73 15 28 1 39 -17 14 -15 -19 -15
-19 -9 8 8 32 4 34 -13 7z"/>
<path d="M4437 4603 c-4 -3 -7 -11 -7 -17 0 -6 5 -5 12 2 6 6 9 14 7 17 -3 3
-9 2 -12 -2z"/>
<path d="M4484 4563 c-21 -44 -12 -44 26 -1 8 10 29 24 45 33 l30 15 -40 -2
c-37 -1 -42 -5 -61 -45z"/>
<path d="M4550 4581 c0 -5 7 -12 16 -15 24 -9 28 -7 14 9 -14 17 -30 20 -30 6z"/>
<path d="M4395 4550 c3 -5 8 -10 11 -10 2 0 4 5 4 10 0 6 -5 10 -11 10 -5 0
-7 -4 -4 -10z"/>
<path d="M4692 4419 c-10 -4 -24 -14 -31 -23 -10 -12 -16 -14 -21 -5 -6 8 -9
8 -14 0 -4 -6 -2 -11 4 -11 6 0 8 -4 5 -10 -10 -16 12 -12 29 5 8 8 23 15 33
15 11 0 23 4 29 10 5 5 22 11 37 12 15 1 27 6 27 9 0 9 -73 7 -98 -2z"/>
<path d="M4370 4398 c0 -5 17 -9 38 -9 20 -1 47 -3 60 -4 12 -1 25 1 27 5 3 5
-24 10 -60 12 -36 1 -65 0 -65 -4z"/>
<path d="M4750 4266 c0 -2 8 -10 18 -17 15 -13 16 -12 3 4 -13 16 -21 21 -21
13z"/>
<path d="M4810 4210 c8 -5 20 -10 25 -10 6 0 3 5 -5 10 -8 5 -19 10 -25 10 -5
0 -3 -5 5 -10z"/>
<path d="M4738 4193 c7 -3 16 -2 19 1 4 3 -2 6 -13 5 -11 0 -14 -3 -6 -6z"/>
<path d="M4696 4173 c-6 -14 -5 -15 5 -6 7 7 10 15 7 18 -3 3 -9 -2 -12 -12z"/>
<path d="M4500 4162 c0 -12 19 -26 26 -19 2 2 -2 10 -11 17 -9 8 -15 8 -15 2z"/>
<path d="M4714 4101 c4 -6 16 -16 28 -22 15 -8 18 -8 14 0 -4 6 -16 16 -28 22
-15 8 -18 8 -14 0z"/>
<path d="M4328 4073 c7 -3 16 -2 19 1 4 3 -2 6 -13 5 -11 0 -14 -3 -6 -6z"/>
<path d="M4380 4070 c8 -5 24 -10 34 -10 26 0 18 6 -19 14 -22 5 -26 4 -15 -4z"/>
<path d="M4369 3881 c14 -27 27 -48 29 -46 5 5 -36 83 -47 89 -5 3 3 -16 18
-43z"/>
<path d="M4411 3850 c0 -8 4 -24 9 -35 5 -13 9 -14 9 -5 0 8 -4 24 -9 35 -5
13 -9 14 -9 5z"/>
<path d="M4426 3354 c-4 -9 -4 -19 -1 -22 2 -3 7 3 11 12 4 9 4 19 1 22 -2 3
-7 -3 -11 -12z"/>
<path d="M4065 3320 c-3 -5 -1 -10 4 -10 15 0 14 -18 -1 -23 -7 -2 -5 -3 5 -1
10 1 23 -8 32 -24 8 -15 14 -22 15 -15 0 12 -39 83 -45 83 -2 0 -7 -4 -10 -10z"/>
<path d="M4070 3270 c-13 -8 -12 -10 3 -10 9 0 17 5 17 10 0 12 -1 12 -20 0z"/>
<path d="M3835 3180 c-8 -13 5 -13 25 0 13 8 13 10 -2 10 -9 0 -20 -4 -23 -10z"/>
<path d="M2778 3168 c10 -13 10 -17 0 -21 -7 -2 -1 -4 14 -3 29 1 28 10 -5 28
-19 10 -20 9 -9 -4z"/>
<path d="M3740 3156 c0 -2 8 -10 18 -17 15 -13 16 -12 3 4 -13 16 -21 21 -21
13z"/>
<path d="M2847 3120 c31 -37 44 -67 37 -84 -3 -9 -1 -16 4 -16 6 0 14 10 17
21 6 17 -2 31 -36 63 -24 22 -34 30 -22 16z"/>
<path d="M3090 3130 c0 -5 5 -10 10 -10 6 0 10 5 10 10 0 6 -4 10 -10 10 -5 0
-10 -4 -10 -10z"/>
<path d="M2895 3100 c10 -11 20 -20 23 -20 3 0 -3 9 -13 20 -10 11 -20 20 -23
20 -3 0 3 -9 13 -20z"/>
<path d="M4060 3090 c-8 -5 -10 -10 -5 -10 6 0 17 5 25 10 8 5 11 10 5 10 -5
0 -17 -5 -25 -10z"/>
<path d="M3970 3068 c0 -14 18 -17 28 -5 8 10 6 13 -9 13 -10 0 -19 -4 -19 -8z"/>
<path d="M4070 3055 c-7 -8 -18 -15 -25 -15 -14 0 -29 -29 -20 -38 3 -3 5 1 5
8 0 7 2 11 5 8 3 -2 -4 -40 -15 -84 -12 -43 -21 -105 -22 -136 -1 -32 -6 -58
-11 -58 -5 0 -4 -6 2 -14 6 -8 11 -18 10 -22 -1 -5 -1 -21 0 -36 1 -25 5 -28
36 -28 31 0 35 3 35 26 0 14 4 23 9 20 12 -8 132 18 156 33 17 10 14 11 -20 5
-22 -4 -50 -7 -62 -8 -12 -1 -25 -4 -29 -8 -4 -5 -18 -8 -31 -8 -20 0 -23 5
-23 38 0 20 -2 92 -4 158 l-5 122 34 18 c19 10 32 20 29 23 -11 12 -43 9 -54
-4z"/>
<path d="M3835 3010 c-3 -5 -1 -10 4 -10 6 0 11 5 11 10 0 6 -2 10 -4 10 -3 0
-8 -4 -11 -10z"/>
<path d="M4321 2967 c2 -1 13 -9 24 -17 19 -14 19 -14 6 3 -7 9 -18 17 -24 17
-6 0 -8 -1 -6 -3z"/>
<path d="M4380 2945 c0 -7 6 -18 14 -22 8 -4 15 -17 18 -28 2 -11 12 -21 23
-23 18 -2 19 -2 2 8 -13 9 -15 15 -7 30 8 15 6 22 -12 34 -28 20 -38 20 -38 1z"/>
<path d="M3600 2658 c-12 -8 -12 -9 2 -4 10 3 22 -2 27 -12 6 -9 11 -12 11 -6
0 20 -24 34 -40 22z"/>
<path d="M4307 2623 c-4 -3 -6 -22 -6 -42 l1 -36 8 40 c8 42 8 49 -3 38z"/>
<path d="M3633 2562 c-12 -8 -12 -36 0 -48 8 -8 37 14 37 29 0 6 -7 2 -16 -9
-15 -18 -15 -18 -11 9 2 15 4 27 3 27 0 0 -6 -4 -13 -8z"/>
<path d="M3565 2550 c-3 -6 1 -7 9 -4 12 4 16 0 16 -16 0 -11 5 -18 10 -15 7
4 7 13 0 26 -12 21 -25 25 -35 9z"/>
<path d="M4302 2510 c0 -19 2 -27 5 -17 2 9 2 25 0 35 -3 9 -5 1 -5 -18z"/>
<path d="M3479 2513 c-8 -10 -9 -14 -2 -10 7 5 13 -2 16 -20 3 -23 4 -21 6 10
1 42 -1 44 -20 20z"/>
<path d="M3692 2480 c0 -14 2 -19 5 -12 2 6 2 18 0 25 -3 6 -5 1 -5 -13z"/>
<path d="M3590 2481 c0 -5 7 -12 16 -15 14 -5 15 -4 4 9 -14 17 -20 19 -20 6z"/>
<path d="M3641 2470 c0 -8 3 -22 9 -30 6 -9 5 -19 -3 -29 -10 -11 -9 -13 2
-10 8 3 21 15 29 27 13 20 13 22 0 17 -9 -4 -19 3 -26 17 -6 14 -11 17 -11 8z"/>
<path d="M3222 2435 c-11 -24 -10 -25 19 -25 26 0 29 2 19 19 -16 31 -26 32
-38 6z"/>
<path d="M3275 2437 c10 -15 20 -25 23 -22 3 3 -5 16 -17 28 l-23 22 17 -28z"/>
<path d="M3369 2432 c7 -5 11 -14 8 -19 -3 -5 -2 -15 3 -23 7 -11 9 -6 7 14
-1 16 -9 31 -17 33 -12 4 -13 3 -1 -5z"/>
<path d="M3338 2406 c-19 -14 -23 -26 -10 -26 4 0 13 9 20 20 14 23 13 24 -10
6z"/>
<path d="M4321 2369 c-1 -19 41 -146 61 -184 10 -18 18 -24 22 -16 4 6 4 11
-1 11 -4 0 -1 4 7 10 9 5 19 5 27 -2 9 -7 13 -7 13 1 0 7 5 9 10 6 6 -3 10 -1
10 6 0 6 -8 9 -20 6 -11 -3 -23 -1 -26 5 -3 5 -12 7 -20 4 -8 -3 -14 -1 -14 4
0 6 5 10 10 10 6 0 10 5 10 10 0 6 -5 9 -12 8 -6 -2 -16 14 -23 35 -6 21 -15
37 -20 35 -6 -2 -15 13 -22 32 -7 19 -12 28 -12 19z"/>
<path d="M3565 2345 c-25 -12 -26 -14 -5 -9 28 7 60 23 45 23 -5 0 -23 -6 -40
-14z"/>
<path d="M3466 2335 c4 -8 10 -15 16 -15 5 0 6 -4 3 -10 -3 -5 -1 -10 4 -10
14 0 13 11 -3 33 -16 21 -27 22 -20 2z"/>
<path d="M3610 2336 c0 -2 8 -10 18 -17 15 -13 16 -12 3 4 -13 16 -21 21 -21
13z"/>
<path d="M3318 2323 c6 -2 18 -2 25 0 6 3 1 5 -13 5 -14 0 -19 -2 -12 -5z"/>
<path d="M3560 2316 c0 -3 15 -15 33 -27 l32 -23 -24 27 c-22 24 -41 35 -41
23z"/>
<path d="M3450 2300 c0 -5 5 -10 11 -10 5 0 7 5 4 10 -3 6 -8 10 -11 10 -2 0
-4 -4 -4 -10z"/>
<path d="M3170 2279 c0 -5 5 -7 10 -4 6 3 10 8 10 11 0 2 -4 4 -10 4 -5 0 -10
-5 -10 -11z"/>
<path d="M3507 2246 c-6 -16 2 -28 14 -20 12 7 11 34 0 34 -5 0 -11 -6 -14
-14z"/>
<path d="M3590 2246 c0 -2 7 -7 16 -10 8 -3 12 -2 9 4 -6 10 -25 14 -25 6z"/>
<path d="M4570 2170 c-19 -13 46 -13 75 0 16 7 11 9 -20 9 -22 0 -47 -4 -55
-9z"/>
<path d="M3435 2160 c-3 -5 -12 -7 -19 -4 -8 3 -17 1 -20 -4 -7 -11 38 -22 51
-13 12 9 15 31 4 31 -6 0 -12 -4 -16 -10z"/>
<path d="M4458 2153 c7 -3 16 -2 19 1 4 3 -2 6 -13 5 -11 0 -14 -3 -6 -6z"/>
<path d="M4401 2145 c0 -5 7 -26 14 -45 9 -23 14 -28 14 -15 0 11 -6 31 -14
45 -8 14 -14 21 -14 15z"/>
<path d="M4518 2143 c6 -2 18 -2 25 0 6 3 1 5 -13 5 -14 0 -19 -2 -12 -5z"/>
<path d="M3370 2120 c0 -5 7 -10 16 -10 8 0 12 5 9 10 -3 6 -10 10 -16 10 -5
0 -9 -4 -9 -10z"/>
<path d="M3426 2108 c3 -5 10 -6 15 -3 13 9 11 12 -6 12 -8 0 -12 -4 -9 -9z"/>
<path d="M4525 2070 c-3 -5 -1 -10 4 -10 6 0 11 5 11 10 0 6 -2 10 -4 10 -3 0
-8 -4 -11 -10z"/>
<path d="M4475 2060 c-19 -8 -19 -9 2 -9 12 -1 25 4 28 9 7 12 -2 12 -30 0z"/>
<path d="M4722 2053 c-6 -3 -10 -8 -7 -13 3 -4 -23 -27 -57 -51 -35 -23 -65
-46 -66 -51 -2 -4 -8 -6 -13 -2 -5 3 -9 -2 -9 -10 0 -10 -25 -23 -72 -38 -84
-26 -109 -43 -78 -53 11 -3 20 -11 20 -16 0 -5 23 -9 52 -9 57 0 55 -10 -9
-30 -28 -8 -40 -17 -36 -26 3 -8 0 -14 -6 -14 -20 0 1 -31 33 -47 37 -19 140
-23 158 -5 9 9 5 12 -22 13 -19 1 -26 3 -15 6 11 2 30 6 41 8 12 3 24 13 27
24 3 15 0 17 -16 13 -14 -3 -18 -1 -13 6 4 8 0 12 -11 12 -10 1 11 15 47 32
36 16 60 32 53 35 -7 2 -21 0 -32 -6 -37 -20 -33 -11 13 27 24 20 45 40 45 45
2 14 -27 7 -33 -8 -3 -8 -10 -15 -15 -15 -6 0 -8 7 -5 15 5 11 2 13 -10 9 -23
-9 -20 9 5 26 11 8 32 31 46 50 23 31 21 30 -23 -11 -54 -51 -94 -76 -94 -59
0 16 69 82 79 76 4 -3 18 6 31 19 13 13 26 22 30 20 4 -2 7 2 7 10 0 21 -10
19 -25 -6 -7 -12 -16 -18 -19 -15 -3 3 0 12 7 21 14 17 11 25 -8 18z m-47
-183 c-3 -5 -11 -10 -16 -10 -6 0 -7 5 -4 10 3 6 11 10 16 10 6 0 7 -4 4 -10z
m-45 -50 c-8 -5 -19 -10 -25 -10 -5 0 -3 5 5 10 8 5 20 10 25 10 6 0 3 -5 -5
-10z m-50 -75 c10 -12 10 -15 -4 -15 -9 0 -16 7 -16 15 0 8 2 15 4 15 2 0 9
-7 16 -15z"/>
<path d="M4490 1920 c-8 -5 -11 -12 -7 -16 4 -4 15 0 24 9 18 18 8 23 -17 7z"/>
<path d="M3505 1910 c3 -5 -1 -10 -9 -10 -8 0 -17 -4 -21 -9 -3 -6 10 -8 32
-5 39 5 58 14 29 14 -9 0 -14 5 -11 10 3 6 -1 10 -10 10 -9 0 -13 -4 -10 -10z"/>
<path d="M3320 1810 c14 -9 149 -15 139 -6 -2 2 -38 6 -79 10 -50 4 -70 3 -60
-4z"/>
<path d="M3565 1800 c-3 -5 -1 -10 4 -10 6 0 11 5 11 10 0 6 -2 10 -4 10 -3 0
-8 -4 -11 -10z"/>
<path d="M3050 1750 c0 -5 5 -10 10 -10 6 0 10 5 10 10 0 6 -4 10 -10 10 -5 0
-10 -4 -10 -10z"/>
<path d="M4660 1700 c-18 -12 -2 -12 25 0 13 6 15 9 5 9 -8 0 -22 -4 -30 -9z"/>
<path d="M4862 1676 c7 -8 16 -12 21 -9 11 7 -2 23 -19 23 -12 0 -12 -2 -2
-14z"/>
<path d="M4565 1649 c-44 -20 -36 -25 14 -8 17 6 31 15 31 20 0 5 -1 9 -2 8
-2 0 -21 -9 -43 -20z"/>
<path d="M4620 1655 c0 -13 4 -14 20 -5 11 6 20 13 20 15 0 3 -9 5 -20 5 -11
0 -20 -7 -20 -15z"/>
<path d="M4860 1630 c0 -5 5 -10 10 -10 6 0 10 5 10 10 0 6 -4 10 -10 10 -5 0
-10 -4 -10 -10z"/>
<path d="M4838 1612 c9 -10 19 -17 21 -16 6 5 -20 34 -30 34 -5 0 -1 -8 9 -18z"/>
<path d="M4560 1610 c-9 -6 -10 -10 -3 -10 6 0 15 5 18 10 8 12 4 12 -15 0z"/>
<path d="M3050 1596 c0 -8 3 -22 6 -31 9 -23 23 0 17 26 -6 22 -23 26 -23 5z"/>
<path d="M4741 1597 c-14 -6 -27 -19 -29 -27 -4 -11 1 -10 17 4 18 16 25 17
47 7 32 -14 42 -8 21 14 -19 18 -25 18 -56 2z"/>
<path d="M4610 1570 l-45 -6 45 -5 45 -4 -35 -22 c-19 -12 -39 -19 -44 -15 -6
3 -5 7 2 10 27 9 9 17 -43 19 -43 2 -55 -1 -55 -12 0 -8 -3 -14 -7 -14 -20 3
-22 -3 -8 -25 13 -19 13 -25 3 -28 -10 -4 -8 -16 10 -52 12 -25 22 -53 22 -62
0 -23 48 -113 93 -172 l41 -54 -12 -70 c-11 -62 -10 -74 4 -96 15 -23 20 -24
78 -19 99 9 267 74 340 131 15 13 17 20 8 45 -7 21 -8 31 -1 31 6 0 7 6 2 13
-4 6 -6 20 -5 30 2 9 -3 17 -10 17 -8 0 -6 4 5 11 19 11 23 34 7 44 -6 3 -7
-1 -4 -10 5 -13 2 -13 -25 2 -25 15 -28 19 -13 25 11 4 12 7 3 7 -7 1 -29 18
-49 38 -27 29 -33 32 -28 15 8 -24 -5 -29 -23 -9 -8 11 -7 18 7 31 10 9 22 13
26 9 4 -4 4 0 1 9 -4 10 -12 16 -18 15 -7 -1 -10 12 -8 35 2 28 -2 40 -18 50
-12 7 -21 19 -21 26 0 7 -4 10 -10 7 -5 -3 -10 3 -10 14 0 23 -28 28 -60 11
-15 -8 -18 -7 -14 3 3 8 -2 20 -11 27 -13 11 -18 10 -28 -4 -13 -18 -87 -40
-87 -26 0 5 9 12 20 15 11 3 20 10 20 14 0 9 -24 10 -90 1z m220 -55 c-7 -8
-17 -15 -23 -15 -5 0 -2 9 8 20 21 23 35 19 15 -5z m-304 -7 c-10 -6 -20 -7
-24 -3 -9 8 20 25 31 18 5 -3 2 -10 -7 -15z m19 -91 c18 -4 18 -5 -1 -6 -12 0
-32 8 -45 20 l-24 21 25 -15 c14 -8 35 -17 45 -20z m320 24 c3 -5 1 -12 -5
-16 -5 -3 -10 1 -10 9 0 18 6 21 15 7z"/>
<path d="M3565 1560 c-3 -5 -1 -10 4 -10 6 0 11 5 11 10 0 6 -2 10 -4 10 -3 0
-8 -4 -11 -10z"/>
<path d="M4518 1563 c6 -2 18 -2 25 0 6 3 1 5 -13 5 -14 0 -19 -2 -12 -5z"/>
<path d="M3585 1541 c-9 -16 9 -20 23 -5 10 12 10 14 -2 14 -8 0 -17 -4 -21
-9z"/>
</g>
</svg>
