<?xml version="1.0" standalone="no"?>
<!DOCTYPE svg PUBLIC "-//W3C//DTD SVG 20010904//EN"
 "http://www.w3.org/TR/2001/REC-SVG-20010904/DTD/svg10.dtd">
<svg version="1.0" xmlns="http://www.w3.org/2000/svg"
 width="1200.000000pt" height="1200.000000pt" viewBox="0 0 1200.000000 1200.000000"
 preserveAspectRatio="xMidYMid meet">

<g transform="translate(0.000000,1200.000000) scale(0.100000,-0.100000)"
fill="#000000" stroke="none">
<path d="M2979 8562 c-4 -12 -273 -63 -319 -61 -34 2 -18 5 145 35 122 23 125
24 51 18 -93 -6 -263 -43 -247 -53 6 -4 -13 -15 -43 -24 -52 -17 -136 -69
-136 -85 0 -62 106 -219 688 -1020 l235 -323 24 23 c13 12 21 28 19 35 -3 6 0
10 7 7 7 -2 46 30 87 71 65 65 72 80 39 77 -3 -1 -6 5 -6 13 0 11 4 11 22 -1
19 -13 24 -11 46 14 14 15 24 37 24 49 -1 12 1 20 6 17 4 -2 6 -11 2 -19 -11
-31 15 -11 104 78 l92 92 -67 72 c-37 40 -83 91 -102 114 -19 22 -55 62 -80
88 -135 144 -265 285 -281 306 -31 38 -21 42 12 5 17 -19 68 -75 113 -124 44
-49 88 -97 96 -106 8 -9 58 -64 111 -121 128 -139 141 -153 213 -233 33 -38
70 -78 82 -90 28 -28 149 -160 259 -281 50 -54 117 -128 151 -164 33 -37 85
-93 115 -126 29 -32 65 -69 78 -82 27 -26 22 -38 -15 -38 -20 -1 -22 1 -10 15
12 13 12 18 -4 38 -10 12 -23 22 -29 22 -6 0 -11 4 -11 9 0 8 -50 66 -122 142
-10 11 -25 16 -35 13 -15 -5 -15 -4 -3 5 13 9 12 13 -5 29 -11 11 -56 59 -100
108 -126 139 -131 144 -140 136 -5 -4 -5 -2 -2 4 9 15 -98 128 -112 120 -6 -4
-9 -1 -5 7 3 8 -8 25 -26 41 -17 14 -29 26 -26 26 3 0 -4 11 -16 25 l-21 24
-136 -133 c-75 -73 -168 -163 -208 -200 -72 -68 -72 -68 -56 -95 l15 -26 -20
25 -21 25 -25 -25 -24 -25 204 -280 c113 -154 221 -306 242 -337 20 -31 51
-63 67 -71 17 -8 120 -27 230 -42 168 -22 606 -80 683 -89 38 -5 35 -13 -10
-28 -24 -9 -105 -41 -180 -73 l-138 -58 -46 -74 c-34 -54 -51 -73 -67 -73 -17
0 -19 -2 -7 -9 8 -6 27 -7 42 -4 15 3 42 0 59 -7 17 -7 43 -14 58 -16 149 -14
230 -31 258 -56 39 -36 48 -72 27 -115 -17 -33 -24 -38 -58 -40 -43 -3 -51 -7
-42 -22 4 -6 29 -9 64 -5 74 7 62 -5 -48 -50 -72 -29 -85 -37 -82 -55 2 -12
-2 -21 -7 -21 -6 0 -10 -3 -9 -7 2 -5 -14 -33 -34 -63 -20 -30 -40 -68 -44
-85 -9 -40 -54 -128 -61 -121 -3 3 2 24 12 48 10 24 19 59 21 78 l4 35 -22
-43 c-17 -33 -24 -39 -28 -26 -5 13 -16 -2 -39 -52 -18 -38 -39 -77 -48 -86
-21 -23 -41 -23 -22 0 22 26 50 92 39 92 -13 0 -82 -69 -104 -104 l-18 -29 31
6 c17 4 31 3 31 -2 0 -10 -46 -31 -69 -31 -21 0 -36 26 -21 35 6 3 15 15 20
25 8 16 7 18 -4 14 -8 -3 -17 -12 -20 -20 -3 -8 -10 -14 -16 -14 -6 0 -8 5 -5
10 3 6 3 10 -2 10 -8 -1 -56 -70 -48 -70 2 0 15 4 29 10 33 12 34 -3 2 -27
-21 -15 -25 -27 -27 -81 -2 -37 2 -67 9 -74 7 -7 12 -18 12 -25 0 -7 5 -13 10
-13 6 0 18 -7 28 -15 9 -8 35 -30 57 -49 22 -19 36 -38 32 -42 -4 -4 -21 9
-38 29 -17 20 -35 37 -41 37 -6 0 -20 8 -31 17 -18 17 -19 17 -15 -22 3 -35 0
-40 -20 -43 -19 -3 -22 1 -22 32 0 19 5 38 10 41 16 10 11 41 -9 59 -12 11
-31 16 -52 14 l-32 -3 24 -30 c29 -36 54 -83 48 -90 -3 -2 -21 19 -40 48 -30
46 -39 53 -76 58 -24 3 -43 4 -43 3 0 -2 14 -23 31 -49 17 -25 29 -53 26 -63
-3 -14 -6 -12 -14 8 -6 14 -28 44 -48 68 -32 37 -42 42 -78 42 l-40 0 20 -23
c33 -37 63 -93 63 -118 0 -19 -7 -11 -31 31 -43 79 -76 110 -116 110 -35 0
-42 -10 -19 -29 19 -16 57 -93 50 -100 -3 -4 -16 7 -27 22 -53 67 -76 92 -82
85 -3 -3 3 -15 15 -26 19 -17 19 -20 5 -26 -9 -3 -21 -3 -27 0 -6 4 -8 -1 -6
-12 2 -12 13 -18 36 -19 49 -2 57 -17 27 -49 -14 -15 -25 -31 -25 -37 0 -12
32 -12 66 1 20 8 29 8 35 -1 4 -7 12 -8 20 -4 9 6 11 3 6 -9 -4 -10 -7 -20 -7
-23 0 -3 -6 0 -14 6 -9 8 -28 10 -51 5 -37 -7 -37 -7 -31 -45 12 -75 22 -89
58 -84 26 4 29 3 13 -4 -11 -5 -15 -10 -8 -10 6 -1 19 -4 29 -8 16 -6 17 -1
11 56 -4 40 -3 60 3 56 6 -3 10 5 10 19 0 15 8 30 20 36 22 12 27 1 8 -18 -9
-9 -9 -18 0 -37 17 -37 15 -47 -8 -40 -11 4 -20 2 -20 -4 0 -6 5 -11 11 -11 5
0 7 -5 4 -10 -3 -5 -1 -10 5 -10 6 0 13 7 16 15 4 10 14 13 32 8 18 -4 23 -3
17 7 -6 9 -1 10 16 5 13 -4 26 -12 27 -16 2 -5 8 -9 14 -9 6 0 5 6 -2 15 -10
12 -10 19 -2 27 14 14 62 -8 59 -26 -1 -6 5 -9 13 -7 8 2 27 6 42 9 34 5 28
16 -22 42 -46 24 -104 26 -144 5 -42 -22 -44 -18 -6 10 26 19 30 25 15 25 -14
0 -16 3 -8 11 9 9 19 9 40 0 33 -13 76 -15 153 -6 111 14 154 9 203 -19 48
-28 104 -90 151 -163 27 -45 33 -48 54 -35 9 6 8 13 -5 28 -10 11 -24 31 -31
45 -10 17 -3 13 22 -13 42 -44 46 -36 10 18 -52 78 -141 144 -193 144 -23 0
-32 3 -25 10 6 6 22 6 44 0 46 -13 50 -13 50 5 0 17 16 21 22 5 4 -13 94 -17
136 -7 26 7 32 6 32 -7 0 -9 -6 -13 -14 -10 -8 3 -23 1 -32 -4 -15 -9 -14 -12
13 -25 37 -19 75 -68 120 -155 38 -73 46 -82 82 -82 20 0 23 4 19 28 -3 15 -9
35 -13 45 -4 10 -3 17 3 17 32 0 68 -253 46 -324 -5 -17 -4 -19 7 -8 7 6 19
12 26 12 9 0 1 -16 -18 -40 -18 -22 -34 -38 -37 -36 -2 3 2 29 8 59 7 30 11
59 9 65 -7 21 -72 -70 -81 -113 -5 -24 -16 -49 -23 -55 -12 -10 -13 -7 -5 19
4 17 11 35 15 41 3 5 2 10 -4 10 -5 0 -13 -4 -16 -10 -3 -5 -13 -10 -22 -10
-20 0 -42 -29 -43 -56 0 -12 -9 -33 -21 -48 -23 -29 -17 -33 24 -12 15 8 27
11 27 6 0 -14 -63 -41 -73 -31 -5 5 -2 21 7 39 9 17 16 38 16 47 0 25 -59 -28
-87 -76 -22 -40 -17 -47 19 -28 15 8 22 8 28 -1 13 -21 164 66 247 142 40 38
78 66 83 63 14 -9 14 -10 -32 -41 -24 -16 -53 -41 -66 -56 -23 -27 -142 -103
-231 -148 -25 -12 -51 -29 -59 -36 -7 -8 -22 -14 -33 -14 -15 0 -19 -7 -19
-39 0 -61 -15 -90 -57 -108 -35 -14 -40 -14 -72 3 -18 10 -43 31 -54 46 l-20
27 -32 -25 c-17 -13 -37 -24 -43 -24 -6 0 -12 -5 -14 -11 -2 -7 -12 -7 -33 1
l-30 10 25 -21 c14 -11 79 -61 144 -111 84 -63 126 -88 140 -85 12 2 149 39
306 82 157 42 317 86 355 96 39 10 81 19 96 19 14 0 72 16 129 35 120 40 132
42 174 16 28 -17 145 -49 556 -155 74 -19 225 -58 335 -86 273 -71 872 -220
1085 -270 96 -23 229 -54 295 -70 132 -31 297 -62 302 -56 3 2 -38 13 -89 25
-51 12 -115 28 -143 36 -69 19 -167 44 -245 61 -36 7 -81 18 -100 23 -50 14
-65 17 -165 41 -49 12 -98 25 -107 31 -10 5 -26 9 -36 9 -10 0 -79 16 -153 36
-74 19 -153 40 -176 46 -46 10 -54 22 -25 32 24 10 139 78 262 157 58 37 129
82 157 101 50 31 65 48 44 48 -10 0 -112 -60 -121 -71 -5 -7 -230 -149 -235
-149 -2 0 -40 -23 -85 -51 l-81 -50 -52 15 c-29 8 -169 45 -312 81 -143 37
-312 80 -375 96 -63 17 -205 53 -315 80 -110 28 -206 52 -214 55 -13 4 149
114 168 114 4 0 16 9 26 20 10 11 22 20 26 20 4 0 48 27 98 60 50 33 93 60 95
60 3 0 25 14 49 30 45 30 77 39 77 20 0 -5 12 -12 28 -16 15 -3 36 -9 47 -14
17 -8 179 -62 195 -66 8 -1 43 -15 65 -25 40 -17 349 -119 363 -119 16 0 7 36
-14 58 -18 17 -18 22 1 22 8 0 14 -6 12 -12 -1 -7 5 -13 13 -13 8 0 14 8 14
18 -2 18 7 22 20 10 8 -8 12 -9 59 -11 16 -1 27 -8 27 -17 0 -9 6 -12 15 -9 8
4 27 3 43 -2 l27 -7 -30 -7 -30 -8 30 -2 c17 -1 34 -2 38 -1 4 1 20 -5 35 -12
15 -8 43 -17 62 -20 32 -6 33 -5 16 8 -10 8 -23 12 -28 9 -5 -3 -16 0 -25 7
-8 8 -29 19 -47 25 -17 7 -62 24 -101 39 -137 52 -201 77 -243 97 -28 13 -52
18 -70 14 -18 -5 -22 -4 -13 3 11 7 10 11 -7 20 -11 6 -27 11 -35 11 -8 0 -20
7 -27 15 -16 20 -11 19 47 -6 26 -11 134 -52 238 -91 105 -39 204 -76 220 -84
17 -7 68 -27 115 -45 73 -27 123 -45 225 -84 11 -4 34 -13 50 -20 17 -7 84
-34 150 -60 162 -63 311 -124 363 -147 100 -44 241 -98 255 -98 9 0 17 -4 19
-10 3 -9 42 -16 121 -22 15 -1 27 -5 27 -8 0 -3 20 -5 45 -6 44 0 59 9 31 19
-8 3 -47 9 -87 12 -87 8 -120 13 -125 18 -3 2 23 22 55 44 33 22 57 43 54 47
-3 3 0 6 7 6 7 0 11 3 7 6 -3 4 -38 -17 -77 -46 l-72 -53 -81 33 c-45 18 -106
44 -136 57 l-53 25 53 36 c29 19 64 41 78 48 22 12 23 14 7 20 -10 4 -25 -1
-39 -13 -12 -11 -44 -35 -70 -52 l-48 -33 -52 19 c-29 10 -72 28 -97 40 -40
19 -43 22 -25 30 33 13 125 77 125 87 0 8 -8 4 -106 -61 l-51 -34 -71 28 c-40
15 -72 30 -72 33 0 3 33 26 73 52 41 28 64 48 53 48 -10 0 -32 -11 -48 -25
-17 -14 -49 -35 -70 -46 l-40 -20 -54 21 c-30 12 -54 25 -54 29 0 3 29 24 65
46 35 22 60 41 55 43 -12 4 -47 -15 -91 -49 -36 -29 -79 -39 -79 -19 0 6 6 10
14 10 8 0 16 3 18 8 2 4 26 22 53 39 28 18 44 33 37 33 -12 0 -122 -68 -133
-83 -3 -4 -27 1 -53 13 -26 11 -53 20 -60 20 -7 0 -21 6 -31 14 -18 13 -15 17
48 56 37 24 66 45 63 47 -2 2 -24 -8 -48 -23 -23 -16 -47 -27 -52 -26 -5 2
-15 -6 -22 -17 -14 -19 -16 -19 -59 -4 -26 9 -42 19 -39 25 5 7 -2 9 -17 5
-13 -3 -32 -2 -43 2 -15 6 -7 14 45 49 34 23 66 42 71 42 4 0 8 5 8 11 0 7 -7
8 -17 4 -10 -4 -24 -8 -30 -8 -7 0 -13 -4 -13 -9 0 -11 -92 -68 -110 -67 -10
0 -6 7 12 23 15 13 24 27 20 30 -3 4 1 4 9 1 9 -3 26 3 40 15 20 18 21 21 4
15 -11 -3 -17 -3 -13 0 4 4 -3 18 -15 31 -16 18 -28 23 -45 19 -14 -3 -21 -2
-18 4 3 5 -2 7 -12 4 -12 -3 -23 4 -32 21 -17 32 -22 27 -26 -24 -2 -38 7 -52
21 -30 3 5 1 10 -4 10 -6 0 -11 5 -11 11 0 8 4 8 14 0 7 -6 22 -9 32 -5 17 5
-3 -16 -53 -56 -13 -11 -114 3 -140 20 -15 10 -14 10 7 5 51 -14 100 -17 100
-6 0 10 -35 16 -67 12 -8 -1 -10 5 -7 14 7 17 24 21 24 5 0 -5 13 -10 30 -10
22 0 28 4 24 15 -3 8 -15 17 -26 21 -16 5 -18 8 -7 15 9 5 17 3 22 -6 12 -21
27 -18 27 5 0 24 -47 50 -89 50 -21 0 -32 6 -36 20 -3 11 -11 20 -17 20 -5 0
-8 -6 -5 -14 4 -9 -8 -5 -30 10 -20 13 -42 25 -49 25 -38 4 -114 41 -114 56 0
8 -4 12 -10 8 -5 -3 -6 -13 -3 -23 6 -16 5 -16 -14 1 -11 9 -24 17 -30 17 -6
0 -13 4 -15 9 -1 5 -16 13 -32 17 -23 5 -27 4 -22 -7 4 -8 -1 -4 -11 8 -10 12
-31 25 -48 28 -23 5 -26 4 -15 -4 11 -8 7 -9 -17 -5 -20 4 -33 2 -33 -4 0 -5
-19 -17 -42 -27 l-43 -17 31 -13 c18 -7 35 -18 38 -24 9 -15 2 -14 -40 4 -40
16 -84 11 -84 -11 0 -8 -10 -14 -24 -14 -14 0 -28 -4 -31 -10 -15 -25 -24 -4
-30 75 -4 47 -11 85 -15 85 -8 0 -58 -20 -140 -58 -25 -11 -74 -32 -110 -47
-36 -15 -90 -38 -120 -52 -82 -37 -247 -103 -258 -103 -6 0 -13 -6 -16 -12 -3
-7 -4 70 -1 172 14 536 19 649 26 645 4 -3 10 -1 13 4 8 13 -44 21 -68 10 -28
-12 -166 -27 -166 -18 0 4 15 21 34 37 33 28 34 33 25 66 -5 19 -14 38 -19 41
-5 3 -3 -12 5 -34 12 -35 12 -40 -2 -45 -8 -3 -20 -3 -25 1 -6 3 -8 1 -4 -5 4
-6 -3 -12 -16 -14 -17 -2 -22 -9 -21 -25 3 -23 -1 -25 -72 -38 -67 -13 -83
-15 -150 -16 -38 -1 -81 -6 -94 -10 -13 -5 -26 -8 -28 -5 -2 2 5 37 17 78 12
40 23 80 26 89 2 9 18 19 34 23 l30 6 0 77 c0 70 11 148 22 159 3 2 18 7 35
10 35 7 50 -15 32 -48 l-11 -21 -13 22 c-10 20 -13 21 -18 6 -4 -9 -7 -25 -7
-36 0 -10 -4 -19 -10 -19 -5 0 -10 -12 -10 -26 0 -24 1 -25 48 -18 26 3 61 12
77 20 28 13 122 34 151 34 8 0 14 -4 14 -10 0 -5 -12 -10 -27 -10 -25 -1 -26
-2 -10 -11 11 -6 29 -9 41 -7 26 5 48 -15 40 -36 -8 -20 -30 -21 -38 -1 -3 8
-10 15 -15 15 -6 0 1 -20 14 -45 14 -24 31 -68 39 -96 l13 -52 11 33 c15 41
15 40 -1 40 -6 0 -18 14 -26 31 -11 26 -11 33 0 39 7 5 16 7 20 4 4 -2 10 8
13 22 5 20 1 32 -21 52 -47 44 -103 67 -103 42 0 -5 -15 -10 -32 -10 -33 0
-101 -20 -114 -33 -14 -14 -64 -7 -64 8 0 11 7 14 25 9 19 -5 25 -2 25 10 0 9
5 16 11 16 6 0 18 8 27 17 16 15 15 16 -11 9 -16 -4 -27 -2 -27 4 0 5 20 15
45 22 29 8 45 18 45 28 0 11 -2 12 -8 2 -6 -9 -19 -10 -47 -4 l-40 8 73 23
c39 12 72 27 72 32 0 13 -18 11 -65 -7 -108 -41 -150 -52 -164 -45 -9 5 -40
14 -68 21 -58 13 -75 39 -21 31 4 0 26 6 50 15 24 8 112 37 196 64 l152 49 65
-16 c36 -9 67 -14 70 -11 5 5 -99 257 -140 338 -78 156 -167 240 -269 257 -40
6 -41 7 -15 17 22 9 25 15 18 33 -6 16 -19 23 -53 28 -24 4 -49 4 -55 1 -5 -4
-12 -2 -15 3 -6 9 -28 13 -216 40 -41 6 -111 18 -155 26 -44 7 -111 19 -150
25 -169 27 -201 33 -220 41 -27 13 84 1 155 -16 76 -18 140 -25 140 -14 0 4 8
5 17 2 12 -5 15 -2 10 10 -3 9 -2 17 3 17 5 0 12 -9 15 -21 4 -11 9 -18 12
-15 9 9 -26 56 -41 56 -7 0 -19 6 -25 14 -6 7 -26 17 -44 20 -30 6 -31 8 -12
18 11 6 24 16 28 22 6 8 10 8 13 -1 4 -9 13 -9 37 -1 43 14 57 28 28 28 -13 0
-19 4 -16 10 4 7 -3 9 -19 5 -14 -3 -38 -8 -53 -11 -16 -3 -35 -13 -43 -24 -8
-10 -26 -20 -40 -24 -23 -5 -23 -4 3 6 39 17 33 28 -10 21 -58 -10 -204 -49
-199 -54 2 -2 -19 -5 -47 -6 -29 -1 -53 -7 -55 -12 -4 -13 -62 -15 -62 -2 0 5
21 12 48 15 54 8 297 64 327 76 45 18 114 32 126 25 7 -5 10 -4 6 2 -4 6 2 18
13 28 20 18 21 17 47 -6 15 -13 32 -29 38 -36 7 -9 21 -3 55 27 25 21 43 41
40 44 -3 3 -22 -11 -43 -30 -30 -29 -40 -34 -52 -24 -8 7 -14 15 -13 18 2 21
-4 31 -17 26 -34 -13 -11 15 66 79 65 56 83 66 95 56 10 -8 14 -8 14 0 0 6 -6
11 -12 11 -7 0 4 16 25 36 20 19 37 38 37 42 0 4 -245 252 -544 552 -299 300
-565 572 -592 604 -26 33 -75 89 -109 125 -34 36 -103 113 -152 171 -50 58
-102 115 -116 128 l-24 23 -37 -23 c-20 -13 -72 -46 -116 -74 -83 -54 -115
-71 -105 -54 3 6 12 10 20 10 7 0 15 4 17 8 2 4 30 26 63 47 33 22 60 46 60
54 0 8 7 17 15 19 13 5 13 3 1 -11 -7 -10 -9 -17 -4 -17 5 0 20 15 33 33 13
17 17 27 9 20 -11 -9 -20 -8 -39 2 -31 17 -64 21 -40 4 11 -7 5 -8 -21 -4 -20
4 -97 -3 -175 -15 -76 -13 -168 -26 -204 -30 -78 -9 -97 -16 -103 -38 -4 -13
-5 -13 -6 -2 -2 32 18 40 125 55 60 8 177 26 259 39 83 14 170 28 195 31 25 4
78 13 118 21 51 10 78 11 92 4 37 -20 71 -30 65 -20 -3 6 -2 10 3 10 9 0 91
-63 437 -334 44 -35 130 -101 190 -147 116 -90 674 -526 785 -614 36 -28 92
-72 125 -98 470 -368 669 -523 762 -592 61 -46 113 -88 116 -92 3 -4 8 -36 12
-70 l7 -61 -109 -36 c-59 -19 -152 -51 -205 -70 -54 -19 -98 -30 -98 -24 0 6
12 32 27 59 14 27 24 51 22 53 -2 3 -61 -16 -131 -41 l-128 -46 44 -51 c44
-51 45 -51 98 -48 29 2 129 16 223 32 93 16 235 34 313 41 l144 12 -7 36 c-3
20 -18 71 -32 113 -25 75 -30 80 -157 205 -143 140 -1008 850 -1364 1121 -68
51 -202 154 -300 229 -97 75 -211 161 -252 193 -41 31 -111 84 -155 118 -44
34 -131 101 -192 148 l-113 85 -244 6 c-178 4 -244 3 -247 -5z m346 -62 c4 -6
-9 -10 -32 -9 -30 0 -34 2 -18 9 27 12 43 12 50 0z m-110 -10 c4 -6 -6 -10
-22 -9 -25 0 -26 1 -8 9 11 5 21 9 22 9 1 1 5 -3 8 -9z m-95 -10 c0 -5 -12
-10 -27 -9 -25 0 -26 1 -8 9 27 12 35 12 35 0z m254 -5 c11 -8 16 -15 10 -15
-5 0 -18 7 -28 15 -11 8 -16 15 -10 15 5 0 18 -7 28 -15z m-359 -5 c4 -6 -5
-10 -20 -10 -15 0 -24 4 -20 10 3 6 12 10 20 10 8 0 17 -4 20 -10z m-115 -10
c0 -5 -12 -10 -27 -9 -25 0 -26 1 -8 9 27 12 35 12 35 0z m-95 -10 c-3 -5 -18
-9 -33 -9 l-27 1 30 8 c17 4 31 8 33 9 2 0 0 -3 -3 -9z m-88 -6 c-3 -3 -12 -4
-19 -1 -8 3 -5 6 6 6 11 1 17 -2 13 -5z m-137 -24 c-14 -11 -32 -22 -41 -25
-9 -3 -22 -16 -29 -30 -7 -13 -17 -22 -22 -19 -14 9 11 43 50 69 45 29 78 33
42 5z m93 13 c-7 -2 -21 -2 -30 0 -10 3 -4 5 12 5 17 0 24 -2 18 -5z m-126
-165 c61 -94 106 -178 99 -185 -3 -3 -12 9 -20 28 -8 19 -35 63 -60 99 -25 36
-46 69 -46 74 0 5 -7 18 -17 28 -9 10 -12 18 -6 18 5 0 27 -28 50 -62z m686
-106 c15 -18 23 -32 18 -32 -5 0 -20 15 -34 33 -60 78 -104 117 -123 111 -18
-7 -18 -6 0 8 20 16 23 14 139 -120z m-173 84 c0 -2 -7 -7 -16 -10 -8 -3 -12
-2 -9 4 6 10 25 14 25 6z m-432 -31 c-3 -3 -9 2 -12 12 -6 14 -5 15 5 6 7 -7
10 -15 7 -18z m376 -9 c-10 -8 -21 -12 -24 -10 -5 6 21 24 34 24 6 0 1 -6 -10
-14z m-97 -2 c-3 -3 -12 -4 -19 -1 -8 3 -5 6 6 6 11 1 17 -2 13 -5z m-62 -19
c-16 -7 -46 -15 -65 -19 -28 -5 -25 -2 15 13 57 21 95 26 50 6z m115 -10 c-7
-8 -17 -15 -23 -15 -6 0 -2 7 9 15 25 19 30 19 14 0z m-306 -22 c11 -13 16
-23 13 -23 -10 0 -37 31 -37 42 0 6 1 9 3 7 1 -2 11 -14 21 -26z m79 0 c-7 -2
-19 -2 -25 0 -7 3 -2 5 12 5 14 0 19 -2 13 -5z m84 -19 c-3 -3 -12 -4 -19 -1
-8 3 -5 6 6 6 11 1 17 -2 13 -5z m-90 -20 c-3 -3 -12 -4 -19 -1 -8 3 -5 6 6 6
11 1 17 -2 13 -5z m528 -15 c11 -17 -1 -21 -15 -4 -8 9 -8 15 -2 15 6 0 14 -5
17 -11z m215 -239 c0 -5 -2 -10 -4 -10 -3 0 -8 5 -11 10 -3 6 -1 10 4 10 6 0
11 -4 11 -10z m-437 -230 c5 -8 -5 1 -22 20 -17 19 -31 38 -31 43 0 9 32 -29
53 -63z m87 -125 c14 -19 14 -19 -2 -6 -10 7 -18 18 -18 24 0 6 1 8 3 6 1 -2
9 -13 17 -24z m663 -15 c-10 -11 -19 -20 -21 -20 -1 0 2 9 8 20 6 11 15 20 20
20 6 0 2 -9 -7 -20z m45 -75 c-3 -3 -9 2 -12 12 -6 14 -5 15 5 6 7 -7 10 -15
7 -18z m47 -5 c3 -5 1 -10 -4 -10 -6 0 -11 5 -11 10 0 6 2 10 4 10 3 0 8 -4
11 -10z m-645 -52 c0 -10 -16 5 -40 37 -10 15 -7 14 13 -4 15 -14 27 -29 27
-33z m605 22 c3 -5 1 -10 -4 -10 -6 0 -11 5 -11 10 0 6 2 10 4 10 3 0 8 -4 11
-10z m115 -65 c19 -23 8 -25 -14 -4 -11 11 -15 19 -9 19 6 0 16 -7 23 -15z
m-660 -46 c0 -6 -4 -7 -10 -4 -5 3 -10 11 -10 16 0 6 5 7 10 4 6 -3 10 -11 10
-16z m91 -126 c13 -16 12 -17 -3 -4 -10 7 -18 15 -18 17 0 8 8 3 21 -13z m109
-145 c0 -6 -7 -5 -15 2 -8 7 -15 17 -15 22 0 6 7 5 15 -2 8 -7 15 -17 15 -22z
m160 -230 c15 -21 17 -28 6 -19 -16 13 -41 51 -33 51 2 0 14 -15 27 -32z m920
-70 c0 -5 -12 -8 -27 -8 -26 0 -26 0 -8 20 14 16 20 17 27 8 4 -7 8 -16 8 -20z
m-63 6 c-3 -3 -12 -4 -19 -1 -8 3 -5 6 6 6 11 1 17 -2 13 -5z m83 -24 c0 -5
-12 -13 -27 -16 -16 -4 -37 -13 -48 -20 -11 -7 -56 -25 -100 -40 -44 -15 -84
-31 -89 -35 -6 -5 -16 -9 -24 -9 -8 0 -29 -7 -48 -16 -19 -9 -37 -14 -41 -11
-3 4 3 10 13 14 10 3 22 11 25 16 4 5 21 10 38 11 17 0 31 4 31 8 0 4 18 13
40 19 29 9 37 15 28 22 -9 6 -7 7 6 3 20 -7 106 21 106 35 0 4 -6 10 -12 13
-7 3 -1 4 14 1 14 -3 37 -1 50 4 31 13 38 13 38 1z m-804 -95 c4 -11 14 -29
23 -40 16 -20 16 -20 -6 -1 -13 11 -23 25 -23 33 0 7 -6 16 -14 19 -8 3 -17
12 -20 20 -4 11 -2 12 14 1 11 -6 23 -21 26 -32z m404 -65 c-20 -13 -33 -13
-25 0 3 6 14 10 23 10 15 0 15 -2 2 -10z m-40 -9 c0 -4 -21 -16 -47 -26 -27
-9 -77 -28 -111 -42 -35 -13 -66 -22 -69 -19 -3 2 13 10 36 17 23 7 41 16 41
20 0 5 17 11 38 15 20 4 53 15 72 25 42 22 40 21 40 10z m-277 -46 c-3 -9 -8
-14 -10 -11 -3 3 -2 9 2 15 9 16 15 13 8 -4z m547 -5 c0 -5 -2 -10 -4 -10 -3
0 -8 5 -11 10 -3 6 -1 10 4 10 6 0 11 -4 11 -10z m-520 -41 c0 -6 -4 -7 -10
-4 -5 3 -10 11 -10 16 0 6 5 7 10 4 6 -3 10 -11 10 -16z m260 -39 c0 -5 -4
-10 -10 -10 -5 0 -10 5 -10 10 0 6 5 10 10 10 6 0 10 -4 10 -10z m-86 -18 c3
-5 -8 -6 -25 -4 -16 2 -29 6 -29 8 0 8 49 4 54 -4z m949 -538 c34 -5 53 -14
67 -32 28 -34 25 -40 -17 -45 l-38 -4 43 -1 c24 -1 41 -5 38 -10 -2 -4 -24 -6
-48 -4 -40 3 -46 7 -67 48 -21 39 -28 44 -58 44 -22 0 -32 4 -27 11 3 6 18 8
33 5 14 -3 48 -9 74 -12z m40 -134 c12 0 29 -5 37 -10 11 -7 4 -10 -27 -10
-38 0 -43 3 -42 23 0 12 3 16 6 10 2 -7 14 -13 26 -13z m-43 -94 c0 -2 -7 -7
-16 -10 -8 -3 -12 -2 -9 4 6 10 25 14 25 6z m-150 -120 c0 -3 -4 -8 -10 -11
-5 -3 -10 -1 -10 4 0 6 5 11 10 11 6 0 10 -2 10 -4z m-100 -71 c-16 -41 -21
-25 -7 20 6 22 13 33 15 24 1 -9 -2 -28 -8 -44z m-155 -2 c-7 -45 -42 -129
-51 -121 -2 2 5 29 16 59 11 29 20 63 20 75 0 19 8 34 18 34 2 0 1 -21 -3 -47z
m69 -34 c-26 -59 -35 -46 -11 16 12 31 24 48 25 39 2 -9 -4 -34 -14 -55z m399
-6 c-7 -2 -21 -2 -30 0 -10 3 -4 5 12 5 17 0 24 -2 18 -5z m-388 -43 c-3 -5
-12 -10 -18 -10 -7 0 -6 4 3 10 19 12 23 12 15 0z m-75 -40 c-14 -11 -32 -19
-40 -19 -8 0 0 8 18 16 17 9 32 21 32 26 0 6 3 7 7 3 4 -4 -3 -16 -17 -26z
m-96 -45 c-16 -14 -35 -25 -43 -25 -17 0 -11 7 26 31 41 26 50 23 17 -6z m-85
-31 c-16 -19 -69 -47 -76 -40 -3 3 11 13 31 22 20 10 36 21 36 26 0 4 5 8 11
8 8 0 7 -5 -2 -16z m-202 -257 c4 -7 0 -8 -11 -4 -10 4 -24 7 -32 7 -9 0 -13
4 -10 9 7 11 44 3 53 -12z m104 -13 c12 -15 11 -16 -11 -9 -35 10 -49 25 -23
25 11 0 27 -7 34 -16z m-61 -14 c0 -5 -4 -10 -10 -10 -5 0 -10 5 -10 10 0 6 5
10 10 10 6 0 10 -4 10 -10z m594 -20 c-12 -12 -24 -16 -32 -11 -10 6 -7 10 12
15 14 3 26 12 26 18 0 6 3 8 7 4 4 -3 -2 -15 -13 -26z m-464 -39 c0 -11 -8 -6
-25 14 -32 39 -32 55 0 25 14 -13 25 -31 25 -39z m-60 -55 c0 -13 -49 34 -62
59 -6 12 4 6 26 -14 20 -19 36 -39 36 -45z m-115 24 c3 -5 1 -10 -4 -10 -6 0
-11 5 -11 10 0 6 2 10 4 10 3 0 8 -4 11 -10z m193 -37 c-6 -7 -16 -13 -22 -13
-6 0 -5 4 3 9 9 6 11 17 6 32 -7 23 -7 23 8 4 11 -14 12 -24 5 -32z m-543 7
c3 -5 -1 -10 -9 -10 -9 0 -16 -4 -16 -10 0 -5 -4 -10 -10 -10 -14 0 -12 27 3
33 19 8 25 8 32 -3z m362 -22 c-3 -8 -6 -5 -6 6 -1 11 2 17 5 13 3 -3 4 -12 1
-19z m-192 -8 c3 -5 1 -10 -4 -10 -6 0 -11 5 -11 10 0 6 2 10 4 10 3 0 8 -4
11 -10z m105 0 c0 -5 -2 -10 -4 -10 -3 0 -8 5 -11 10 -3 6 -1 10 4 10 6 0 11
-4 11 -10z m485 -30 c-4 -6 5 -7 24 -4 46 9 102 -14 149 -63 23 -24 42 -49 42
-56 0 -6 -21 10 -46 36 -46 48 -78 67 -114 67 -15 0 -10 -9 24 -45 24 -25 49
-59 55 -77 l10 -33 -22 30 c-12 17 -48 56 -79 87 -59 58 -66 68 -47 68 5 0 7
-4 4 -10z m227 -40 c46 -31 85 -77 74 -88 -4 -3 -14 5 -23 19 -31 44 -75 79
-99 79 -13 0 -24 5 -24 10 0 18 26 11 72 -20z m72 2 c3 -5 -8 -6 -25 -4 -16 2
-29 6 -29 8 0 8 49 4 54 -4z m94 -88 c-8 -7 -57 45 -58 61 0 5 14 -5 32 -22
18 -18 29 -35 26 -39z m-43 -96 c9 -30 14 -84 13 -127 l-1 -76 -7 85 c-4 47
-14 106 -23 132 -8 27 -11 46 -6 43 5 -3 15 -29 24 -57z m84 -18 l-1 -25 -7
25 c-4 14 -11 39 -14 55 l-6 30 14 -30 c8 -16 14 -41 14 -55z m-176 37 c24
-56 38 -163 31 -232 -10 -100 -22 -87 -16 18 4 89 2 105 -34 230 -9 30 5 19
19 -16z m1542 -187 c3 -5 1 -10 -4 -10 -6 0 -11 5 -11 10 0 6 2 10 4 10 3 0 8
-4 11 -10z m-270 -70 c3 -5 1 -10 -4 -10 -6 0 -11 5 -11 10 0 6 2 10 4 10 3 0
8 -4 11 -10z m102 -15 c15 -8 65 -29 111 -46 45 -18 82 -36 82 -41 0 -6 -6 -8
-12 -5 -7 3 -58 24 -113 47 -55 23 -109 46 -120 51 -19 7 -19 8 2 8 12 1 34
-6 50 -14z m119 -10 c10 -8 15 -14 9 -14 -5 0 -19 6 -29 14 -11 8 -15 15 -10
15 6 0 19 -7 30 -15z m264 11 c0 -2 -7 -7 -16 -10 -8 -3 -12 -2 -9 4 6 10 25
14 25 6z m-90 -56 c8 -5 11 -10 5 -10 -5 0 -17 5 -25 10 -8 5 -10 10 -5 10 6
0 17 -5 25 -10z m-23 -16 c-3 -3 -12 -4 -19 -1 -8 3 -5 6 6 6 11 1 17 -2 13
-5z m213 -24 c-18 -16 -38 -30 -44 -30 -6 0 -3 7 7 14 14 11 15 15 5 19 -7 3
-3 6 10 6 12 1 22 6 22 11 0 6 8 10 17 10 12 0 7 -9 -17 -30z m-119 -18 c-7
-2 -18 1 -23 6 -8 8 -4 9 13 5 13 -4 18 -8 10 -11z m59 -22 c0 -5 -9 -6 -20
-3 -11 3 -20 9 -20 13 0 5 9 6 20 3 11 -3 20 -9 20 -13z m-1920 -17 c0 -5 -12
-13 -26 -20 -26 -12 -26 -12 -9 7 18 20 35 26 35 13z m2177 -18 c-4 -9 -18
-15 -34 -14 -21 1 -23 3 -8 6 11 3 24 12 28 20 11 18 22 9 14 -12z m43 5 c0
-5 -7 -10 -16 -10 -8 0 -12 5 -9 10 3 6 10 10 16 10 5 0 9 -4 9 -10z m-407 -7
c-7 -2 -19 -2 -25 0 -7 3 -2 5 12 5 14 0 19 -2 13 -5z m302 -33 c3 -5 -1 -10
-9 -10 -9 0 -16 5 -16 10 0 6 4 10 9 10 6 0 13 -4 16 -10z m65 -2 c0 -11 -12
-10 -30 2 -12 7 -10 9 8 7 12 0 22 -5 22 -9z m-403 -34 c-3 -3 -12 -4 -19 -1
-8 3 -5 6 6 6 11 1 17 -2 13 -5z"/>
<path d="M3216 8375 c4 -8 11 -15 16 -15 6 0 5 6 -2 15 -7 8 -14 15 -16 15 -2
0 -1 -7 2 -15z"/>
<path d="M3272 8316 c7 -8 15 -12 17 -11 5 6 -10 25 -20 25 -5 0 -4 -6 3 -14z"/>
<path d="M3300 8291 c0 -10 59 -65 64 -60 2 2 -11 18 -30 36 -19 17 -34 28
-34 24z"/>
<path d="M3385 8200 c10 -11 20 -20 23 -20 3 0 -3 9 -13 20 -10 11 -20 20 -23
20 -3 0 3 -9 13 -20z"/>
<path d="M3430 8160 c0 -5 5 -10 11 -10 5 0 7 5 4 10 -3 6 -8 10 -11 10 -2 0
-4 -4 -4 -10z"/>
<path d="M3485 8100 c3 -5 11 -10 16 -10 6 0 7 5 4 10 -3 6 -11 10 -16 10 -6
0 -7 -4 -4 -10z"/>
<path d="M3515 8070 c3 -5 11 -10 16 -10 6 0 7 5 4 10 -3 6 -11 10 -16 10 -6
0 -7 -4 -4 -10z"/>
<path d="M3490 8056 c0 -2 8 -10 18 -17 15 -13 16 -12 3 4 -13 16 -21 21 -21
13z"/>
<path d="M3540 8046 c0 -2 7 -9 15 -16 13 -11 14 -10 9 4 -5 14 -24 23 -24 12z"/>
<path d="M3590 8002 c6 -13 14 -21 18 -18 3 4 -2 14 -12 24 -18 16 -18 16 -6
-6z"/>
<path d="M3560 7976 c0 -2 8 -10 18 -17 15 -13 16 -12 3 4 -13 16 -21 21 -21
13z"/>
<path d="M3620 7967 c0 -2 15 -16 33 -33 l32 -29 -29 33 c-28 30 -36 37 -36
29z"/>
<path d="M3700 7886 c0 -2 8 -10 18 -17 15 -13 16 -12 3 4 -13 16 -21 21 -21
13z"/>
<path d="M3699 7847 c6 -8 7 -18 3 -22 -4 -5 -1 -5 6 -1 10 6 10 11 1 22 -6 8
-14 14 -16 14 -3 0 0 -6 6 -13z"/>
<path d="M3746 7791 c-3 -5 1 -11 9 -14 9 -4 12 -1 8 9 -6 16 -10 17 -17 5z"/>
<path d="M3865 7720 c10 -11 20 -20 23 -20 3 0 -3 9 -13 20 -10 11 -20 20 -23
20 -3 0 3 -9 13 -20z"/>
<path d="M3900 7686 c0 -2 7 -9 15 -16 13 -11 14 -10 9 4 -5 14 -24 23 -24 12z"/>
<path d="M3940 7646 c0 -2 8 -10 18 -17 15 -13 16 -12 3 4 -13 16 -21 21 -21
13z"/>
<path d="M4035 7550 c27 -27 51 -50 54 -50 3 0 -17 23 -44 50 -27 28 -51 50
-54 50 -3 0 17 -22 44 -50z"/>
<path d="M9770 7510 c-19 -6 -12 -8 30 -8 30 0 64 3 75 8 26 11 -70 11 -105 0z"/>
<path d="M9945 7490 c-22 -10 -16 -12 35 -14 19 -1 50 -5 68 -10 42 -10 43 8
1 23 -37 13 -76 13 -104 1z"/>
<path d="M4130 7455 c19 -19 36 -35 39 -35 3 0 -10 16 -29 35 -19 19 -36 35
-39 35 -3 0 10 -16 29 -35z"/>
<path d="M10443 7391 c-33 -15 -48 -39 -15 -26 9 4 24 8 33 9 18 1 180 -174
172 -186 -2 -5 -24 -8 -49 -8 -28 0 -43 -4 -39 -10 8 -12 112 -13 119 -1 7 11
-100 155 -150 202 -38 34 -40 35 -71 20z"/>
<path d="M4195 7340 c10 -11 20 -20 23 -20 3 0 -3 9 -13 20 -10 11 -20 20 -23
20 -3 0 3 -9 13 -20z"/>
<path d="M4230 7357 c0 -2 15 -16 33 -33 l32 -29 -29 33 c-28 30 -36 37 -36
29z"/>
<path d="M4295 7240 c10 -11 20 -20 23 -20 3 0 -3 9 -13 20 -10 11 -20 20 -23
20 -3 0 3 -9 13 -20z"/>
<path d="M4380 7205 c13 -14 26 -25 28 -25 3 0 -5 11 -18 25 -13 14 -26 25
-28 25 -3 0 5 -11 18 -25z"/>
<path d="M4420 7166 c0 -2 8 -10 18 -17 15 -13 16 -12 3 4 -13 16 -21 21 -21
13z"/>
<path d="M11031 7061 l34 -43 -42 -38 c-35 -31 -43 -44 -43 -73 0 -19 -6 -39
-13 -45 -7 -6 -65 -26 -129 -44 l-116 -33 -6 -75 c-4 -41 -16 -142 -26 -225
-11 -90 -15 -151 -9 -153 16 -6 10 -21 -14 -37 -26 -17 -239 -66 -231 -53 3 4
14 8 24 8 11 0 17 5 15 13 -8 20 10 38 29 31 17 -6 16 -8 -5 -21 -22 -12 -21
-13 16 -7 51 9 105 31 105 44 0 6 -4 10 -10 10 -5 0 -10 -5 -10 -10 0 -7 -6
-7 -18 -1 -11 6 -24 6 -33 0 -11 -7 -10 -9 5 -9 11 0 17 -3 13 -6 -3 -3 -21
-3 -39 1 -29 7 -30 9 -13 16 17 7 16 8 -7 8 -16 1 -28 -3 -28 -9 0 -5 -6 -10
-13 -10 -7 0 -18 -9 -25 -20 -14 -23 -47 -28 -39 -6 9 22 -21 8 -34 -15 -7
-14 -21 -19 -54 -19 -25 0 -45 -4 -45 -10 0 -5 -9 -10 -20 -10 -11 0 -20 5
-20 10 0 6 -5 10 -11 10 -6 0 -9 -7 -5 -15 3 -8 1 -15 -4 -15 -6 0 -10 4 -10
8 0 5 -13 7 -30 4 -16 -2 -30 -8 -30 -13 0 -5 12 -7 28 -4 24 5 25 4 5 -4 -30
-14 -83 -15 -177 -6 l-78 8 4 -37 c5 -41 5 -41 -16 -20 -9 9 -28 14 -43 12
l-28 -4 35 -16 c22 -10 28 -17 17 -17 -39 -2 -57 18 -57 64 0 48 -7 75 -21 75
-4 0 -6 -7 -3 -15 8 -20 -4 -85 -16 -85 -5 0 -11 8 -13 18 -4 16 -5 16 -6 0 0
-10 -7 -18 -15 -18 -10 0 -16 -13 -18 -42 -3 -37 -7 -43 -36 -55 -19 -8 -31
-9 -28 -4 3 5 0 12 -6 15 -7 3 -4 4 7 1 33 -8 42 7 48 75 5 54 4 60 -6 38 -15
-39 -27 -35 -27 10 0 34 4 40 38 57 46 22 29 31 -21 10 l-37 -15 0 -78 c0 -53
-3 -72 -10 -62 -5 8 -10 11 -10 6 0 -6 -7 -1 -15 10 -13 18 -14 17 -15 -18 0
-29 4 -38 17 -38 9 0 14 -3 10 -6 -3 -3 -14 -3 -24 0 -14 4 -18 16 -18 48 l0
43 -42 3 -43 3 0 -40 0 -41 -45 0 c-42 0 -45 2 -47 28 -3 59 -5 68 -12 85 -9
19 -24 17 -84 -11 -29 -13 -35 -13 -44 -1 -8 11 -9 11 -5 -2 4 -13 -8 -20 -54
-34 -50 -16 -100 -48 -91 -61 1 -2 1 -41 0 -86 l-2 -83 -6 85 c-3 47 -7 66 -8
42 l-2 -43 -102 5 c-57 2 -105 5 -107 5 -2 1 0 13 3 27 5 17 3 23 -4 19 -5 -3
-10 -16 -10 -29 0 -20 -6 -23 -47 -25 -29 -1 -49 3 -54 11 -7 10 -9 10 -9 1 0
-19 -38 -16 -49 5 -10 16 -10 16 -11 0 0 -15 -10 -18 -59 -18 -38 0 -61 -5
-65 -12 -5 -10 -7 -10 -12 0 -3 6 -13 12 -21 12 -14 0 -14 -3 2 -20 22 -24 45
-26 45 -4 0 8 5 12 11 8 8 -4 8 -9 0 -17 -6 -6 -11 -19 -11 -29 0 -23 -20 -24
-20 0 -1 15 -2 15 -15 -2 -14 -19 -15 -18 -15 11 l0 31 -52 -19 c-50 -18 -78
-17 -48 1 8 6 11 10 7 10 -4 0 -18 -7 -32 -16 -21 -14 -24 -14 -34 3 -8 14
-10 14 -10 3 0 -16 22 -50 33 -50 3 0 5 5 4 11 -2 6 3 14 10 16 7 3 12 -4 12
-17 0 -16 4 -20 16 -16 9 3 20 6 25 6 6 0 7 5 3 12 -5 8 -2 9 10 5 10 -4 23
-7 30 -7 7 0 13 -6 13 -14 0 -8 -6 -12 -14 -9 -9 4 -11 0 -7 -12 6 -15 3 -16
-22 -11 -16 3 -36 2 -44 -4 -11 -7 -3 -10 30 -11 43 -1 44 -1 15 -10 -33 -10
-91 4 -98 24 -2 8 -5 8 -11 -1 -4 -7 -2 -12 3 -12 6 0 11 -4 11 -10 0 -5 -22
-10 -50 -10 l-50 0 0 -40 c0 -40 0 -40 -39 -40 -40 0 -40 0 -44 43 l-4 42 -1
-49 c-2 -43 -4 -48 -22 -43 -23 6 -17 -10 12 -31 19 -14 26 -38 8 -27 -5 3
-10 -1 -10 -9 0 -9 3 -16 8 -16 4 0 8 -12 9 -28 1 -22 -4 -17 -28 28 -15 30
-28 62 -29 71 0 9 -7 20 -16 23 -28 11 -61 -20 -72 -66 -6 -24 -21 -74 -35
-113 -13 -38 -27 -89 -30 -111 l-5 -41 117 -65 c115 -64 139 -72 265 -84 28
-3 55 -11 60 -19 9 -11 32 3 121 71 189 146 214 164 224 164 13 0 75 33 79 43
2 4 10 7 19 7 8 0 27 6 41 14 39 20 283 132 317 146 11 4 45 19 75 33 83 39
103 43 98 20 -2 -11 -12 -18 -26 -17 -12 0 -22 -3 -22 -7 0 -6 -286 -152 -302
-153 -4 -1 -13 -7 -19 -13 -7 -7 -18 -13 -23 -13 -15 0 -120 -53 -124 -62 -2
-5 -12 -8 -22 -8 -9 0 -23 -7 -30 -15 -7 -8 -19 -15 -26 -15 -8 0 -60 -37
-117 -82 -56 -46 -129 -101 -162 -123 -33 -22 -66 -45 -72 -52 -7 -6 -22 -14
-32 -18 -11 -3 -22 -12 -25 -20 -9 -25 -22 -17 -20 13 0 23 6 28 35 33 19 4
26 7 17 8 -11 1 -15 6 -12 16 8 21 -3 19 -38 -6 -23 -17 -28 -27 -24 -48 3
-14 8 -82 11 -151 10 -205 24 -470 30 -545 3 -38 10 -162 14 -275 l9 -205 -32
-159 c-24 -124 -36 -162 -50 -170 -11 -6 -27 -18 -37 -28 -16 -15 -16 -18 12
-42 16 -14 31 -26 34 -26 3 0 19 -12 35 -27 28 -24 28 -27 12 -40 -16 -12 -15
-15 16 -41 35 -31 43 -48 14 -33 -9 5 -33 11 -52 13 -34 3 -35 2 -35 -35 -1
-47 5 -51 41 -32 16 8 36 15 44 15 17 0 221 151 299 222 28 25 51 54 51 65 0
17 -2 17 -18 -2 -48 -56 -56 -59 -114 -37 -29 11 -77 23 -106 27 -49 6 -53 9
-48 29 3 11 6 33 6 48 0 27 1 27 53 21 28 -3 81 -15 117 -25 108 -32 110 -32
110 -14 0 10 -4 14 -10 11 -5 -3 -31 1 -57 10 -25 9 -82 21 -126 27 l-79 11 6
36 c3 20 6 42 6 49 0 19 97 6 183 -25 73 -26 85 -25 68 4 -6 10 -11 13 -11 6
0 -8 -14 -7 -47 4 -27 9 -76 21 -111 28 -35 7 -66 15 -69 18 -3 3 -2 29 2 58
l7 51 62 -6 c95 -11 136 -24 146 -49 8 -20 9 -18 9 11 1 28 -2 32 -27 32 -15
0 -43 5 -62 11 -19 5 -54 10 -77 10 -23 0 -44 3 -47 8 -3 4 -8 60 -12 124 l-6
116 38 -6 c22 -3 69 -13 107 -23 l67 -16 0 48 c0 26 -4 48 -9 48 -6 0 -7 -16
-4 -36 6 -36 5 -36 -23 -30 -16 3 -60 10 -99 16 -38 6 -73 16 -77 23 -4 7 -9
49 -10 95 -1 45 -3 94 -4 110 -1 15 -5 77 -8 137 -4 61 -9 154 -12 209 l-5 98
37 -6 c39 -8 74 -26 74 -39 0 -4 4 -6 9 -3 5 4 21 2 35 -3 20 -8 26 -7 31 8 3
10 3 25 0 33 -3 8 1 28 10 44 8 16 15 34 15 40 0 7 7 14 15 18 8 3 20 17 25
31 6 17 14 24 22 19 7 -4 10 -4 6 0 -9 11 43 67 55 59 6 -3 7 -1 3 5 -4 7 -1
12 8 12 9 0 80 39 158 86 79 48 159 96 178 107 47 26 536 320 735 442 88 53
237 148 330 210 94 62 262 173 375 247 154 101 225 155 283 213 42 43 75 80
73 83 -3 2 -33 -23 -68 -56 -80 -76 -100 -92 -172 -132 -50 -29 -57 -30 -47
-13 6 11 21 23 33 26 13 4 75 59 138 123 63 65 145 147 181 184 164 166 157
289 -23 390 l-42 23 35 -42z m-624 -843 c-3 -18 -17 -28 -63 -44 -32 -11 -67
-24 -76 -27 -47 -18 -49 -18 -43 6 6 21 5 21 -9 3 -8 -10 -17 -22 -18 -26 -2
-4 -28 -19 -58 -33 -68 -33 -189 -107 -175 -107 6 0 30 12 54 25 24 14 46 23
48 21 7 -7 -100 -60 -116 -57 -7 1 -10 -2 -7 -8 3 -5 -7 -19 -23 -30 -40 -29
-53 -26 -16 4 17 14 26 25 20 25 -15 -1 -55 -37 -55 -50 0 -6 -4 -8 -10 -5 -5
3 -7 0 -4 -9 6 -15 -28 -32 -45 -22 -4 3 -25 -3 -46 -13 -25 -12 -33 -20 -24
-24 8 -3 6 -5 -6 -4 -31 3 -215 -95 -215 -114 0 -10 -7 -16 -17 -15 -10 0 -17
-3 -16 -9 1 -5 -15 -11 -35 -12 -20 -1 -42 -9 -48 -17 -6 -9 -16 -16 -22 -16
-6 0 -14 -5 -18 -12 -4 -7 -3 -8 4 -4 7 4 12 2 12 -3 0 -6 -9 -11 -21 -11 -12
0 -38 -13 -59 -30 l-37 -29 -22 23 c-21 22 -21 24 -4 29 10 4 25 11 33 16 30
19 188 91 199 91 19 0 12 17 -18 45 -20 20 -40 28 -70 29 -23 1 -47 8 -53 14
-10 10 -6 12 17 10 17 -1 36 2 43 6 7 4 20 2 28 -5 8 -6 16 -10 17 -8 1 2 12
19 25 37 12 17 18 32 12 32 -5 0 -10 7 -10 15 0 13 -3 13 -20 3 -21 -14 -75
-1 -72 17 2 6 26 18 54 27 65 23 67 25 27 37 -19 5 -26 10 -17 10 9 1 28 -4
41 -10 21 -9 58 -1 233 54 115 36 259 79 319 96 61 17 124 35 140 41 17 5 59
14 95 19 36 6 79 15 97 20 17 5 34 7 37 3 3 -3 6 0 6 6 0 7 2 12 5 12 3 0 3
-10 2 -22z m-1003 -60 c-4 -13 -6 -53 -6 -89 1 -47 -2 -69 -11 -72 -10 -4 -12
3 -9 24 2 16 1 40 -2 54 -6 22 -9 23 -31 13 -18 -8 -32 -8 -47 -1 -22 10 -23
9 -20 -36 4 -47 3 -47 -33 -59 -30 -9 -40 -8 -51 3 -17 17 -18 82 -1 88 6 2 1
2 -13 0 l-25 -4 25 20 c13 11 34 22 45 24 11 3 47 17 80 31 33 14 70 26 83 26
20 0 22 -4 16 -22z m390 -50 c6 -5 2 -8 -11 -8 -24 0 -27 7 -16 37 7 17 8 17
11 -2 3 -11 9 -23 16 -27z m173 36 c-3 -3 -12 -4 -19 -1 -8 3 -5 6 6 6 11 1
17 -2 13 -5z m143 -78 c0 -3 -4 -8 -10 -11 -5 -3 -10 -1 -10 4 0 6 5 11 10 11
6 0 10 -2 10 -4z m-463 -22 c-3 -3 -12 -4 -19 -1 -8 3 -5 6 6 6 11 1 17 -2 13
-5z m-287 -49 c0 -2 -10 -10 -22 -16 -21 -11 -22 -11 -9 4 13 16 31 23 31 12z
m50 -27 c-14 -5 -33 -14 -42 -19 -13 -7 -16 -5 -12 6 5 13 28 21 64 23 8 0 4
-4 -10 -10z m-102 -50 c-3 -7 -21 -13 -41 -14 -20 -1 -34 3 -31 8 3 5 20 6 37
3 24 -5 28 -4 17 4 -13 9 -12 11 3 11 11 0 17 -6 15 -12z m-471 -20 c-3 -8 -6
-5 -6 6 -1 11 2 17 5 13 3 -3 4 -12 1 -19z m53 12 c0 -5 -2 -10 -4 -10 -3 0
-8 5 -11 10 -3 6 -1 10 4 10 6 0 11 -4 11 -10z m37 -22 c-3 -7 -5 -2 -5 12 0
14 2 19 5 13 2 -7 2 -19 0 -25z m30 10 c-3 -8 -6 -5 -6 6 -1 11 2 17 5 13 3
-3 4 -12 1 -19z m268 -8 c3 -6 -1 -7 -9 -4 -18 7 -21 14 -7 14 6 0 13 -4 16
-10z m-85 -4 c0 -3 -4 -8 -10 -11 -5 -3 -10 -1 -10 4 0 6 5 11 10 11 6 0 10
-2 10 -4z m231 -18 c32 -21 22 -29 -25 -18 -34 7 -41 6 -57 -13 -10 -12 -18
-18 -19 -13 0 4 -11 1 -25 -8 -14 -9 -30 -14 -36 -10 -6 3 -17 -3 -25 -15 -19
-27 -50 -27 -64 -1 -6 11 -17 20 -25 20 -24 0 -17 -16 11 -29 21 -9 24 -14 14
-26 -7 -8 -19 -15 -26 -15 -8 0 -22 -4 -32 -9 -9 -5 -30 -14 -47 -21 -16 -6
-43 -18 -59 -26 -24 -12 -31 -12 -37 -2 -7 10 -9 10 -9 1 0 -7 -9 -13 -19 -13
-29 0 -51 -11 -51 -25 0 -16 -28 -40 -37 -31 -4 3 2 13 13 22 18 15 18 15 -4
11 -12 -3 -20 -1 -16 4 3 5 0 9 -5 9 -6 0 -11 -4 -11 -10 0 -5 -13 -16 -30
-25 -34 -18 -40 -18 -40 -4 0 5 5 7 12 3 7 -5 9 -2 5 8 -4 12 -1 14 14 11 11
-3 19 0 19 6 0 7 23 21 50 33 35 14 50 26 50 39 0 23 -18 25 -26 4 -4 -8 -26
-20 -50 -26 -29 -8 -44 -17 -44 -28 0 -14 -2 -14 -10 -1 -8 12 0 19 35 36 25
12 42 24 38 28 -4 4 0 4 10 0 10 -3 17 -1 17 5 0 6 9 11 19 11 24 0 36 16 19
24 -7 3 -4 4 7 1 20 -5 107 21 170 50 35 16 131 17 115 1 -15 -15 -12 -26 6
-26 8 0 13 4 9 9 -7 12 34 36 54 32 8 -1 17 1 20 6 11 15 62 40 81 38 10 -1
28 -8 41 -17z m-166 2 c-3 -5 -12 -10 -18 -10 -7 0 -6 4 3 10 19 12 23 12 15
0z m-326 -42 c1 -8 -53 -38 -68 -38 -12 0 -10 27 2 48 5 7 13 9 19 6 6 -4 5
-10 -3 -15 -8 -5 -9 -9 -4 -9 15 0 36 16 34 26 -4 21 3 27 11 9 5 -11 9 -23 9
-27z m271 28 c0 -2 -7 -6 -15 -10 -8 -3 -15 -1 -15 4 0 6 7 10 15 10 8 0 15
-2 15 -4z m-180 -26 c8 -5 11 -10 5 -10 -5 0 -17 5 -25 10 -8 5 -10 10 -5 10
6 0 17 -5 25 -10z m365 -41 c4 -6 5 -13 2 -15 -8 -8 -77 7 -77 17 0 13 67 11
75 -2z m-77 -37 c3 -9 -4 -11 -25 -6 -44 10 -54 26 -14 22 19 -2 36 -9 39 -16z
m-491 2 c-3 -3 -12 -4 -19 -1 -8 3 -5 6 6 6 11 1 17 -2 13 -5z m-112 -14 c3
-5 1 -10 -4 -10 -6 0 -11 5 -11 10 0 6 2 10 4 10 3 0 8 -4 11 -10z m499 -11
c-31 -12 -40 -9 -20 6 10 8 24 11 29 8 6 -4 2 -10 -9 -14z m-454 -9 c0 -5 -5
-10 -11 -10 -5 0 -7 5 -4 10 3 6 8 10 11 10 2 0 4 -4 4 -10z m490 -4 c0 -9 -7
-12 -21 -9 -16 4 -17 8 -7 14 19 13 28 11 28 -5z m-104 -15 c-3 -5 2 -8 11 -7
9 0 18 -4 20 -11 3 -8 -7 -8 -38 0 -35 8 -39 12 -23 18 26 11 36 11 30 0z
m-636 -40 c0 -5 -9 -7 -20 -4 -11 3 -20 7 -20 9 0 2 9 4 20 4 11 0 20 -4 20
-9z m600 -7 c0 -11 -5 -14 -16 -10 -9 3 -24 6 -35 6 -10 0 -19 5 -19 10 0 6
16 10 35 10 25 0 35 -4 35 -16z m-900 -9 c0 -8 -4 -15 -10 -15 -5 0 -10 7 -10
15 0 8 5 15 10 15 6 0 10 -7 10 -15z m379 11 c-15 -13 -49 -25 -49 -17 0 5 8
12 18 14 24 6 36 8 31 3z m356 -6 c-3 -5 -10 -10 -16 -10 -5 0 -9 5 -9 10 0 6
7 10 16 10 8 0 12 -4 9 -10z m-595 -9 c0 -6 -4 -13 -10 -16 -5 -3 -10 1 -10 9
0 9 5 16 10 16 6 0 10 -4 10 -9z m687 -15 c13 -13 -7 -18 -46 -11 -23 4 -39
10 -36 15 6 9 72 6 82 -4z m-277 -10 c0 -3 -4 -8 -10 -11 -5 -3 -10 -1 -10 4
0 6 5 11 10 11 6 0 10 -2 10 -4z m166 -11 c-4 -12 0 -14 19 -9 15 4 25 2 25
-5 0 -12 -38 -15 -64 -5 -15 6 -15 8 1 20 23 17 26 17 19 -1z m-102 -10 c-6
-16 -24 -21 -24 -7 0 11 11 22 21 22 5 0 6 -7 3 -15z m471 -31 c17 -42 18 -45
8 -42 -11 3 -56 -22 -66 -36 -5 -7 -18 1 -37 24 -35 41 -38 35 -9 -21 11 -23
16 -38 10 -34 -6 3 -24 -3 -40 -14 -16 -12 -31 -21 -34 -21 -8 0 -87 72 -87
79 0 8 50 31 66 31 6 0 17 7 24 15 7 8 17 12 22 9 6 -4 13 -2 17 3 10 15 64
41 88 42 17 1 27 -8 38 -35z m-1055 12 c0 -8 -8 -12 -22 -9 -17 3 -28 -3 -40
-24 -16 -25 -17 -26 -18 -7 0 24 15 39 45 47 33 8 35 8 35 -7z m177 8 c-3 -3
-12 -4 -19 -1 -8 3 -5 6 6 6 11 1 17 -2 13 -5z m313 -18 c0 -8 -7 -16 -15 -20
-13 -4 -14 -2 -5 14 13 23 20 26 20 6z m30 -1 c0 -8 -4 -15 -10 -15 -5 0 -10
7 -10 15 0 8 5 15 10 15 6 0 10 -7 10 -15z m-410 0 c0 -2 -10 -9 -22 -15 -22
-11 -22 -10 -4 4 21 17 26 19 26 11z m540 -11 c0 -15 -12 -17 -47 -8 -35 9
-27 22 12 22 23 0 35 -5 35 -14z m-691 -40 c-15 -18 -22 -13 -13 10 3 9 10 13
16 10 5 -3 4 -12 -3 -20z m491 16 c0 -5 -4 -10 -10 -10 -5 0 -10 5 -10 10 0 6
5 10 10 10 6 0 10 -4 10 -10z m146 -16 c-21 -15 -45 -18 -70 -8 -28 11 -7 22
42 22 43 0 45 -1 28 -14z m-671 -14 c-3 -5 -12 -10 -18 -10 -7 0 -6 4 3 10 19
12 23 12 15 0z m595 -24 c0 -20 -16 -29 -40 -21 -25 8 -26 22 -2 28 32 9 42 7
42 -7z m296 -8 c48 -55 48 -54 13 -87 -18 -17 -37 -31 -43 -31 -6 0 -29 15
-51 34 -22 19 -42 33 -44 30 -3 -3 6 -15 20 -27 54 -47 55 -53 13 -96 l-38
-40 -58 46 c-32 25 -58 49 -58 53 0 4 23 26 50 49 28 23 50 37 50 30 0 -8 5
-6 13 4 15 20 76 56 98 56 8 1 24 -9 35 -21z m-373 1 c-8 -8 -16 -8 -30 0 -16
9 -14 10 12 11 21 0 26 -3 18 -11z m-558 -9 c-3 -5 -10 -10 -16 -10 -5 0 -9 5
-9 10 0 6 7 10 16 10 8 0 12 -4 9 -10z m385 -20 c0 -5 -5 -10 -11 -10 -5 0 -7
5 -4 10 3 6 8 10 11 10 2 0 4 -4 4 -10z m80 0 c-8 -5 -19 -10 -25 -10 -5 0 -3
5 5 10 8 5 20 10 25 10 6 0 3 -5 -5 -10z m63 -4 c8 -19 1 -24 -28 -19 -19 4
-21 8 -12 19 16 17 33 18 40 0z m62 -6 c-3 -5 -10 -10 -16 -10 -5 0 -9 5 -9
10 0 6 7 10 16 10 8 0 12 -4 9 -10z m-269 -37 c-10 -10 -19 5 -10 18 6 11 8
11 12 0 2 -7 1 -15 -2 -18z m-62 -27 c-3 -9 -10 -13 -16 -10 -5 3 -4 12 3 20
15 18 22 13 13 -10z m259 3 c-15 -15 -27 -19 -43 -14 -24 8 -17 20 15 28 44
11 50 8 28 -14z m-110 4 c-7 -2 -19 -2 -25 0 -7 3 -2 5 12 5 14 0 19 -2 13 -5z
m354 -113 c37 -39 42 -53 16 -43 -15 6 -16 4 -5 -9 14 -17 0 -34 -18 -23 -5 3
-7 0 -4 -8 12 -31 -27 -25 -73 11 -26 21 -63 44 -80 51 -18 7 -33 17 -33 20 0
4 20 22 45 41 25 19 45 38 45 42 0 13 69 -40 107 -82z m-342 70 c-3 -5 -1 -10
4 -10 6 0 11 -4 11 -10 0 -5 -11 -10 -25 -10 -24 0 -24 1 -8 20 18 21 28 27
18 10z m174 -102 c28 -15 40 -27 37 -37 -3 -9 -8 -29 -12 -46 -6 -30 -6 -30
10 -8 9 12 13 28 10 36 -9 24 14 30 28 7 7 -11 18 -20 24 -20 7 0 15 -7 18
-17 8 -19 -41 -76 -57 -66 -6 4 0 14 13 25 12 10 21 21 18 23 -2 3 -13 -3 -24
-13 -19 -18 -20 -18 -49 0 -32 19 -39 22 -98 44 -63 24 -56 14 18 -21 39 -19
79 -40 90 -47 11 -7 22 -14 24 -16 3 -1 6 -16 7 -32 2 -37 -5 -37 -84 -5 -34
14 -73 25 -87 25 -14 0 -28 6 -30 13 -10 30 -11 98 -1 111 13 15 87 66 97 66
4 0 26 -10 48 -22z m-190 -80 c0 -18 2 -60 5 -93 3 -33 8 -125 12 -205 3 -80
8 -147 9 -150 2 -3 5 -56 6 -118 2 -94 0 -116 -14 -133 -9 -10 -17 -25 -17
-32 1 -7 6 -5 14 6 7 9 16 17 20 17 11 0 6 -18 -10 -35 -16 -15 -16 -16 2 -13
15 2 18 -2 15 -22 -1 -14 -8 -28 -14 -32 -8 -5 -7 -9 4 -13 18 -7 18 -54 -1
-65 -8 -5 -13 -24 -12 -44 2 -52 -14 -44 -22 10 -9 69 -7 144 4 119 8 -18 9
-17 9 8 1 16 -3 26 -8 23 -5 -3 -12 1 -15 10 -10 27 -7 122 5 130 8 5 7 9 -4
16 -11 6 -16 24 -16 61 0 28 -3 117 -6 197 -4 80 -8 182 -10 226 -1 45 -5 86
-8 91 -5 8 38 73 49 73 2 0 4 -15 3 -32z m173 -135 c44 -24 48 -29 48 -65 0
-43 -4 -45 -50 -22 -18 9 -53 22 -79 28 -45 12 -46 13 -49 55 l-3 44 42 -7
c24 -4 64 -19 91 -33z m-124 -808 c-2 -25 -1 -45 2 -45 3 0 7 -35 9 -77 1 -43
5 -81 7 -85 3 -5 -1 -11 -10 -14 -8 -3 -13 -11 -10 -19 3 -7 -2 -15 -10 -18
-11 -4 -13 -1 -9 10 4 11 2 14 -5 9 -7 -4 -12 -14 -12 -23 0 -9 -3 -14 -6 -10
-12 12 6 57 24 57 13 0 17 8 16 38 -1 20 -3 42 -4 47 -1 6 -1 25 0 43 1 23 -3
32 -15 32 -12 0 -14 -4 -6 -19 8 -14 7 -20 -3 -24 -21 -8 -17 43 6 67 13 14
17 28 13 48 -4 18 -2 28 5 28 8 0 11 -15 8 -45z m-25 -171 l-7 -39 -6 40 c-7
45 -2 61 12 47 5 -5 6 -25 1 -48z m18 -137 c-8 -8 -11 -7 -11 4 0 20 13 34 18
19 3 -7 -1 -17 -7 -23z m-24 -9 c22 -43 27 -71 11 -65 -7 2 -12 12 -10 21 2
10 -4 28 -12 41 -16 25 -20 35 -11 35 2 0 12 -15 22 -32z m-36 -65 c-8 -15
-10 -15 -11 -2 0 17 10 32 18 25 2 -3 -1 -13 -7 -23z m49 -33 c0 -5 -7 -10
-16 -10 -8 0 -12 5 -9 10 3 6 10 10 16 10 5 0 9 -4 9 -10z m-16 -57 c-1 -16
-2 -31 -3 -35 -2 -12 -41 -9 -41 2 0 6 9 10 20 10 22 0 27 15 8 23 -10 4 -9 8
2 16 8 6 15 11 15 11 1 0 0 -12 -1 -27z m-54 -19 c0 -8 -5 -12 -10 -9 -6 4 -8
11 -5 16 9 14 15 11 15 -7z m0 -54 c0 -5 -4 -10 -9 -10 -6 0 -13 5 -16 10 -3
6 1 10 9 10 9 0 16 -4 16 -10z m-25 -30 c11 -16 28 -30 39 -30 15 0 16 -3 6
-15 -17 -20 -27 -19 -35 5 -4 11 -11 17 -16 14 -6 -3 -20 4 -31 16 -17 18 -18
24 -7 31 20 13 22 12 44 -21z m278 -5 c9 -4 17 -10 17 -14 -2 -14 -108 -89
-144 -101 -25 -8 -34 -15 -26 -20 9 -6 6 -11 -10 -20 -20 -11 -25 -10 -35 4
-7 9 -18 16 -26 16 -7 0 -3 7 10 16 16 11 19 19 11 24 -7 5 -2 13 15 24 31 20
51 64 35 80 -5 5 -10 13 -10 17 0 7 133 -15 163 -26z"/>
<path d="M9819 6006 c-20 -18 -42 -35 -50 -38 -8 -3 -11 -9 -7 -13 8 -9 118
61 118 76 0 18 -26 8 -61 -25z"/>
<path d="M9667 5912 c-10 -10 -17 -24 -17 -30 0 -11 -136 -82 -158 -82 -7 0
-12 -4 -12 -10 0 -16 8 -13 117 41 106 54 157 99 110 99 -13 0 -31 -8 -40 -18z"/>
<path d="M9260 6120 c-9 -6 -10 -10 -3 -10 6 0 15 5 18 10 8 12 4 12 -15 0z"/>
<path d="M9228 6088 c5 -5 16 -8 23 -6 8 3 3 7 -10 11 -17 4 -21 3 -13 -5z"/>
<path d="M9054 5773 c0 -10 -5 -17 -12 -15 -8 1 -11 -2 -7 -8 5 -8 11 -8 19
-1 7 6 16 8 19 5 3 -3 11 -3 17 1 8 5 8 11 -1 21 -16 20 -37 18 -35 -3z"/>
<path d="M8875 5721 c-6 -11 13 -26 22 -17 4 3 0 6 -8 7 -8 0 -6 4 6 9 16 7
17 9 3 9 -9 1 -19 -3 -23 -8z"/>
<path d="M8923 5715 c0 -8 4 -12 9 -9 5 3 6 10 3 15 -9 13 -12 11 -12 -6z"/>
<path d="M8730 5280 c-8 -5 -11 -12 -7 -16 4 -4 13 -2 19 4 15 15 7 24 -12 12z"/>
<path d="M8476 4565 c-3 -8 -1 -15 4 -15 6 0 10 7 10 15 0 8 -2 15 -4 15 -2 0
-6 -7 -10 -15z"/>
<path d="M8477 4313 c-10 -9 -8 -43 2 -43 5 0 9 11 9 25 0 27 -1 28 -11 18z"/>
<path d="M8590 5015 c0 -7 64 -64 72 -65 4 0 5 7 2 15 -4 8 -12 15 -20 15 -8
0 -14 3 -14 8 0 4 -9 13 -20 20 -11 7 -20 10 -20 7z"/>
<path d="M4540 7046 c0 -2 8 -10 18 -17 15 -13 16 -12 3 4 -13 16 -21 21 -21
13z"/>
<path d="M4515 7020 c10 -11 20 -20 23 -20 3 0 -3 9 -13 20 -10 11 -20 20 -23
20 -3 0 3 -9 13 -20z"/>
<path d="M4582 6950 c7 -11 19 -22 28 -25 8 -4 4 5 -9 19 -29 31 -36 33 -19 6z"/>
<path d="M10190 6920 c0 -7 -28 -19 -55 -25 -5 -1 -17 -5 -25 -8 -8 -4 -24 -5
-35 -4 -14 1 -21 -5 -23 -22 -6 -37 10 -43 64 -24 27 10 51 21 54 24 3 4 24
10 48 14 36 6 42 10 42 31 0 20 -4 23 -35 22 -19 -1 -35 -4 -35 -8z m-102 -61
c-2 -6 -8 -10 -13 -10 -5 0 -11 4 -13 10 -2 6 4 11 13 11 9 0 15 -5 13 -11z"/>
<path d="M4765 6730 c16 -16 32 -30 37 -30 4 0 -6 14 -24 30 -17 17 -33 30
-36 30 -3 0 7 -13 23 -30z"/>
<path d="M4633 6645 c0 -8 5 -11 10 -8 5 3 13 -1 18 -8 6 -10 9 -10 9 -2 0 7
-8 17 -18 22 -14 7 -19 6 -19 -4z"/>
<path d="M4711 6633 c0 -5 14 -19 32 -32 l32 -25 -29 32 c-31 33 -36 37 -35
25z"/>
<path d="M4654 6588 l-29 -31 33 23 c17 13 32 27 32 32 0 13 -5 10 -36 -24z"/>
<path d="M4539 6571 c11 -7 10 -10 -3 -18 -16 -9 -16 -11 -1 -23 13 -11 14
-10 9 5 -5 12 -4 16 4 11 6 -3 14 -1 18 5 7 11 -12 29 -31 29 -5 0 -4 -4 4 -9z"/>
<path d="M4630 6515 c-13 -14 -20 -25 -16 -25 4 0 19 11 34 25 15 14 22 25 16
25 -6 0 -21 -11 -34 -25z"/>
<path d="M4445 6510 c-3 -5 -1 -10 4 -10 6 0 11 5 11 10 0 6 -2 10 -4 10 -3 0
-8 -4 -11 -10z"/>
<path d="M4491 6473 c0 -10 59 -57 64 -51 2 2 -11 16 -30 31 -19 15 -35 24
-34 20z"/>
<path d="M4585 6470 c-3 -6 1 -7 9 -4 18 7 21 14 7 14 -6 0 -13 -4 -16 -10z"/>
<path d="M4560 6456 c0 -2 8 -10 18 -17 15 -13 16 -12 3 4 -13 16 -21 21 -21
13z"/>
<path d="M9611 6366 c-19 -7 -37 -18 -39 -24 -5 -15 13 -15 41 -1 16 9 22 9
25 0 6 -19 19 -12 24 14 6 28 -1 29 -51 11z"/>
<path d="M10640 6361 c0 -5 5 -13 10 -16 6 -3 10 -2 10 4 0 5 -4 13 -10 16 -5
3 -10 2 -10 -4z"/>
<path d="M9775 6290 c-4 -6 7 -10 25 -10 18 0 29 4 25 10 -3 6 -15 10 -25 10
-10 0 -22 -4 -25 -10z"/>
<path d="M8715 6250 c3 -5 8 -10 11 -10 2 0 4 5 4 10 0 6 -5 10 -11 10 -5 0
-7 -4 -4 -10z"/>
<path d="M9638 6190 c-7 -24 -3 -38 8 -28 3 4 4 17 2 30 l-3 23 -7 -25z"/>
<path d="M8438 6153 c7 -3 16 -2 19 1 4 3 -2 6 -13 5 -11 0 -14 -3 -6 -6z"/>
<path d="M8400 6140 c0 -5 5 -10 10 -10 6 0 10 5 10 10 0 6 -4 10 -10 10 -5 0
-10 -4 -10 -10z"/>
<path d="M8465 6130 c-3 -5 -1 -10 4 -10 6 0 11 5 11 10 0 6 -2 10 -4 10 -3 0
-8 -4 -11 -10z"/>
<path d="M8958 6123 c-25 -10 -38 -22 -38 -34 0 -12 5 -16 15 -13 8 4 15 10
15 14 0 4 16 6 35 3 32 -4 35 -3 35 21 0 30 -10 31 -62 9z"/>
<path d="M3523 6123 c-24 -9 -13 -20 14 -15 21 4 25 2 20 -12 -4 -9 -2 -16 3
-16 6 0 10 5 10 10 0 19 29 10 48 -15 29 -36 38 -31 13 8 -11 17 -24 32 -30
32 -5 0 -13 3 -17 8 -8 8 -42 8 -61 0z"/>
<path d="M3880 6112 c21 -7 25 -15 28 -56 4 -63 -8 -76 -72 -76 -28 0 -58 -5
-66 -10 -11 -7 -6 -8 18 -4 48 10 39 -12 -10 -22 -32 -7 -1 -10 127 -11 191
-2 272 -7 329 -18 l39 -8 -22 22 c-18 18 -31 21 -67 18 -41 -3 -44 -2 -44 20
0 20 5 23 39 23 22 0 43 -4 46 -10 3 -5 11 -10 18 -10 8 0 8 3 0 11 -6 6 -9
17 -7 24 4 9 -8 11 -45 7 -46 -4 -50 -3 -65 24 -40 73 -47 77 -164 80 -59 2
-96 0 -82 -4z"/>
<path d="M8235 6080 c-3 -6 1 -7 9 -4 18 7 21 14 7 14 -6 0 -13 -4 -16 -10z"/>
<path d="M8730 6065 c0 -8 2 -15 4 -15 2 0 6 7 10 15 3 8 1 15 -4 15 -6 0 -10
-7 -10 -15z"/>
<path d="M8973 6063 c-25 -5 -49 -30 -39 -41 4 -4 12 1 17 11 6 9 20 17 32 16
21 0 21 -1 -3 -11 l-25 -10 24 -9 c19 -7 28 -5 41 9 17 18 17 19 -1 30 -10 7
-20 11 -21 11 -2 -1 -13 -4 -25 -6z"/>
<path d="M8760 6040 c0 -19 3 -21 12 -12 9 9 9 15 0 24 -9 9 -12 7 -12 -12z"/>
<path d="M8435 5990 c-8 -13 5 -13 25 0 13 8 13 10 -2 10 -9 0 -20 -4 -23 -10z"/>
<path d="M8480 5990 c0 -13 11 -13 30 0 12 8 11 10 -7 10 -13 0 -23 -4 -23
-10z"/>
<path d="M7119 5956 c-2 -2 -3 -45 -1 -96 3 -64 7 -90 15 -87 7 2 13 16 15 30
4 32 27 36 35 7 6 -22 27 -28 27 -7 0 15 -73 157 -81 157 -3 0 -8 -2 -10 -4z
m41 -87 c0 -5 -4 -9 -10 -9 -5 0 -10 7 -10 16 0 8 5 12 10 9 6 -3 10 -10 10
-16z"/>
<path d="M7018 5919 c-38 -22 -10 -99 36 -99 21 0 32 -28 17 -43 -10 -9 -15
-8 -25 6 -7 9 -16 17 -20 17 -12 0 -6 -38 9 -50 21 -17 47 -9 64 21 13 24 13
29 -2 53 -10 14 -26 26 -36 26 -26 0 -42 22 -30 40 8 11 12 12 16 3 5 -15 33
-18 33 -4 0 11 -28 41 -38 41 -4 0 -15 -5 -24 -11z"/>
<path d="M3805 5910 c-18 -8 -18 -9 5 -9 40 -2 111 -26 103 -36 -4 -4 -2 -5 5
-1 6 4 12 2 12 -3 0 -6 5 -11 11 -11 21 0 -15 33 -56 51 -45 21 -51 21 -80 9z"/>
<path d="M4068 5903 c7 -3 16 -2 19 1 4 3 -2 6 -13 5 -11 0 -14 -3 -6 -6z"/>
<path d="M4165 5900 c3 -5 18 -10 33 -10 21 0 24 2 12 10 -20 13 -53 13 -45 0z"/>
<path d="M4275 5890 c3 -5 18 -10 33 -10 21 0 24 2 12 10 -20 13 -53 13 -45 0z"/>
<path d="M6953 5884 c4 -11 9 -32 13 -49 l6 -30 -26 30 c-14 17 -25 33 -26 38
0 4 -7 7 -16 7 -12 0 -15 -6 -10 -22 4 -13 14 -53 23 -90 17 -68 33 -89 33
-44 0 14 -5 37 -10 52 -17 44 -4 38 24 -11 26 -43 40 -54 49 -37 8 14 -38 165
-52 170 -9 3 -11 -2 -8 -14z"/>
<path d="M8435 5891 c-3 -5 -1 -12 5 -16 5 -3 10 1 10 9 0 18 -6 21 -15 7z"/>
<path d="M4395 5870 c3 -5 10 -10 16 -10 5 0 9 5 9 10 0 6 -7 10 -16 10 -8 0
-12 -4 -9 -10z"/>
<path d="M4128 5863 c6 -2 18 -2 25 0 6 3 1 5 -13 5 -14 0 -19 -2 -12 -5z"/>
<path d="M6814 5848 c-13 -20 -8 -91 9 -131 15 -35 20 -38 49 -35 30 3 33 6
36 41 2 21 -1 37 -7 37 -6 0 -11 -9 -11 -19 0 -28 -21 -37 -36 -16 -18 24 -28
80 -19 102 6 16 8 16 26 -6 24 -29 37 -20 21 14 -12 27 -55 35 -68 13z"/>
<path d="M4448 5844 c6 -3 12 -12 12 -20 0 -8 7 -14 16 -14 10 0 13 -6 10 -17
-4 -14 0 -18 19 -19 29 -2 30 -1 13 18 -7 8 -18 23 -24 33 -6 11 -22 21 -35
22 -13 1 -18 0 -11 -3z"/>
<path d="M4125 5831 c6 -5 28 -11 50 -15 25 -4 34 -3 25 2 -22 13 -87 24 -75
13z"/>
<path d="M4230 5830 c0 -9 11 -13 65 -25 23 -5 27 -4 19 5 -14 15 -84 31 -84
20z"/>
<path d="M4028 5823 c6 -2 18 -2 25 0 6 3 1 5 -13 5 -14 0 -19 -2 -12 -5z"/>
<path d="M8076 5735 c-9 -26 -7 -32 5 -12 6 10 9 21 6 23 -2 3 -7 -2 -11 -11z"/>
<path d="M4530 5726 c0 -9 5 -16 10 -16 6 0 10 4 10 9 0 6 -4 13 -10 16 -5 3
-10 -1 -10 -9z"/>
<path d="M4760 5720 c0 -5 5 -10 11 -10 5 0 7 5 4 10 -3 6 -8 10 -11 10 -2 0
-4 -4 -4 -10z"/>
<path d="M7966 5697 c-15 -11 -17 -25 -14 -80 1 -37 0 -67 -4 -67 -3 0 -23 23
-43 50 -22 30 -44 50 -56 50 -11 0 -24 10 -29 23 -5 12 -9 16 -9 9 -1 -7 -5
-11 -10 -8 -5 3 -7 -20 -5 -52 11 -181 17 -232 23 -232 4 0 15 6 24 13 12 9
17 31 19 86 l3 74 39 -57 c47 -68 48 -69 80 -56 l26 10 0 125 c0 131 -4 141
-44 112z"/>
<path d="M7765 5670 c3 -5 -2 -10 -12 -10 -15 0 -15 -2 -3 -9 8 -6 18 -7 22
-5 12 8 10 34 -3 34 -5 0 -7 -4 -4 -10z"/>
<path d="M7651 5581 c-18 -12 -6 -251 14 -251 28 0 34 28 32 140 -2 93 -5 115
-17 117 -8 2 -21 -1 -29 -6z"/>
<path d="M6795 5565 c-79 -23 -95 -29 -95 -34 0 -14 41 -9 47 5 3 8 16 14 28
14 13 0 27 5 30 10 3 6 5 10 3 9 -2 0 -7 -2 -13 -4z"/>
<path d="M7491 5519 c-22 -9 -23 -13 -18 -59 l6 -50 -46 -20 c-62 -27 -66 -26
-60 19 6 51 -3 67 -32 51 -21 -11 -22 -15 -16 -123 8 -138 9 -141 35 -127 16
9 20 21 20 69 l0 58 38 12 c20 7 43 15 50 17 9 4 12 -8 12 -44 0 -56 5 -65 31
-51 17 9 19 23 19 129 0 65 -3 121 -7 123 -5 3 -19 1 -32 -4z"/>
<path d="M5198 5453 c7 -3 16 -2 19 1 4 3 -2 6 -13 5 -11 0 -14 -3 -6 -6z"/>
<path d="M1885 5408 c-16 -6 -167 -59 -335 -119 -168 -61 -311 -112 -319 -115
-11 -4 -11 -8 3 -22 22 -26 20 -31 -11 -27 -16 2 -32 4 -36 4 -5 1 -5 6 -2 11
11 19 -21 10 -171 -44 -82 -30 -231 -84 -330 -120 -100 -36 -187 -66 -192 -66
-12 0 -37 -78 -29 -87 4 -4 466 145 657 212 36 13 104 35 153 51 78 25 110 44
74 44 -15 0 -44 47 -34 56 12 12 35 -5 48 -35 11 -24 18 -30 34 -25 87 24 575
190 575 196 0 7 -64 -10 -168 -44 -38 -12 -75 -18 -93 -14 -16 3 -29 2 -29 -3
0 -5 -9 -7 -20 -4 -27 7 -25 30 3 39 12 5 25 7 29 6 5 -1 7 3 5 10 -1 6 7 14
18 16 11 2 39 12 62 23 24 10 47 19 53 19 5 0 10 5 10 10 0 6 10 10 23 10 13
0 32 7 43 15 22 17 20 17 -21 3z m-270 -146 l-20 -5 20 -8 c19 -7 19 -8 -2 -8
-23 -1 -30 9 -16 22 3 4 13 6 22 6 11 -1 9 -3 -4 -7z"/>
<path d="M7206 5413 c-81 -21 -142 -110 -134 -194 6 -60 26 -83 70 -83 74 1
148 65 148 129 0 26 -1 27 -22 13 -12 -8 -26 -29 -30 -46 -9 -34 -56 -66 -82
-56 -21 8 -39 69 -32 108 13 68 95 116 111 66 7 -23 28 -26 44 -6 14 17 -1 61
-24 70 -18 6 -19 6 -49 -1z"/>
<path d="M6275 5375 c-40 -18 -16 -19 26 0 19 8 27 14 19 14 -8 0 -28 -6 -45
-14z"/>
<path d="M5165 5347 c-22 -5 -46 -17 -54 -25 -13 -13 -12 -14 9 -7 14 5 40 12
59 16 35 8 67 30 41 28 -8 -1 -33 -6 -55 -12z"/>
<path d="M6203 5353 c-23 -4 -34 -43 -13 -43 6 0 10 7 10 15 0 8 6 15 14 15 8
0 18 5 21 10 3 6 3 9 -2 9 -4 -1 -18 -4 -30 -6z"/>
<path d="M5362 5332 c-19 -3 -20 -5 -8 -18 17 -17 30 -19 20 -3 -4 8 1 9 17 4
13 -3 20 -3 14 2 -5 5 -12 11 -15 14 -3 2 -15 3 -28 1z"/>
<path d="M5298 5303 c12 -2 30 -2 40 0 9 3 -1 5 -23 4 -22 0 -30 -2 -17 -4z"/>
<path d="M6865 5279 c-44 -17 -84 -34 -89 -40 -6 -5 -18 -9 -27 -9 -13 0 -155
-55 -166 -64 -3 -3 16 -259 20 -262 2 -2 26 7 54 20 27 14 90 40 139 59 181
70 174 66 174 117 0 73 -12 210 -19 209 -3 0 -42 -14 -86 -30z m-15 -39 c0 -5
-4 -10 -10 -10 -5 0 -10 5 -10 10 0 6 5 10 10 10 6 0 10 -4 10 -10z m80 -15
c0 -30 -35 -53 -44 -28 -10 25 3 53 25 53 14 0 19 -7 19 -25z m-98 -56 c12 -8
2 -29 -14 -29 -5 0 -8 6 -5 14 3 7 1 18 -5 24 -6 6 -7 16 -2 24 7 10 9 8 12
-7 3 -11 9 -23 14 -26z m32 -34 c4 -10 -1 -15 -14 -15 -13 0 -18 5 -14 15 4 8
10 15 14 15 4 0 10 -7 14 -15z"/>
<path d="M5408 5293 c-19 -5 -24 -18 -10 -27 4 -2 13 4 20 15 7 10 11 18 10
18 -2 -1 -11 -3 -20 -6z"/>
<path d="M6193 5260 c0 -25 2 -35 4 -22 2 12 2 32 0 45 -2 12 -4 2 -4 -23z"/>
<path d="M5345 5280 c3 -5 14 -10 23 -10 15 0 15 2 2 10 -20 13 -33 13 -25 0z"/>
<path d="M5310 5270 c0 -5 5 -10 10 -10 6 0 10 5 10 10 0 6 -4 10 -10 10 -5 0
-10 -4 -10 -10z"/>
<path d="M5435 5270 c-3 -5 -1 -10 4 -10 6 0 11 5 11 10 0 6 -2 10 -4 10 -3 0
-8 -4 -11 -10z"/>
<path d="M5442 5200 c-23 -19 -23 -21 -7 -37 17 -16 17 -16 11 4 -5 16 -1 26
16 37 12 9 18 16 13 16 -6 -1 -21 -9 -33 -20z"/>
<path d="M5642 5200 c0 -14 2 -19 5 -12 2 6 2 18 0 25 -3 6 -5 1 -5 -13z"/>
<path d="M5503 5192 c-18 -9 -33 -20 -33 -25 0 -4 15 0 33 10 17 9 38 16 45
15 6 -2 12 2 12 8 0 14 -19 11 -57 -8z"/>
<path d="M5177 5170 l-29 -29 45 2 c32 1 43 5 36 13 -5 6 -7 19 -3 28 10 26
-18 18 -49 -14z"/>
<path d="M5326 5154 c-8 -22 -8 -22 17 -34 20 -10 20 -10 4 3 -10 9 -15 21
-11 31 3 9 4 16 1 16 -3 0 -8 -7 -11 -16z"/>
<path d="M5083 5134 c-12 -13 -19 -24 -15 -24 13 0 52 31 52 41 0 15 -13 9
-37 -17z"/>
<path d="M4125 5140 c-4 -6 -21 -21 -39 -32 -17 -11 -23 -17 -13 -14 10 3 25
6 33 6 9 0 13 4 9 9 -3 6 3 14 12 20 10 5 15 12 11 16 -3 3 -9 1 -13 -5z"/>
<path d="M5605 5080 c-170 -72 -177 -73 -169 -23 5 33 4 36 -10 24 -9 -7 -13
-18 -9 -25 4 -6 6 -18 5 -28 -2 -11 9 -20 33 -28 20 -7 39 -9 42 -6 4 3 -1 6
-11 6 -22 0 -12 16 15 23 15 4 19 2 15 -9 -3 -8 -1 -14 5 -14 6 0 13 9 16 20
3 13 17 22 39 26 19 3 34 10 34 15 0 5 12 7 28 4 15 -3 21 -2 14 1 -6 3 -10
10 -6 15 3 5 14 5 25 -2 12 -6 23 -8 27 -5 3 3 0 6 -6 6 -20 0 -13 14 13 26
27 13 35 9 35 -18 0 -10 5 -18 10 -18 6 0 8 11 6 25 -3 14 0 25 5 25 6 0 7 5
4 10 -8 14 -3 15 -160 -50z"/>
<path d="M4967 5100 c-15 -16 -24 -31 -19 -34 13 -8 62 32 62 50 0 20 -11 16
-43 -16z"/>
<path d="M5465 5109 c-11 -17 -2 -18 19 -3 17 12 17 14 4 14 -9 0 -20 -5 -23
-11z"/>
<path d="M5521 5104 c0 -11 3 -14 6 -6 3 7 2 16 -1 19 -3 4 -6 -2 -5 -13z"/>
<path d="M5490 5064 c0 -14 3 -14 15 -4 8 7 15 14 15 16 0 2 -7 4 -15 4 -8 0
-15 -7 -15 -16z"/>
<path d="M5460 5055 c0 -8 4 -15 10 -15 5 0 7 7 4 15 -4 8 -8 15 -10 15 -2 0
-4 -7 -4 -15z"/>
<path d="M5735 5050 c-3 -5 -2 -10 4 -10 5 0 13 5 16 10 3 6 2 10 -4 10 -5 0
-13 -4 -16 -10z"/>
<path d="M4000 5015 c-14 -8 -20 -14 -14 -15 5 0 19 7 30 15 24 18 16 19 -16
0z"/>
<path d="M5265 5010 c-3 -5 -1 -10 4 -10 6 0 11 5 11 10 0 6 -2 10 -4 10 -3 0
-8 -4 -11 -10z"/>
<path d="M5050 4995 c7 -8 17 -15 22 -15 5 0 3 7 -6 15 -8 8 -18 15 -22 15 -3
0 -1 -7 6 -15z"/>
<path d="M5000 4980 c0 -5 5 -10 10 -10 6 0 10 5 10 10 0 6 -4 10 -10 10 -5 0
-10 -4 -10 -10z"/>
<path d="M5500 4975 c-15 -8 -19 -14 -10 -14 18 -1 46 16 40 23 -3 2 -16 -2
-30 -9z"/>
<path d="M3988 4963 c7 -3 16 -2 19 1 4 3 -2 6 -13 5 -11 0 -14 -3 -6 -6z"/>
<path d="M5665 4905 c0 -30 19 -27 23 3 2 13 -2 22 -10 22 -7 0 -13 -11 -13
-25z"/>
<path d="M6189 4925 c-3 -6 -3 -21 1 -35 3 -14 8 -20 11 -15 3 6 3 21 -1 35
-3 14 -8 20 -11 15z"/>
<path d="M3660 4910 c0 -6 7 -10 15 -10 8 0 15 2 15 4 0 2 -7 6 -15 10 -8 3
-15 1 -15 -4z"/>
<path d="M8597 4909 c7 -7 15 -10 18 -7 3 3 -2 9 -12 12 -14 6 -15 5 -6 -5z"/>
<path d="M8630 4879 c0 -5 5 -7 10 -4 6 3 10 8 10 11 0 2 -4 4 -10 4 -5 0 -10
-5 -10 -11z"/>
<path d="M5560 4864 c0 -17 22 -14 28 4 2 7 -3 12 -12 12 -9 0 -16 -7 -16 -16z"/>
<path d="M8684 4866 c-3 -7 -4 -17 -3 -22 4 -21 -4 -21 -68 1 -38 13 -70 21
-73 18 -7 -7 23 -23 45 -23 11 0 29 -6 40 -14 11 -7 32 -16 48 -20 26 -6 27
-5 27 34 0 40 -6 51 -16 26z"/>
<path d="M3623 4843 c9 -2 23 -2 30 0 6 3 -1 5 -18 5 -16 0 -22 -2 -12 -5z"/>
<path d="M5455 4830 c-4 -6 -3 -16 3 -22 6 -6 12 -6 17 2 4 6 3 16 -3 22 -6 6
-12 6 -17 -2z"/>
<path d="M3718 4823 c6 -2 18 -2 25 0 6 3 1 5 -13 5 -14 0 -19 -2 -12 -5z"/>
<path d="M3600 4812 c0 -1 4 -10 9 -20 5 -9 12 -26 16 -36 4 -15 9 -16 17 -8
9 9 9 18 0 37 -9 20 -9 25 2 25 8 0 17 -8 20 -17 6 -15 9 -15 16 -3 14 22 2
31 -41 28 -21 -2 -39 -4 -39 -6z"/>
<path d="M8686 4774 c-4 -10 -1 -21 6 -26 10 -6 10 -8 1 -8 -7 0 -10 -7 -6
-17 5 -13 3 -15 -13 -8 -34 14 -124 33 -119 25 2 -4 24 -10 47 -14 24 -4 53
-14 66 -22 31 -21 41 -11 37 38 -5 48 -10 56 -19 32z"/>
<path d="M3676 4749 c-19 -19 -19 -19 12 -19 34 0 35 0 26 24 -8 20 -14 19
-38 -5z"/>
<path d="M3550 4735 c-31 -12 -32 -14 -10 -14 36 -1 71 10 64 20 -7 11 -11 11
-54 -6z"/>
<path d="M4440 4735 c0 -2 19 -15 43 -29 30 -18 59 -50 97 -109 49 -75 58 -84
88 -85 42 -2 41 10 -7 84 -48 72 -85 108 -133 128 -35 15 -88 22 -88 11z"/>
<path d="M3644 4710 c3 -14 7 -41 11 -61 6 -39 22 -49 79 -49 23 0 27 3 21 18
-4 9 -9 34 -12 56 -6 38 -6 38 -44 32 -30 -5 -40 -2 -49 11 -9 15 -10 14 -6
-7z"/>
<path d="M4240 4709 c19 -12 47 -32 61 -46 22 -20 31 -23 47 -14 14 7 23 8 27
1 3 -5 -3 -10 -14 -10 -26 0 -26 -5 0 -38 20 -24 21 -25 17 -5 -5 17 -2 20 11
16 30 -11 32 -15 16 -33 -19 -21 -12 -42 11 -33 13 5 13 7 2 14 -7 5 -8 9 -2
9 6 0 21 -9 34 -20 32 -28 33 -25 11 18 -22 42 -100 119 -148 145 -17 9 -48
17 -70 17 l-38 0 35 -21z"/>
<path d="M3594 4706 c-18 -14 -18 -15 4 -13 12 1 22 7 22 14 0 16 -2 16 -26
-1z"/>
<path d="M4123 4707 c10 -7 28 -20 39 -29 26 -22 42 -23 34 -3 -3 8 -1 15 4
15 16 0 22 -20 10 -35 -16 -19 6 -30 27 -13 15 11 16 11 10 -6 -6 -16 -5 -17
7 -7 8 7 20 10 25 6 6 -3 9 0 6 7 -11 28 -103 78 -142 77 -33 0 -36 -2 -20
-12z"/>
<path d="M8706 4665 c-9 -26 -7 -32 5 -12 6 10 9 21 6 23 -2 3 -7 -2 -11 -11z"/>
<path d="M4120 4635 c-38 -15 -36 -16 27 -19 45 -1 50 3 31 22 -14 14 -13 14
-58 -3z"/>
<path d="M8727 4626 c6 -29 -6 -33 -39 -15 -15 8 -19 8 -16 -1 2 -6 6 -10 9
-8 3 2 13 -5 23 -14 24 -25 47 -13 40 21 -9 35 -23 50 -17 17z"/>
<path d="M8560 4631 c21 -12 109 -23 90 -12 -8 4 -35 11 -60 14 -25 3 -38 2
-30 -2z"/>
<path d="M7537 4590 c-38 -16 -71 -31 -75 -34 -3 -3 20 -5 50 -4 31 2 54 6 52
10 -2 4 5 9 16 13 11 4 18 10 15 15 -7 12 24 21 49 15 17 -5 18 -4 6 4 -22 15
-37 13 -113 -19z"/>
<path d="M4268 4603 c-23 -6 -23 -9 3 -36 12 -12 18 -16 14 -8 -6 11 -4 13 8
8 10 -4 17 -2 17 4 0 6 7 9 15 5 13 -4 14 -2 5 14 -10 19 -26 23 -62 13z"/>
<path d="M4190 4590 c-9 -6 -10 -10 -3 -10 6 0 15 5 18 10 8 12 4 12 -15 0z"/>
<path d="M7606 4582 c-3 -9 -9 -23 -12 -30 -4 -8 0 -10 11 -6 9 4 13 9 11 12
-3 3 -1 11 5 18 6 7 6 15 1 18 -6 3 -12 -2 -16 -12z"/>
<path d="M8610 4585 c0 -8 4 -15 10 -15 5 0 7 7 4 15 -4 8 -8 15 -10 15 -2 0
-4 -7 -4 -15z"/>
<path d="M3670 4586 c0 -26 23 -56 43 -56 13 0 26 -3 30 -6 10 -10 -22 -36
-35 -28 -8 5 -9 2 -5 -10 4 -10 7 -19 7 -22 0 -2 11 2 25 8 36 16 32 67 -7 86
-16 7 -28 17 -28 23 0 5 -7 9 -15 9 -8 0 -15 -2 -15 -4z"/>
<path d="M3725 4580 c27 -12 43 -12 25 0 -8 5 -22 9 -30 9 -10 0 -8 -3 5 -9z"/>
<path d="M3784 4574 c3 -9 6 -31 6 -51 0 -41 18 -41 38 1 12 24 12 30 -4 47
-21 23 -49 26 -40 3z"/>
<path d="M8640 4562 c0 -5 7 -15 15 -22 8 -7 15 -9 15 -6 0 4 -7 14 -15 22 -8
9 -15 11 -15 6z"/>
<path d="M8725 4550 c-3 -5 1 -10 9 -10 9 0 16 5 16 10 0 6 -4 10 -9 10 -6 0
-13 -4 -16 -10z"/>
<path d="M7560 4509 c0 -11 5 -17 10 -14 6 3 10 13 10 21 0 8 -4 14 -10 14 -5
0 -10 -9 -10 -21z"/>
<path d="M8615 4516 c94 -22 115 -33 116 -58 1 -20 2 -19 10 6 4 17 7 31 5 33
-6 6 -102 25 -146 29 -41 3 -39 2 15 -10z"/>
<path d="M8680 4450 c0 -19 3 -21 12 -12 9 9 9 15 0 24 -9 9 -12 7 -12 -12z"/>
<path d="M4791 4409 c-13 -10 -19 -19 -14 -19 13 0 49 27 43 33 -3 3 -16 -3
-29 -14z"/>
<path d="M6421 4404 c0 -11 3 -14 6 -6 3 7 2 16 -1 19 -3 4 -6 -2 -5 -13z"/>
<path d="M8564 4411 c3 -5 32 -12 63 -16 32 -4 76 -16 97 -26 48 -23 45 -23
39 1 -3 11 -8 18 -12 16 -3 -2 -29 1 -56 8 -76 20 -137 28 -131 17z"/>
<path d="M8706 4315 c4 -8 8 -15 10 -15 2 0 4 7 4 15 0 8 -4 15 -10 15 -5 0
-7 -7 -4 -15z"/>
<path d="M1465 4280 c-3 -6 1 -7 9 -4 18 7 21 14 7 14 -6 0 -13 -4 -16 -10z"/>
<path d="M1390 4250 c-8 -5 -10 -10 -5 -10 6 0 17 5 25 10 8 5 11 10 5 10 -5
0 -17 -5 -25 -10z"/>
<path d="M1255 4199 c-27 -11 -99 -38 -160 -60 -60 -22 -119 -44 -130 -49 -37
-17 -175 -70 -237 -91 -35 -11 -67 -24 -73 -29 -10 -8 -59 -22 -85 -25 -8 -1
-31 -11 -51 -22 -22 -13 -41 -18 -50 -13 -11 6 -15 3 -15 -11 0 -10 4 -19 10
-19 9 0 280 104 426 163 47 20 114 46 150 60 197 76 280 109 280 113 0 7 -14
4 -65 -17z"/>
<path d="M4700 4200 c-9 -6 -10 -10 -3 -10 6 0 15 5 18 10 8 12 4 12 -15 0z"/>
<path d="M8768 4180 c2 -16 6 -30 8 -30 2 0 4 14 4 30 0 17 -4 30 -8 30 -5 0
-7 -13 -4 -30z"/>
<path d="M8600 4151 c14 -5 52 -14 85 -20 33 -6 71 -14 85 -17 37 -10 12 10
-30 23 -42 14 -178 27 -140 14z"/>
<path d="M7045 4141 c-3 -5 -1 -12 5 -16 5 -3 10 1 10 9 0 18 -6 21 -15 7z"/>
<path d="M6046 4130 c14 -14 76 -31 69 -19 -4 5 -15 9 -25 9 -10 0 -22 5 -25
10 -3 6 -11 10 -18 10 -7 0 -8 -3 -1 -10z"/>
<path d="M7201 4084 c0 -11 3 -14 6 -6 3 7 2 16 -1 19 -3 4 -6 -2 -5 -13z"/>
<path d="M5920 4086 c0 -2 7 -7 16 -10 8 -3 12 -2 9 4 -6 10 -25 14 -25 6z"/>
<path d="M8778 4063 c5 -21 7 -23 10 -9 2 10 0 22 -6 28 -6 6 -7 0 -4 -19z"/>
<path d="M4520 4055 c-7 -13 -21 -27 -31 -30 -16 -6 -54 -53 -47 -60 8 -8 69
26 74 42 3 10 11 28 17 40 15 32 3 39 -13 8z"/>
<path d="M7078 4049 c-16 -11 -28 -25 -28 -30 0 -5 8 -2 18 6 9 8 26 21 37 29
11 9 16 15 10 15 -5 0 -22 -9 -37 -20z"/>
<path d="M7200 4040 c0 -5 5 -10 11 -10 5 0 7 5 4 10 -3 6 -8 10 -11 10 -2 0
-4 -4 -4 -10z"/>
<path d="M7115 4029 c-4 -6 -5 -12 -2 -15 2 -3 7 2 10 11 7 17 1 20 -8 4z"/>
<path d="M7025 4010 c-3 -5 -1 -10 4 -10 6 0 11 5 11 10 0 6 -2 10 -4 10 -3 0
-8 -4 -11 -10z"/>
<path d="M2543 3993 c-4 -10 -20 -40 -35 -67 -16 -27 -27 -51 -24 -53 2 -3 10
6 17 19 7 12 20 37 29 53 21 38 31 65 24 65 -2 0 -8 -8 -11 -17z"/>
<path d="M2065 3984 c-22 -8 -83 -28 -135 -45 -52 -16 -104 -34 -115 -39 -11
-5 -47 -16 -80 -26 -33 -9 -76 -22 -95 -30 -69 -26 -152 -45 -170 -39 -10 3
-21 1 -25 -5 -9 -15 -51 -12 -65 5 -10 12 -10 15 2 15 8 0 20 6 27 13 6 6 15
12 19 12 15 1 72 30 72 37 0 5 8 8 18 8 10 0 26 6 37 14 11 7 48 24 83 36 34
13 61 25 58 27 -4 4 -424 -154 -796 -300 -118 -46 -261 -102 -317 -123 -113
-43 -108 -36 -119 -154 l-7 -75 56 53 c31 28 61 52 66 52 9 0 443 158 561 204
58 23 187 71 335 126 77 28 187 70 245 92 268 102 367 140 385 148 33 14 3 10
-40 -6z"/>
<path d="M4555 3980 c-3 -5 -2 -10 4 -10 5 0 13 5 16 10 3 6 2 10 -4 10 -5 0
-13 -4 -16 -10z"/>
<path d="M6780 3960 c0 -5 5 -10 10 -10 6 0 10 5 10 10 0 6 -4 10 -10 10 -5 0
-10 -4 -10 -10z"/>
<path d="M4446 3940 c-16 -5 -42 -23 -59 -40 -16 -16 -36 -30 -43 -30 -21 0
-17 17 6 23 23 6 27 34 5 34 -8 0 -13 -3 -10 -5 3 -3 -3 -14 -12 -24 -16 -17
-15 -21 13 -61 22 -31 37 -43 60 -45 41 -4 53 13 62 92 5 36 8 66 8 65 -1 0
-14 -5 -30 -9z"/>
<path d="M6772 3929 c2 -6 33 -22 68 -35 75 -27 70 -26 70 -16 0 4 -21 15 -48
25 -26 10 -55 23 -64 28 -23 12 -30 11 -26 -2z"/>
<path d="M8792 3910 c0 -14 2 -19 5 -12 2 6 2 18 0 25 -3 6 -5 1 -5 -13z"/>
<path d="M5650 3910 c8 -5 20 -10 25 -10 6 0 3 5 -5 10 -8 5 -19 10 -25 10 -5
0 -3 -5 5 -10z"/>
<path d="M5608 3883 c7 -3 16 -2 19 1 4 3 -2 6 -13 5 -11 0 -14 -3 -6 -6z"/>
<path d="M5665 3870 c-3 -5 1 -10 10 -10 9 0 13 5 10 10 -3 6 -8 10 -10 10 -2
0 -7 -4 -10 -10z"/>
<path d="M5768 3873 c7 -3 16 -2 19 1 4 3 -2 6 -13 5 -11 0 -14 -3 -6 -6z"/>
<path d="M6930 3875 c0 -6 63 -35 77 -35 12 0 -30 27 -54 34 -13 4 -23 5 -23
1z"/>
<path d="M7069 3864 c-7 -9 -22 -19 -33 -23 -14 -6 -16 -9 -5 -13 8 -3 24 7
37 23 13 16 21 29 19 29 -3 0 -11 -7 -18 -16z"/>
<path d="M5818 3863 c7 -3 16 -2 19 1 4 3 -2 6 -13 5 -11 0 -14 -3 -6 -6z"/>
<path d="M2467 3853 c-4 -3 -7 -13 -7 -22 1 -13 3 -13 11 2 11 19 8 33 -4 20z"/>
<path d="M7080 3820 c0 -5 5 -10 11 -10 5 0 7 5 4 10 -3 6 -8 10 -11 10 -2 0
-4 -4 -4 -10z"/>
<path d="M2440 3790 c-6 -11 -8 -20 -6 -20 3 0 10 9 16 20 6 11 8 20 6 20 -3
0 -10 -9 -16 -20z"/>
<path d="M7890 3800 c8 -5 20 -10 25 -10 6 0 3 5 -5 10 -8 5 -19 10 -25 10 -5
0 -3 -5 5 -10z"/>
<path d="M8796 3785 c4 -8 8 -15 10 -15 2 0 4 7 4 15 0 8 -4 15 -10 15 -5 0
-7 -7 -4 -15z"/>
<path d="M7938 3783 c7 -3 16 -2 19 1 4 3 -2 6 -13 5 -11 0 -14 -3 -6 -6z"/>
<path d="M2412 3739 c-15 -24 -33 -69 -28 -69 6 0 47 82 44 86 -2 2 -9 -6 -16
-17z"/>
<path d="M7260 3756 c0 -2 7 -7 16 -10 8 -3 12 -2 9 4 -6 10 -25 14 -25 6z"/>
<path d="M8095 3720 c27 -12 43 -12 25 0 -8 5 -22 9 -30 9 -10 0 -8 -3 5 -9z"/>
<path d="M8153 3699 c27 -16 87 -40 87 -35 0 6 -89 46 -99 46 -3 0 2 -5 12
-11z"/>
<path d="M7865 3540 c3 -5 11 -10 16 -10 6 0 7 5 4 10 -3 6 -11 10 -16 10 -6
0 -7 -4 -4 -10z"/>
<path d="M8035 3480 c3 -5 14 -10 23 -10 15 0 15 2 2 10 -20 13 -33 13 -25 0z"/>
<path d="M8315 3340 c3 -5 10 -10 16 -10 5 0 9 5 9 10 0 6 -7 10 -16 10 -8 0
-12 -4 -9 -10z"/>
<path d="M2620 3293 c-41 -7 -85 -19 -97 -25 -22 -11 -42 -14 -96 -17 -19 -1
-26 -5 -21 -13 4 -7 3 -8 -4 -4 -6 4 -21 2 -31 -4 -11 -6 -33 -12 -48 -15 -74
-12 -92 -18 -88 -25 3 -4 -12 -11 -33 -16 -20 -4 -39 -8 -42 -9 -3 -1 -18 -5
-35 -9 -16 -4 -39 -12 -50 -16 -11 -5 -60 -21 -110 -36 -49 -14 -95 -31 -102
-36 -13 -11 -101 -45 -153 -59 -34 -10 -44 -14 -143 -59 -27 -12 -59 -22 -70
-24 -12 -1 -38 -9 -57 -17 -19 -9 -59 -24 -87 -33 -29 -10 -55 -22 -58 -27 -4
-5 -19 -9 -36 -9 -16 0 -29 -4 -29 -8 0 -5 -51 -26 -112 -47 -62 -21 -139 -49
-171 -62 -32 -13 -62 -21 -67 -18 -6 4 -7 -1 -3 -11 4 -11 2 -15 -4 -11 -15 9
-74 -3 -67 -14 3 -5 -2 -6 -10 -3 -8 3 -30 -1 -47 -10 -18 -9 -41 -16 -51 -16
-11 0 -17 -4 -14 -9 4 -5 -3 -7 -14 -4 -12 3 -20 0 -20 -8 0 -7 -3 -10 -6 -6
-4 3 -23 -1 -43 -9 -20 -9 -58 -22 -86 -29 -44 -12 -51 -11 -62 3 -10 14 -12
7 -13 -47 0 -47 3 -62 13 -58 36 16 457 189 617 254 102 41 271 110 375 153
105 43 262 108 349 144 88 36 221 82 295 102 75 19 224 60 331 90 323 90 376
111 200 77z"/>
<path d="M1150 3072 c-19 -10 -63 -28 -97 -42 -35 -14 -63 -28 -63 -32 0 -5
-8 -8 -19 -8 -15 0 -170 -63 -318 -131 -24 -10 -45 -19 -49 -19 -3 0 -34 -13
-68 -29 -71 -33 -97 -64 -95 -118 2 -34 2 -35 6 -8 6 42 18 53 93 88 36 17 68
34 71 39 3 5 10 8 15 7 22 -4 45 2 40 10 -3 5 25 22 62 37 37 16 69 31 72 35
3 3 46 23 95 43 50 21 127 56 171 77 45 21 86 39 91 39 5 0 18 7 29 15 26 20
7 18 -36 -3z"/>
</g>
</svg>
